<?xml version="1.0" standalone="no"?>
<!DOCTYPE svg PUBLIC "-//W3C//DTD SVG 1.1//EN" "http://www.w3.org/Graphics/SVG/1.1/DTD/svg11.dtd" >
<svg xmlns="http://www.w3.org/2000/svg">
<metadata>
Created by FontPrep 20130207 at Tue Feb  2 10:24:22 2016
 By Dennis Perremans
(c) 2006 Microsoft Corporation. All Rights Reserved.
</metadata>
<defs>
<font id="aa3026f2104ce77a35c04950869e4451" horiz-adv-x='1024' >
  <font-face 
    font-family="SegoeUI-Bold"
    font-weight="700"
    font-stretch="normal"
    units-per-em="2048"
    panose-1="2 11 8 2 4 2 4 2 2 3"
    ascent="1638"
    descent="-410"
    x-height="1024"
    cap-height="1434"
    bbox="-794 -514 3646 2188"
    underline-thickness="119"
    underline-position="-119"
    unicode-range="U+000D-FEFF"
  />
<missing-glyph horiz-adv-x="1322" 
d="M314 148h694v1102h-694v-1102zM166 0v1398h990v-1398h-990z" />
    <glyph glyph-name="uniFDF2" unicode="&#x627;&#xfedf;&#xfee0;&#xfeea;" horiz-adv-x="2555" arabic-form="isolated" 
d="M1212 1724v164h83v-164h-83zM244 557q0 -121 136 -121q173 0 274 133v293q-162 -28 -274 -98q-136 -86 -136 -207zM1885 300q0 -144 -96.5 -230t-263.5 -86t-265 105q-98 -105 -278 -105t-264 139q-64 104 -64 270q-41 -55 -119 -92t-155 -37q-142 0 -218 83.5t-76 205.5
q0 174 186 301q159 108 382 143v72h157v-695q0 -85 42.5 -145.5t132.5 -60.5t142.5 61t52.5 145v910h157v-910q0 -84 50.5 -145t143 -61t144.5 61t52 145v910h157v-984zM1531 1579.5q0 -56.5 -42 -99.5t-119.5 -43t-105.5 43q-35 -80 -136 -80q-150 0 -150 125q0 29 5 78h84
q-5 -34 -5 -74q0 -59 66 -59q84 0 84 114v52h83v-43q0 -87 76 -87t76 84q0 54 -7 76h86q5 -30 5 -86.5zM2346 0h-157v1556h157v-1556z" />
    <glyph glyph-name="uniFDFC" unicode="&#x631;&#xfef3;&#xfe8e;&#x644;" horiz-adv-x="2992" arabic-form="isolated" 
d="M1156 248q0 -453 -546 -453q-294 0 -427.5 106.5t-133.5 336.5q0 123 24 251h166v-10q-33 -113 -33 -248t92 -191t314 -56q385 0 385 276v1296h159v-1308zM2242 270q0 -123 -106 -196.5t-288 -73.5h-108q-15 0 -30 3q-125 14 -210.5 93t-85.5 236v1224h157v-1212
q0 -85 46 -120.5t153 -35.5h68q246 0 246 156v373h158v-447zM1437 -292h-177v147h177v-147zM1761 -292h-176v147h176v-147zM2869 186q0 -299 -272.5 -454.5t-698.5 -155.5v188q366 0 590 100t224 290q0 164 -199 350v12h230q126 -164 126 -330z" />
    <glyph glyph-name="uniFEF5" unicode="&#xfedf;&#xfe82;" horiz-adv-x="1339" arabic-form="isolated" 
d="M1027 188q0 181 -89 367q-153 -228 -361 -367h450zM1184 0h-837v188q321 192 509 514q-222 334 -842 779h330q377 -308 592 -613q91 228 91 480v208h157v-208q0 -333 -152 -633q152 -276 152 -563v-152zM348 1597q-51 0 -124 22.5t-110 22.5t-126 -45v74q72 41 117.5 41
t118.5 -22.5t118.5 -22.5t117.5 43v-74q-61 -39 -112 -39z" />
    <glyph glyph-name="uniFEF6" unicode="&#xfee0;&#xfe82;" horiz-adv-x="1463" arabic-form="final" 
d="M1463 0q-172 0 -266.5 87.5t-94.5 244.5v282q-59 -59 -87 -100q-25 -93 -157.5 -256t-262.5 -258h-297q205 121 386 307.5t181 276.5q0 149 -219.5 397t-581.5 500h339q545 -503 612 -846q87 83 87 129v792h157v-1212q0 -85 46 -120.5t152 -35.5h6v-188zM397 1597
q-51 0 -124 22.5t-110 22.5t-126 -45v74q72 41 117.5 41t118.5 -22.5t118.5 -22.5t117.5 43v-74q-61 -39 -112 -39z" />
    <glyph glyph-name="uniFEF7" unicode="&#xfedf;&#xfe84;" horiz-adv-x="1339" arabic-form="isolated" 
d="M1027 188q0 181 -89 367q-153 -228 -361 -367h450zM1184 0h-837v188q321 192 509 514q-222 334 -842 779h330q377 -308 592 -613q91 228 91 480v208h157v-208q0 -333 -152 -633q152 -276 152 -563v-152zM337 1610h-302v70h67q-52 24 -52 76t44 87t112 35t105 -12v-74
q-43 17 -111 17t-69 -52q0 -32 40.5 -54.5t99.5 -22.5h66v-70z" />
    <glyph glyph-name="uniFEF8" unicode="&#xfee0;&#xfe84;" horiz-adv-x="1463" arabic-form="final" 
d="M1463 0q-172 0 -266.5 87.5t-94.5 244.5v282q-59 -59 -87 -100q-25 -93 -157.5 -256t-262.5 -258h-297q205 121 386 307.5t181 276.5q0 149 -219.5 397t-581.5 500h339q545 -503 612 -846q87 83 87 129v792h157v-1212q0 -85 46 -120.5t152 -35.5h6v-188zM386 1610h-302
v70h67q-52 24 -52 76t44 87t112 35t105 -12v-74q-44 17 -112 17t-68 -52q0 -32 40.5 -54.5t99.5 -22.5h66v-70z" />
    <glyph glyph-name="uniFEF9" unicode="&#xfedf;&#xfe88;" horiz-adv-x="1339" arabic-form="isolated" 
d="M1027 188q0 181 -89 367q-153 -228 -361 -367h450zM1184 0h-837v188q321 192 509 514q-222 334 -842 779h330q377 -308 592 -613q91 228 91 480v208h157v-208q0 -333 -152 -633q152 -276 152 -563v-152zM386 -362h-302v70h67q-52 24 -52 76t44 87t112 35t105 -12v-74
q-44 17 -112 17t-68 -52q0 -32 40.5 -54.5t99.5 -22.5h66v-70z" />
    <glyph glyph-name="uniFEFA" unicode="&#xfee0;&#xfe88;" horiz-adv-x="1463" arabic-form="final" 
d="M1463 0q-172 0 -266.5 87.5t-94.5 244.5v282q-59 -59 -87 -100q-25 -93 -157.5 -256t-262.5 -258h-297q205 121 386 307.5t181 276.5q0 149 -219.5 397t-581.5 500h339q545 -503 612 -846q87 83 87 129v792h157v-1212q0 -85 46 -120.5t152 -35.5h6v-188zM386 -362h-302
v70h67q-52 24 -52 76t44 87t112 35t105 -12v-74q-44 17 -112 17t-68 -52q0 -32 40.5 -54.5t99.5 -22.5h66v-70z" />
    <glyph glyph-name="uniFEFB" unicode="&#xfedf;&#xfe8e;" horiz-adv-x="1339" arabic-form="isolated" 
d="M1027 188q0 181 -89 367q-153 -228 -361 -367h450zM1184 0h-837v188q321 192 509 514q-222 334 -842 779h330q377 -308 592 -613q91 228 91 480v208h157v-208q0 -333 -152 -633q152 -276 152 -563v-152z" />
    <glyph glyph-name="uniFEFC" unicode="&#xfee0;&#xfe8e;" horiz-adv-x="1463" arabic-form="final" 
d="M1463 0q-172 0 -266.5 87.5t-94.5 244.5v282q-59 -59 -87 -100q-25 -93 -157.5 -256t-262.5 -258h-297q205 121 386 307.5t181 276.5q0 149 -219.5 397t-581.5 500h339q545 -503 612 -846q87 83 87 129v792h157v-1212q0 -85 46 -120.5t152 -35.5h6v-188z" />
    <glyph glyph-name="allah" unicode="&#xfedf;&#xfee0;&#x6c1;" horiz-adv-x="1984" 
d="M1212 1724v164h83v-164h-83zM244 557q0 -121 136 -121q173 0 274 133v293q-162 -28 -274 -98q-136 -86 -136 -207zM1885 300q0 -144 -96.5 -230t-263.5 -86t-265 105q-98 -105 -278 -105t-264 139q-64 104 -64 270q-41 -55 -119 -92t-155 -37q-142 0 -218 83.5t-76 205.5
q0 174 186 301q159 108 382 143v72h157v-695q0 -85 42.5 -145.5t132.5 -60.5t142.5 61t52.5 145v910h157v-910q0 -84 50.5 -145t143 -61t144.5 61t52 145v910h157v-984zM1531 1579.5q0 -56.5 -42 -99.5t-119.5 -43t-105.5 43q-35 -80 -136 -80q-150 0 -150 125q0 29 5 78h84
q-5 -34 -5 -74q0 -59 66 -59q84 0 84 114v52h83v-43q0 -87 76 -87t76 84q0 54 -7 76h86q5 -30 5 -86.5z" />
    <glyph glyph-name="uni06440671.isol" unicode="&#xfedf;&#xfb51;" horiz-adv-x="1339" 
d="M1027 188q0 181 -89 367q-153 -228 -361 -367h450zM1184 0h-837v188q321 192 509 514q-222 334 -842 779h330q377 -308 592 -613q91 228 91 480v208h157v-208q0 -333 -152 -633q152 -276 152 -563v-152zM359 1732q0 46 -48 46t-81 -38t-43 -84q23 -6 61 -6t74 26t37 56z
M443 1732q1 -68 -67 -110t-125 -42t-120 20t-97 21q-34 0 -100 -42v70q64 42 98 42t76 -10q18 75 72 121t126 46q137 0 137 -116z" />
    <glyph glyph-name="uni06440671.fina" unicode="&#xfee0;&#xfb51;" horiz-adv-x="1463" 
d="M1463 0q-173 0 -267 88t-94 244v282q-59 -59 -87 -100q-25 -93 -157 -256t-263 -258h-297q205 122 386 308t181 276q1 149 -219 397t-582 500h339q545 -503 612 -846q87 83 87 129v792h157v-1212q0 -84 46 -120t152 -36h6v-188zM407 1732q0 46 -48 46t-81 -38t-43 -84
q23 -6 61 -6t74 26t37 56zM491 1732q1 -68 -67 -110t-125 -42t-120 20t-97 21q-34 0 -100 -42v70q64 42 98 42t76 -10q18 75 72 121t126 46q137 0 137 -116z" />
    <glyph glyph-name="uni0621" unicode="&#x621;" horiz-adv-x="1013" arabic-form="isolated" 
d="M164 469q0 139 103 221t254.5 82t259.5 -18v-187h-14q-108 23 -226 23q-219 0 -219 -139q0 -91 126 -129.5t171 -26.5l253 65v-186l-654 -168v187l188 47q-106 21 -174 85.5t-68 143.5z" />
    <glyph glyph-name="uni0622" unicode="&#x622;" horiz-adv-x="575" arabic-form="isolated" 
d="M366 0h-157v1556h157v-1556zM407 1637q-51 0 -124 22.5t-110 22.5t-126 -45v74q72 41 117.5 41t118.5 -22.5t118.5 -22.5t117.5 43v-74q-61 -39 -112 -39z" />
    <glyph glyph-name="uni0623" unicode="&#x623;" horiz-adv-x="575" arabic-form="isolated" 
d="M366 0h-157v1556h157v-1556zM438 1610h-302v70h67q-52 24 -52 76t44 87t112 35t105 -12v-74q-44 17 -112 17t-68 -52q0 -32 40.5 -54.5t99.5 -22.5h66v-70z" />
    <glyph glyph-name="uni0624" unicode="&#x624;" horiz-adv-x="1042" arabic-form="final" 
d="M625 616q-48 0 -90.5 -57.5t-42.5 -119.5t47.5 -100t123.5 -38t111 39q0 93 -50.5 184.5t-98.5 91.5zM656 113q-132 0 -226.5 85t-94.5 234t95.5 261t195.5 112q126 0 221.5 -164.5t95.5 -456t-240.5 -450t-702.5 -158.5v188q390 0 589 101t199 289q-49 -41 -132 -41z
M757 979h-302v70h67q-52 24 -52 76t44 87t112 35t105 -12v-74q-43 17 -111.5 17t-68.5 -52q0 -32 40.5 -54.5t99.5 -22.5h66v-70z" />
    <glyph glyph-name="uni0625" unicode="&#x625;" horiz-adv-x="575" arabic-form="isolated" 
d="M366 0h-157v1556h157v-1556zM438 -362h-302v70h67q-52 24 -52 76t44 87t112 35t105 -12v-74q-44 17 -112 17t-68 -52q0 -32 40.5 -54.5t99.5 -22.5h66v-70z" />
    <glyph glyph-name="uni0626" unicode="&#x626;" horiz-adv-x="1573" arabic-form="isolated" 
d="M1487 866h-12q-180 88 -384 88q-99 0 -163.5 -36t-64.5 -84t45.5 -87t240.5 -121.5t261.5 -144.5t66.5 -147q0 -161 -213 -247.5t-630 -86.5q-597 0 -597 442q0 99 24 252h160v-10q-27 -135 -27 -240q0 -133 105 -194.5t337 -61.5q332 0 508 42t176 108q0 42 -56.5 81.5
t-234.5 111.5t-250.5 143.5t-72.5 159.5q0 122 112 214t304 91.5t365 -60.5v-213zM492 866h-302v70h67q-52 24 -52 76t44 87t112 35t105 -12v-74q-44 17 -112 17t-68 -52q0 -32 40.5 -54.5t99.5 -22.5h66v-70z" />
    <glyph glyph-name="uni0627" unicode="&#x627;" horiz-adv-x="575" arabic-form="isolated" 
d="M366 0h-157v1556h157v-1556z" />
    <glyph glyph-name="uni0628" unicode="&#x628;" horiz-adv-x="1757" arabic-form="final" 
d="M1658 291q0 -140 -144.5 -215.5t-425.5 -75.5h-392q-600 0 -600 477q0 114 37 240h157v-10q-37 -111 -37 -218q0 -160 104.5 -230.5t340.5 -70.5h381q204 0 313 39t109 138v352h157v-426zM1052 -293h-177v147h177v-147z" />
    <glyph glyph-name="uni0629" unicode="&#x629;" horiz-adv-x="762" arabic-form="isolated" 
d="M394 176q162 0 162 210t-197 321q-127 -137 -127 -334q0 -95 44 -146t118 -51zM713 399.5q0 -190.5 -90.5 -301t-233.5 -110.5t-229.5 100t-86.5 291.5t161 370.5q-44 10 -98 10v170q259 -13 418 -176.5t159 -354zM308 1104h-177v147h177v-147zM632 1104h-176v147h176
v-147z" />
    <glyph glyph-name="uni062A" unicode="&#x62a;" horiz-adv-x="1757" arabic-form="final" 
d="M1658 291q0 -140 -144.5 -215.5t-425.5 -75.5h-392q-600 0 -600 477q0 114 37 240h157v-10q-37 -111 -37 -218q0 -160 104.5 -230.5t340.5 -70.5h381q204 0 313 39t109 138v352h157v-426zM841 815h-177v147h177v-147zM1165 815h-176v147h176v-147z" />
    <glyph glyph-name="uni062B" unicode="&#x62b;" horiz-adv-x="1757" arabic-form="final" 
d="M1658 291q0 -140 -144.5 -215.5t-425.5 -75.5h-392q-600 0 -600 477q0 114 37 240h157v-10q-37 -111 -37 -218q0 -160 104.5 -230.5t340.5 -70.5h381q204 0 313 39t109 138v352h157v-426zM826 815h-177v147h177v-147zM1180 815h-177v147h177v-147zM1003 1024h-177v147
h177v-147z" />
    <glyph glyph-name="uni062C" unicode="&#x62c;" horiz-adv-x="1334" arabic-form="isolated" 
d="M804.5 -424q-316.5 0 -509 146t-192.5 393.5t261 395.5t654 148q-315 113 -755 113h-94v186h106q225 0 487 -77t491 -211v-131h-177q-382 0 -599 -114.5t-217 -295.5t148 -275t376 -94q322 0 516 111h13v-199q-192 -96 -508.5 -96zM873 66h-177v147h177v-147z" />
    <glyph glyph-name="uni062D" unicode="&#x62d;" horiz-adv-x="1334" arabic-form="isolated" 
d="M804.5 -424q-316.5 0 -509 146t-192.5 393.5t261 395.5t654 148q-315 113 -755 113h-94v186h106q225 0 487 -77t491 -211v-131h-177q-382 0 -599 -114.5t-217 -295.5t148 -275t376 -94q322 0 516 111h13v-199q-192 -96 -508.5 -96z" />
    <glyph glyph-name="uni062E" unicode="&#x62e;" horiz-adv-x="1334" arabic-form="isolated" 
d="M804.5 -424q-316.5 0 -509 146t-192.5 393.5t261 395.5t654 148q-315 113 -755 113h-94v186h106q225 0 487 -77t491 -211v-131h-177q-382 0 -599 -114.5t-217 -295.5t148 -275t376 -94q322 0 516 111h13v-199q-192 -96 -508.5 -96zM923 1120h-177v147h177v-147z" />
    <glyph glyph-name="uni062F" unicode="&#x62f;" horiz-adv-x="835" arabic-form="final" 
d="M786 324q0 -148 -113.5 -236t-325.5 -88h-335v188h332q134 0 209.5 39t75.5 95q0 183 -413 399v235h12q558 -341 558 -632z" />
    <glyph glyph-name="uni0630" unicode="&#x630;" horiz-adv-x="835" arabic-form="final" 
d="M786 324q0 -148 -113.5 -236t-325.5 -88h-335v188h332q134 0 209.5 39t75.5 95q0 183 -413 399v235h12q558 -341 558 -632zM246 1130h-177v147h177v-147z" />
    <glyph glyph-name="uni0631" unicode="&#x631;" horiz-adv-x="1192" arabic-form="final" 
d="M1069 186q0 -299 -272.5 -454.5t-698.5 -155.5v188q366 0 590 100t224 290q0 164 -199 350v12h230q126 -164 126 -330z" />
    <glyph glyph-name="uni0632" unicode="&#x632;" horiz-adv-x="1192" arabic-form="final" 
d="M1069 186q0 -299 -272.5 -454.5t-698.5 -155.5v188q366 0 590 100t224 290q0 164 -199 350v12h230q126 -164 126 -330zM890 690h-177v147h177v-147z" />
    <glyph glyph-name="uni0633" unicode="&#x633;" horiz-adv-x="2026" arabic-form="final" 
d="M1927 188q0 -188 -219 -188h-99q-175 0 -237 72q-64 -72 -239 -72q-127 0 -190 68q-87 -492 -493 -492q-191 0 -314.5 135t-123.5 381q0 169 32 309h158v-16q-33 -133 -33 -291t74.5 -244t206.5 -86q366 0 366 558v100h157v-100q-1 -134 159 -134t160 134v100h158v-100
q0 -134 160 -134t160 80v367h157v-447z" />
    <glyph glyph-name="uni0634" unicode="&#x634;" horiz-adv-x="2026" arabic-form="final" 
d="M1927 188q0 -188 -219 -188h-99q-175 0 -237 72q-64 -72 -239 -72q-127 0 -190 68q-87 -492 -493 -492q-191 0 -314.5 135t-123.5 381q0 169 32 309h158v-16q-33 -133 -33 -291t74.5 -244t206.5 -86q366 0 366 558v100h157v-100q-1 -134 159 -134t160 134v100h158v-100
q0 -134 160 -134t160 80v367h157v-447zM1216 717h-177v147h177v-147zM1570 717h-177v147h177v-147zM1393 926h-177v147h177v-147z" />
    <glyph glyph-name="uni0635" unicode="&#x635;" horiz-adv-x="2678" arabic-form="final" 
d="M2040 188q194 0 313 34.5t119 88.5q0 132 -101 225t-209 93q-330 0 -717 -441h595zM2156.5 815q188.5 0 330.5 -162t142 -352q0 -138 -152.5 -219.5t-414.5 -81.5h-892q-138 0 -229 49q-95 -473 -491 -473q-191 0 -314.5 135t-123.5 381q0 169 32 309h158v-16
q-33 -133 -33 -291t74.5 -244t206.5 -86q366 0 366 558v100h157v-43q0 -191 192 -191h99q278 327 491 477t401.5 150z" />
    <glyph glyph-name="uni0636" unicode="&#x636;" horiz-adv-x="2678" arabic-form="final" 
d="M2040 188q194 0 313 34.5t119 88.5q0 132 -101 225t-209 93q-330 0 -717 -441h595zM2156.5 815q188.5 0 330.5 -162t142 -352q0 -138 -152.5 -219.5t-414.5 -81.5h-892q-138 0 -229 49q-95 -473 -491 -473q-191 0 -314.5 135t-123.5 381q0 169 32 309h158v-16
q-33 -133 -33 -291t74.5 -244t206.5 -86q366 0 366 558v100h157v-43q0 -191 192 -191h99q278 327 491 477t401.5 150zM2213 958h-177v147h177v-147z" />
    <glyph glyph-name="uni0637" unicode="&#x637;" horiz-adv-x="1426" arabic-form="medial" 
d="M786 188q196 0 314.5 34.5t118.5 88.5q0 133 -85.5 225.5t-174.5 92.5q-147 0 -274 -96t-321 -345h422zM961 815q167 0 291 -159.5t124 -354.5q0 -138 -153 -219.5t-414 -81.5h-809q-59 0 -103.5 51t-44.5 137h342l12 27v1341h158v-1159q307 418 597 418z" />
    <glyph glyph-name="uni0638" unicode="&#x638;" horiz-adv-x="1426" arabic-form="medial" 
d="M786 188q196 0 314.5 34.5t118.5 88.5q0 133 -85.5 225.5t-174.5 92.5q-147 0 -274 -96t-321 -345h422zM961 815q167 0 291 -159.5t124 -354.5q0 -138 -153 -219.5t-414 -81.5h-809q-59 0 -103.5 51t-44.5 137h342l12 27v1341h158v-1159q307 418 597 418zM954 958h-177
v147h177v-147z" />
    <glyph glyph-name="uni0639" unicode="&#x639;" horiz-adv-x="1339" arabic-form="isolated" 
d="M762 -424q-310 0 -487 127t-177 353.5t239 359.5q-165 107 -165 241q0 182 132.5 290t339.5 108q114 0 256 -27v-188h-13q-130 30 -255.5 30t-214 -58t-88.5 -163t131 -180l604 186v-174l-499 -151q-144 -42 -226.5 -115.5t-82.5 -159.5q0 -133 139 -214t374 -81
q119 0 262 38.5t240 95.5h12v-213q-211 -105 -521 -105z" />
    <glyph glyph-name="uni063A" unicode="&#x63a;" horiz-adv-x="1339" arabic-form="isolated" 
d="M762 -424q-310 0 -487 127t-177 353.5t239 359.5q-165 107 -165 241q0 182 132.5 290t339.5 108q114 0 256 -27v-188h-13q-130 30 -255.5 30t-214 -58t-88.5 -163t131 -180l604 186v-174l-499 -151q-144 -42 -226.5 -115.5t-82.5 -159.5q0 -133 139 -214t374 -81
q119 0 262 38.5t240 95.5h12v-213q-211 -105 -521 -105zM698 1229h-177v147h177v-147z" />
    <glyph glyph-name="uni0641" unicode="&#x641;" horiz-adv-x="1942" arabic-form="final" 
d="M1554 930q-47 0 -95 -59t-48 -119t50.5 -99t121.5 -39t120 39q0 93 -51 185t-98 92zM1873 291q0 -140 -145 -215.5t-426 -75.5h-606q-600 0 -600 477q0 114 37 240h157v-10q-37 -111 -37 -218q0 -160 104.5 -230.5t340.5 -70.5h594q204 0 314 39t110 138v102
q-47 -41 -133 -41q-132 0 -231 85.5t-99 234t99.5 260.5t200.5 112q135 0 227.5 -162.5t92.5 -445.5v-219zM1607 1292h-177v148h177v-148z" />
    <glyph glyph-name="uni0642" unicode="&#x642;" horiz-adv-x="1430" arabic-form="final" 
d="M1032.5 727q-46.5 0 -95 -59t-48.5 -119t51 -98.5t122 -38.5t120 39q0 92 -51.5 184t-98 92zM1062 223q-133 0 -231.5 85.5t-98.5 234t99 260.5t201 112q134 0 226.5 -162.5t92.5 -445.5q0 -336 -192.5 -533.5t-524.5 -197.5q-263 0 -425 142.5t-162 375.5q0 85 32 199
h157v-10q-32 -96 -32 -177q0 -160 111 -251t341 -91t378 132t160 368q-46 -41 -132 -41zM938 1090h-176v147h176v-147zM1264 1090h-178v147h178v-147z" />
    <glyph glyph-name="uni0643" unicode="&#x643;" horiz-adv-x="1475" arabic-form="final" 
d="M774 879q-164 0 -164 -48q0 -28 68 -40l77 -15q101 -18 101 -92q0 -67 -92.5 -104t-235.5 -37v69q244 0 244 66q0 17 -23.5 25t-121 25t-97.5 99q0 58 65.5 89.5t178.5 31.5v-69zM1376 270q0 -123 -105.5 -196.5t-287.5 -73.5h-511q-198 0 -304.5 79t-106.5 230
q0 40 10 121h161v-10q-14 -57 -14 -109q0 -123 254 -123h501q246 0 246 156v1212h157v-1286z" />
    <glyph glyph-name="uni0644" unicode="&#x644;" horiz-adv-x="1253" arabic-form="isolated" 
d="M1156 248q0 -453 -546 -453q-294 0 -427.5 106.5t-133.5 336.5q0 123 24 251h166v-10q-33 -113 -33 -248t92 -191t314 -56q385 0 385 276v1296h159v-1308z" />
    <glyph glyph-name="uni0645" unicode="&#x645;" horiz-adv-x="835" arabic-form="final" 
d="M835 0h-486q-180 0 -180 -113v-311h-132v313q0 299 327 299h248q-89 84 -148.5 124t-114.5 40q-103 0 -103 -114h-133q0 114 63.5 179.5t183.5 65.5t227.5 -74t247.5 -221v-188z" />
    <glyph glyph-name="uni0646" unicode="&#x646;" horiz-adv-x="1302" arabic-form="final" 
d="M1266 172q0 -277 -156 -436.5t-446.5 -159.5t-446.5 159.5t-156 436.5q0 109 33 229h157v-10q-33 -96 -33 -207q0 -420 445.5 -420t445.5 420q0 57 -17 137l-16 70v10h158q32 -120 32 -229zM752 500h-177v147h177v-147z" />
    <glyph glyph-name="uni0647" unicode="&#x647;" horiz-adv-x="762" arabic-form="isolated" 
d="M394 176q162 0 162 210t-197 321q-127 -137 -127 -334q0 -95 44 -146t118 -51zM713 399.5q0 -190.5 -90.5 -301t-233.5 -110.5t-229.5 100t-86.5 291.5t161 370.5q-44 10 -98 10v170q259 -13 418 -176.5t159 -354z" />
    <glyph glyph-name="uni0648" unicode="&#x648;" horiz-adv-x="1042" arabic-form="final" 
d="M625 616q-48 0 -90.5 -57.5t-42.5 -119.5t47.5 -100t123.5 -38t111 39q0 93 -50.5 184.5t-98.5 91.5zM656 113q-132 0 -226.5 85t-94.5 234t95.5 261t195.5 112q126 0 221.5 -164.5t95.5 -456t-240.5 -450t-702.5 -158.5v188q390 0 589 101t199 289q-49 -41 -132 -41z
" />
    <glyph glyph-name="uni0649" unicode="&#x649;" horiz-adv-x="1573" arabic-form="isolated" 
d="M1487 866h-12q-180 88 -384 88q-99 0 -163.5 -36t-64.5 -84t45.5 -87t240.5 -121.5t261.5 -144.5t66.5 -147q0 -161 -213 -247.5t-630 -86.5q-597 0 -597 442q0 99 24 252h160v-10q-27 -135 -27 -240q0 -133 105 -194.5t337 -61.5q332 0 508 42t176 108q0 42 -56.5 81.5
t-234.5 111.5t-250.5 143.5t-72.5 159.5q0 122 112 214t304 91.5t365 -60.5v-213z" />
    <glyph glyph-name="uni064A" unicode="&#x64a;" horiz-adv-x="1573" arabic-form="isolated" 
d="M1487 866h-12q-180 88 -384 88q-99 0 -163.5 -36t-64.5 -84t45.5 -87t240.5 -121.5t261.5 -144.5t66.5 -147q0 -161 -213 -247.5t-630 -86.5q-597 0 -597 442q0 99 24 252h160v-10q-27 -135 -27 -240q0 -133 105 -194.5t337 -61.5q332 0 508 42t176 108q0 42 -56.5 81.5
t-234.5 111.5t-250.5 143.5t-72.5 159.5q0 122 112 214t304 91.5t365 -60.5v-213zM584 -293h-177v147h177v-147zM908 -293h-176v147h176v-147z" />
    <glyph glyph-name="uni06A1.init" unicode="&#x66f;" horiz-adv-x="713" 
d="M364.5 934q-51.5 0 -101 -54t-49.5 -130q0 -140 184 -140q81 0 132 37q0 112 -57 199.5t-108.5 87.5zM378.5 426q-118.5 0 -216.5 85.5t-98 234t99 260.5t201 112q135 0 232.5 -163.5t97.5 -428.5t-127 -395.5t-363 -130.5h-204q-59 0 -103.5 51t-44.5 137h354
q143 0 241.5 76.5t98.5 202.5q-49 -41 -167.5 -41z" />
    <glyph glyph-name="uni06A1.medi" unicode="&#x66f;" horiz-adv-x="727" 
d="M502 506q0 59 -37.5 98t-101 39t-100.5 -39t-37 -98q0 -131 138 -240q138 109 138 240zM727 0h-49q-144 0 -314 100q-171 -100 -315 -100h-49q-59 0 -103.5 51t-44.5 137h246q65 0 134 17q-164 167 -164 310.5t83 231t212.5 87.5t212.5 -87.5t83 -231t-162 -310.5
q67 -17 132 -17h98v-188z" />
    <glyph glyph-name="uni0671" unicode="&#x671;" horiz-adv-x="575" arabic-form="isolated" 
d="M366 0h-157v1556h157v-1556zM431 1763q0 46 -48 46t-81 -38t-43 -84q23 -6 61 -6t74.5 25.5t36.5 56.5zM515 1763q1 -69 -67 -111t-125 -41q-57 0 -120 20.5t-97 20.5t-100 -42v70q64 42 98 42t76 -10q18 74 72.5 120.5t125.5 46.5q137 0 137 -116z" />
    <glyph glyph-name="uni0672.fina" unicode="&#x672;" horiz-adv-x="575" 
d="M575 0q-171 0 -266 87.5t-95 244.5v1224h157v-1212q0 -85 46 -120.5t153 -35.5h5v-188zM472 1620h-212q-28 0 -60 7t-42 7q-38 0 -108 -45v74q64 41 94 41t56 -8.5t39 -8.5q-54 25 -54 79t45.5 88t111.5 34t103 -12v-74q-43 17 -111 17t-69 -52q1 -37 47 -57t94 -20h66
v-70z" />
    <glyph glyph-name="uni0673.fina" unicode="&#x673;" horiz-adv-x="575" 
d="M575 0q-171 0 -266 87.5t-95 244.5v1224h157v-1212q0 -85 46 -120.5t153 -35.5h5v-188zM472 -362h-212q-28 0 -60 7t-42 7q-38 0 -108 -45v74q64 41 94 41t56 -8.5t39 -8.5q-54 25 -54 79t45.5 88t111.5 34t103 -12v-74q-43 17 -111 17t-69 -52q1 -37 47 -57t94 -20h66
v-70z" />
    <glyph glyph-name="uni0675.fina" unicode="&#x675;" horiz-adv-x="768" 
d="M768 0h-200q-162 0 -258 88t-96 244v1224h157v-1212q0 -156 199 -156h198v-188zM768 1310h-302v70h67q-52 24 -52 78t45.5 87t111.5 33t104 -12v-74q-44 17 -112 17t-68 -52q0 -37 46 -57t94 -20h66v-70z" />
    <glyph glyph-name="uni0677" unicode="&#x677;" horiz-adv-x="1042" arabic-form="isolated" 
d="M625 616q-48 0 -90.5 -57.5t-42.5 -119.5t47.5 -100t123.5 -38t111 39q0 93 -50.5 184.5t-98.5 91.5zM656 113q-132 0 -226.5 85t-94.5 234t95.5 261t195.5 112q126 0 221.5 -164.5t95.5 -456t-240.5 -450t-702.5 -158.5v188q390 0 589 101t199 289q-49 -41 -132 -41z
M997 979h-302v70h67q-52 24 -52 76t44 87t112 35t105 -12v-74q-43 17 -111.5 17t-68.5 -52q0 -32 40.5 -54.5t99.5 -22.5h66v-70zM431 1134q0 31 -20.5 47t-48.5 16q-70 0 -70 -52.5t100 -74.5q39 33 39 64zM208 1145q0 55 42 88t108.5 33t111.5 -35t45 -83t-47 -93l56 -10
v-66l-112 23q-153 -77 -332 -86v70q120 2 240 45q-112 37 -112 114z" />
    <glyph glyph-name="uni0678.fina" unicode="&#x678;" horiz-adv-x="1454" 
d="M1454 0q-204 0 -292 164q-40 74 -87 196.5t-87 157.5t-101 35q-111 0 -111 -88q0 -55 101 -155.5t101 -213.5q0 -264 -450 -264q-221 0 -356 122t-135 337q0 65 17 170h160v-10q-20 -66 -20 -158q0 -146 83 -209.5t253 -63.5q286 0 286 117q0 52 -89 142
q-113 111 -113 220.5t70 175.5t184 66t186 -44t135.5 -229t121.5 -232.5t143 -47.5v-188zM1267 915h-302v70h67q-52 24 -52 76t44 87t112 35t105 -12v-74q-43 17 -111.5 17t-68.5 -52q0 -32 40.5 -54.5t99.5 -22.5h66v-70z" />
    <glyph glyph-name="uni0679" unicode="&#x679;" horiz-adv-x="1757" arabic-form="final" 
d="M1658 291q0 -140 -144.5 -215.5t-425.5 -75.5h-392q-600 0 -600 477q0 114 37 240h157v-10q-37 -111 -37 -218q0 -160 104.5 -230.5t340.5 -70.5h381q204 0 313 39t109 138v352h157v-426zM1058 912q0 34 -21 74t-63 40q-70 0 -166 -159h116q134 0 134 45zM1124 908
q0 -108 -192 -108h-272v67h79v413h69v-328q70 141 168 141q68 1 108 -61t40 -124z" />
    <glyph glyph-name="uni067A" unicode="&#x67a;" horiz-adv-x="1757" arabic-form="final" 
d="M1658 291q0 -140 -144.5 -215.5t-425.5 -75.5h-392q-600 0 -600 477q0 114 37 240h157v-10q-37 -111 -37 -218q0 -160 104.5 -230.5t340.5 -70.5h381q204 0 313 39t109 138v352h157v-426zM1003 815h-176v148h176v-148zM1003 1024h-176v147h176v-147z" />
    <glyph glyph-name="uni067B" unicode="&#x67b;" horiz-adv-x="1757" arabic-form="final" 
d="M1658 291q0 -140 -144.5 -215.5t-425.5 -75.5h-392q-600 0 -600 477q0 114 37 240h157v-10q-37 -111 -37 -218q0 -160 104.5 -230.5t340.5 -70.5h381q204 0 313 39t109 138v352h157v-426zM1003 -430h-176v148h176v-148zM1003 -221h-176v147h176v-147z" />
    <glyph glyph-name="uni067C.init" unicode="&#x67c;" horiz-adv-x="600" 
d="M428 -58.5q0 -65.5 -50 -107.5t-121.5 -42t-122 42t-50.5 89.5t18 76.5h-102q-59 0 -103.5 51t-44.5 137h246q246 0 246 156v373h158v-447q0 -145 -143 -219q69 -44 69 -109.5zM276 891h-177v147h177v-147zM600 891h-176v147h176v-147zM256.5 -142q38.5 0 65.5 22.5
t27 54.5t-27 55t-49.5 23t-44 -4.5t-43.5 -23t-22 -50.5t27.5 -54.5t66 -22.5z" />
    <glyph glyph-name="uni067D.init" unicode="&#x67d;" horiz-adv-x="600" 
d="M502 270q0 -123 -106 -196.5t-288 -73.5h-108q-59 0 -103.5 51t-44.5 137h246q246 0 246 156v373h158v-447zM251 1100h-177v147h177v-147zM605 1100h-177v147h177v-147zM428 891h-177v147h177v-147z" />
    <glyph glyph-name="uni067E" unicode="&#x67e;" horiz-adv-x="1757" arabic-form="final" 
d="M1052 -430h-177v147h177v-147zM875 -221h-177v147h177v-147zM1229 -221h-177v147h177v-147zM1658 291q0 -140 -144.5 -215.5t-425.5 -75.5h-392q-600 0 -600 477q0 114 37 240h157v-10q-37 -111 -37 -218q0 -160 104.5 -230.5t340.5 -70.5h381q204 0 313 39t109 138v352
h157v-426z" />
    <glyph glyph-name="uni067F" unicode="&#x67f;" horiz-adv-x="1757" arabic-form="final" 
d="M1658 291q0 -140 -144.5 -215.5t-425.5 -75.5h-392q-600 0 -600 477q0 114 37 240h157v-10q-37 -111 -37 -218q0 -160 104.5 -230.5t340.5 -70.5h381q204 0 313 39t109 138v352h157v-426zM841 815h-177v147h177v-147zM1165 815h-176v147h176v-147zM841 1024h-177v147h177
v-147zM1165 1024h-176v147h176v-147z" />
    <glyph glyph-name="uni0680" unicode="&#x680;" horiz-adv-x="1757" arabic-form="final" 
d="M1658 291q0 -140 -144.5 -215.5t-425.5 -75.5h-392q-600 0 -600 477q0 114 37 240h157v-10q-37 -111 -37 -218q0 -160 104.5 -230.5t340.5 -70.5h381q204 0 313 39t109 138v352h157v-426zM841 -430h-177v147h177v-147zM1165 -430h-176v147h176v-147zM841 -221h-177v147
h177v-147zM1165 -221h-176v147h176v-147z" />
    <glyph glyph-name="uni0681.init" unicode="&#x681;" horiz-adv-x="1334" 
d="M1236 184q-214 0 -628.5 -92t-607.5 -92q-59 0 -103.5 51t-44.5 137h155q172 0 527.5 80.5t487.5 87.5q-363 273 -783 273h-114v186h126q279 0 546 -144q166 -91 381 -258l52 -41h2l4 1v-189zM907 936h-302v70h67q-52 24 -52 76t44 87t112 35t105 -12v-74
q-43 17 -111.5 17t-68.5 -52q0 -32 40.5 -54.5t99.5 -22.5h66v-70z" />
    <glyph glyph-name="uni0681.fina" unicode="&#x681;" horiz-adv-x="1334" 
d="M1334 0h-39q-408 0 -408 319v211q-294 -26 -460.5 -134t-166.5 -278t148 -264t376 -94q322 0 516 111h13v-199q-193 -96 -509 -96t-508.5 146t-192.5 394t261 395.5t654 147.5q-315 113 -755 113h-94v186h106q225 0 487 -77t491 -211v-131q-173 0 -209 -2v-162
q0 -102 60 -144.5t186 -42.5h44v-188zM907 1120h-302v70h67q-52 24 -52 76t44 87t112 35t105 -12v-74q-43 17 -111 17t-69 -52q0 -32 40.5 -54.5t99.5 -22.5h66v-70z" />
    <glyph glyph-name="uni0682.init" unicode="&#x682;" horiz-adv-x="1334" 
d="M1236 184q-214 0 -628.5 -92t-607.5 -92q-59 0 -103.5 51t-44.5 137h155q172 0 527.5 80.5t487.5 87.5q-363 273 -783 273h-114v186h126q279 0 546 -144q166 -91 381 -258l52 -41h2l4 1v-189zM855 936h-176v148h176v-148zM855 1145h-176v147h176v-147z" />
    <glyph glyph-name="uni0682.fina" unicode="&#x682;" horiz-adv-x="1334" 
d="M1334 0h-39q-408 0 -408 319v211q-294 -26 -460.5 -134t-166.5 -278t148 -264t376 -94q322 0 516 111h13v-199q-193 -96 -509 -96t-508.5 146t-192.5 394t261 395.5t654 147.5q-315 113 -755 113h-94v186h106q225 0 487 -77t491 -211v-131q-173 0 -209 -2v-162
q0 -102 60 -144.5t186 -42.5h44v-188zM923 1120h-176v148h176v-148zM923 1329h-176v147h176v-147z" />
    <glyph glyph-name="uni0683" unicode="&#x683;" horiz-adv-x="1334" arabic-form="isolated" 
d="M804.5 -424q-316.5 0 -509 146t-192.5 393.5t261 395.5t654 148q-315 113 -755 113h-94v186h106q225 0 487 -77t491 -211v-131h-177q-382 0 -599 -114.5t-217 -295.5t148 -275t376 -94q322 0 516 111h13v-199q-192 -96 -508.5 -96zM711 66h-177v147h177v-147zM1035 66
h-176v147h176v-147z" />
    <glyph glyph-name="uni0684" unicode="&#x684;" horiz-adv-x="1334" arabic-form="isolated" 
d="M804.5 -424q-316.5 0 -509 146t-192.5 393.5t261 395.5t654 148q-315 113 -755 113h-94v186h106q225 0 487 -77t491 -211v-131h-177q-382 0 -599 -114.5t-217 -295.5t148 -275t376 -94q322 0 516 111h13v-199q-192 -96 -508.5 -96zM873 -60h-176v148h176v-148zM873 149
h-176v147h176v-147z" />
    <glyph glyph-name="uni0685.init" unicode="&#x685;" horiz-adv-x="1334" 
d="M1236 184q-214 0 -628.5 -92t-607.5 -92q-59 0 -103.5 51t-44.5 137h155q172 0 527.5 80.5t487.5 87.5q-363 273 -783 273h-114v186h126q279 0 546 -144q166 -91 381 -258l52 -41h2l4 1v-189zM678 936h-177v147h177v-147zM1032 936h-177v147h177v-147zM855 1145h-177v147
h177v-147z" />
    <glyph glyph-name="uni0685.fina" unicode="&#x685;" horiz-adv-x="1334" 
d="M1334 0h-39q-408 0 -408 319v211q-294 -26 -460.5 -134t-166.5 -278t148 -264t376 -94q322 0 516 111h13v-199q-193 -96 -509 -96t-508.5 146t-192.5 394t261 395.5t654 147.5q-315 113 -755 113h-94v186h106q225 0 487 -77t491 -211v-131q-173 0 -209 -2v-162
q0 -102 60 -144.5t186 -42.5h44v-188zM746 1120h-177v147h177v-147zM1100 1120h-177v147h177v-147zM923 1329h-177v147h177v-147z" />
    <glyph glyph-name="uni0686" unicode="&#x686;" horiz-adv-x="1334" arabic-form="isolated" 
d="M872 -61h-176v147h176v-147zM696 147h-178v148h178v-148zM1049 147h-177v148h177v-148zM804.5 -424q-316.5 0 -509 146t-192.5 393.5t261 395.5t654 148q-315 113 -755 113h-94v186h106q225 0 487 -77t491 -211v-131h-177q-382 0 -599 -114.5t-217 -295.5t148 -275
t376 -94q322 0 516 111h13v-199q-192 -96 -508.5 -96z" />
    <glyph glyph-name="uni0687" unicode="&#x687;" horiz-adv-x="1334" arabic-form="isolated" 
d="M804.5 -424q-316.5 0 -509 146t-192.5 393.5t261 395.5t654 148q-315 113 -755 113h-94v186h106q225 0 487 -77t491 -211v-131h-177q-382 0 -599 -114.5t-217 -295.5t148 -275t376 -94q322 0 516 111h13v-199q-192 -96 -508.5 -96zM703 -60h-177v147h177v-147zM1027 -60
h-176v147h176v-147zM703 149h-177v147h177v-147zM1027 149h-176v147h176v-147z" />
    <glyph glyph-name="uni0688" unicode="&#x688;" horiz-adv-x="835" arabic-form="final" 
d="M786 324q0 -148 -113.5 -236t-325.5 -88h-335v188h332q134 0 209.5 39t75.5 95q0 183 -413 399v235h12q558 -341 558 -632zM518 1212q0 35 -21 74.5t-63 39.5q-70 0 -166 -159h116q134 0 134 45zM584 1208q0 -108 -192 -108h-272v67h79v413h69v-328q70 141 168 141
q68 0 108 -61.5t40 -123.5z" />
    <glyph glyph-name="uni068C" unicode="&#x68c;" horiz-adv-x="835" arabic-form="final" 
d="M786 324q0 -148 -113.5 -236t-325.5 -88h-335v188h332q134 0 209.5 39t75.5 95q0 183 -413 399v235h12q558 -341 558 -632zM177 1130h-177v147h177v-147zM501 1130h-176v147h176v-147z" />
    <glyph glyph-name="uni068D" unicode="&#x68d;" horiz-adv-x="835" arabic-form="final" 
d="M786 324q0 -148 -113.5 -236t-325.5 -88h-335v188h332q134 0 209.5 39t75.5 95q0 183 -413 399v235h12q558 -341 558 -632zM295 -293h-177v147h177v-147zM619 -293h-176v147h176v-147z" />
    <glyph glyph-name="uni068E" unicode="&#x68e;" horiz-adv-x="835" arabic-form="final" 
d="M786 324q0 -148 -113.5 -236t-325.5 -88h-335v188h332q134 0 209.5 39t75.5 95q0 183 -413 399v235h12q558 -341 558 -632zM172 1130h-177v147h177v-147zM526 1130h-177v147h177v-147zM349 1339h-177v147h177v-147z" />
    <glyph glyph-name="uni0691" unicode="&#x691;" horiz-adv-x="1192" arabic-form="final" 
d="M1069 186q0 -299 -272.5 -454.5t-698.5 -155.5v188q366 0 590 100t224 290q0 164 -199 350v12h230q126 -164 126 -330zM866 812q0 35 -21 74.5t-63 39.5q-70 0 -166 -159h116q134 0 134 45zM932 808q0 -108 -192 -108h-272v67h79v413h69v-328q70 141 168 141
q68 0 108 -61.5t40 -123.5z" />
    <glyph glyph-name="uni0698" unicode="&#x698;" horiz-adv-x="1192" arabic-form="final" 
d="M1069 186q0 -299 -272.5 -454.5t-698.5 -155.5v188q366 0 590 100t224 290q0 164 -199 350v12h230q126 -164 126 -330zM712 690h-177v147h177v-147zM1066 690h-177v147h177v-147zM889 899h-177v147h177v-147z" />
    <glyph glyph-name="uni069A.init" unicode="&#x69a;" horiz-adv-x="1487" 
d="M1388 188q0 -188 -218 -188h-98q-176 0 -239 72q-63 -72 -238 -72t-239 72q-66 -72 -258 -72h-98q-59 0 -103.5 51t-44.5 137h246q179 0 179 134v100h157v-100q0 -134 160 -134t161 134v100h157v-100q0 -134 160 -134t159 80v367h157v-447zM920 717h-177v147h177v-147z
M920 -293h-177v147h177v-147z" />
    <glyph glyph-name="uni069B.init" unicode="&#x69b;" horiz-adv-x="1487" 
d="M1388 188q0 -188 -218 -188h-98q-176 0 -239 72q-63 -72 -238 -72t-239 72q-66 -72 -258 -72h-98q-59 0 -103.5 51t-44.5 137h246q179 0 179 134v100h157v-100q0 -134 160 -134t161 134v100h157v-100q0 -134 160 -134t159 80v367h157v-447zM743 -221h-177v147h177v-147z
M1097 -221h-177v147h177v-147zM920 -430h-177v147h177v-147z" />
    <glyph glyph-name="uni069C.init" unicode="&#x69c;" horiz-adv-x="1487" 
d="M1388 188q0 -188 -218 -188h-98q-176 0 -239 72q-63 -72 -238 -72t-239 72q-66 -72 -258 -72h-98q-59 0 -103.5 51t-44.5 137h246q179 0 179 134v100h157v-100q0 -134 160 -134t161 134v100h157v-100q0 -134 160 -134t159 80v367h157v-447zM743 -221h-177v147h177v-147z
M1097 -221h-177v147h177v-147zM920 -430h-177v147h177v-147zM671 717h-177v147h177v-147zM1025 717h-177v147h177v-147zM848 926h-177v147h177v-147z" />
    <glyph glyph-name="uni069D.init" unicode="&#x69d;" horiz-adv-x="2077" 
d="M1438 188q195 0 314 34.5t119 88.5q0 132 -101.5 225t-209.5 93q-167 0 -332.5 -104t-369.5 -337h580zM1554 815q188 0 331 -162t143 -352q0 -138 -153 -219.5t-415 -81.5h-909q-181 0 -276 82q-90 -82 -275 -82q-59 0 -103.5 51t-44.5 137h153q192 0 192 191v10h157v-10
q0 -191 192 -191h115q280 327 492.5 477t400.5 150zM1377 -293h-177v147h177v-147zM1701 -293h-176v147h176v-147z" />
    <glyph glyph-name="uni069E.init" unicode="&#x69e;" horiz-adv-x="2077" 
d="M1438 188q195 0 314 34.5t119 88.5q0 132 -101.5 225t-209.5 93q-167 0 -332.5 -104t-369.5 -337h580zM1554 815q188 0 331 -162t143 -352q0 -138 -153 -219.5t-415 -81.5h-909q-181 0 -276 82q-90 -82 -275 -82q-59 0 -103.5 51t-44.5 137h153q192 0 192 191v10h157v-10
q0 -191 192 -191h115q280 327 492.5 477t400.5 150zM1433 958h-177v147h177v-147zM1787 958h-177v147h177v-147zM1610 1167h-177v147h177v-147z" />
    <glyph glyph-name="uni06A0.init" unicode="&#x6a0;" horiz-adv-x="1334" 
d="M293 0h-293q-59 0 -103.5 51t-44.5 137h488q-108 49 -171 142t-63 186q0 197 134 309.5t353 112.5q287 0 481 -82v-213h-12q-192 113 -460 113q-164 0 -251.5 -71t-87.5 -171q0 -147 119.5 -224t165 -77t247.5 46.5t419 113.5v-189q-590 -184 -921 -184zM514 1112h-177
v147h177v-147zM868 1112h-177v147h177v-147zM691 1321h-177v147h177v-147z" />
    <glyph glyph-name="uni06A0.medi" unicode="&#x6a0;" horiz-adv-x="964" 
d="M732 559q0 84 -250 84t-250 -84q0 -51 68 -126.5t181 -143.5q114 68 182.5 143.5t68.5 126.5zM964 0h-99q-174 0 -384 115q-209 -115 -383 -115h-98q-59 0 -103.5 51t-44.5 137h246q125 0 228 33q-253 200 -253 371q0 116 112.5 179t296.5 63t295.5 -63t111.5 -179
q0 -171 -253 -371q104 -33 229 -33h99v-188zM394 1008h-177v147h177v-147zM748 1008h-177v147h177v-147zM571 1217h-177v147h177v-147z" />
    <glyph glyph-name="uni06A0.fina" unicode="&#x6a0;" horiz-adv-x="1114" 
d="M811 686q0 46 -69 73t-172.5 27t-168 -26.5t-64.5 -64t46.5 -89t157.5 -151.5q144 81 207 133t63 98zM1114 0h-26q-231 0 -574 295q-130 -81 -192 -145t-62 -148q0 -106 115 -173t267 -67q223 0 434 129h12v-213q-196 -102 -431 -102t-394.5 123t-159.5 303
q0 117 73.5 199.5t238.5 181.5q-144 131 -199.5 203t-55.5 153q0 108 117 173t292 65t291 -64.5t116 -169t-62 -178.5t-276 -196q138 -115 230 -148t201 -33h45v-188zM479 1151h-177v147h177v-147zM833 1151h-177v147h177v-147zM656 1360h-177v147h177v-147z" />
    <glyph glyph-name="uni06A2.init" unicode="&#x6a2;" horiz-adv-x="713" 
d="M364.5 934q-51.5 0 -101 -54t-49.5 -130q0 -140 184 -140q81 0 132 37q0 112 -57 199.5t-108.5 87.5zM378.5 426q-118.5 0 -216.5 85.5t-98 234t99 260.5t201 112q135 0 232.5 -163.5t97.5 -428.5t-127 -395.5t-363 -130.5h-204q-59 0 -103.5 51t-44.5 137h354
q143 0 241.5 76.5t98.5 202.5q-49 -41 -167.5 -41zM457 -293h-177v147h177v-147z" />
    <glyph glyph-name="uni06A2.medi" unicode="&#x6a2;" horiz-adv-x="727" 
d="M502 506q0 59 -37.5 98t-101 39t-100.5 -39t-37 -98q0 -131 138 -240q138 109 138 240zM727 0h-49q-144 0 -314 100q-171 -100 -315 -100h-49q-59 0 -103.5 51t-44.5 137h246q65 0 134 17q-164 167 -164 310.5t83 231t212.5 87.5t212.5 -87.5t83 -231t-162 -310.5
q67 -17 132 -17h98v-188zM457 -293h-177v147h177v-147z" />
    <glyph glyph-name="uni06A3.init" unicode="&#x6a3;" horiz-adv-x="713" 
d="M364.5 934q-51.5 0 -101 -54t-49.5 -130q0 -140 184 -140q81 0 132 37q0 112 -57 199.5t-108.5 87.5zM378.5 426q-118.5 0 -216.5 85.5t-98 234t99 260.5t201 112q135 0 232.5 -163.5t97.5 -428.5t-127 -395.5t-363 -130.5h-204q-59 0 -103.5 51t-44.5 137h354
q143 0 241.5 76.5t98.5 202.5q-49 -41 -167.5 -41zM457 -293h-177v147h177v-147zM414 1292h-177v147h177v-147z" />
    <glyph glyph-name="uni06A3.medi" unicode="&#x6a3;" horiz-adv-x="727" 
d="M502 506q0 59 -37.5 98t-101 39t-100.5 -39t-37 -98q0 -131 138 -240q138 109 138 240zM727 0h-49q-144 0 -314 100q-171 -100 -315 -100h-49q-59 0 -103.5 51t-44.5 137h246q65 0 134 17q-164 167 -164 310.5t83 231t212.5 87.5t212.5 -87.5t83 -231t-162 -310.5
q67 -17 132 -17h98v-188zM457 -293h-177v147h177v-147zM452 1008h-177v147h177v-147z" />
    <glyph glyph-name="uni06A4" unicode="&#x6a4;" horiz-adv-x="1942" arabic-form="final" 
d="M1445 1501v147h177v-147h-177zM1268 1292v147h177v-147h-177zM1554 930q-47 0 -95 -59t-48 -119t50.5 -99t121.5 -39t120 39q0 93 -51 185t-98 92zM1873 291q0 -140 -145 -215.5t-426 -75.5h-606q-600 0 -600 477q0 114 37 240h157v-10q-37 -111 -37 -218
q0 -160 104.5 -230.5t340.5 -70.5h594q204 0 314 39t110 138v102q-47 -41 -133 -41q-132 0 -231 85.5t-99 234t99.5 260.5t200.5 112q135 0 227.5 -162.5t92.5 -445.5v-219zM1799 1292h-177v147h177v-147z" />
    <glyph glyph-name="uni06A5.init" unicode="&#x6a5;" horiz-adv-x="713" 
d="M364.5 934q-51.5 0 -101 -54t-49.5 -130q0 -140 184 -140q81 0 132 37q0 112 -57 199.5t-108.5 87.5zM378.5 426q-118.5 0 -216.5 85.5t-98 234t99 260.5t201 112q135 0 232.5 -163.5t97.5 -428.5t-127 -395.5t-363 -130.5h-204q-59 0 -103.5 51t-44.5 137h354
q143 0 241.5 76.5t98.5 202.5q-49 -41 -167.5 -41zM280 -221h-177v147h177v-147zM634 -221h-177v147h177v-147zM457 -430h-177v147h177v-147z" />
    <glyph glyph-name="uni06A5.medi" unicode="&#x6a5;" horiz-adv-x="727" 
d="M502 506q0 59 -37.5 98t-101 39t-100.5 -39t-37 -98q0 -131 138 -240q138 109 138 240zM727 0h-49q-144 0 -314 100q-171 -100 -315 -100h-49q-59 0 -103.5 51t-44.5 137h246q65 0 134 17q-164 167 -164 310.5t83 231t212.5 87.5t212.5 -87.5t83 -231t-162 -310.5
q67 -17 132 -17h98v-188zM280 -221h-177v147h177v-147zM634 -221h-177v147h177v-147zM457 -430h-177v147h177v-147z" />
    <glyph glyph-name="uni06A6" unicode="&#x6a6;" horiz-adv-x="1942" arabic-form="final" 
d="M1550 930q-54 0 -96.5 -65.5t-42.5 -120t51.5 -92.5t121.5 -38t119 39q0 68 -40 161q-48 116 -113 116zM1873 291q0 -291 -571 -291h-606q-600 0 -600 477q0 114 37 240h157v-10q-37 -111 -37 -218q0 -171 125 -242q103 -59 320 -59h594q424 0 424 177v102
q-47 -41 -133 -41q-131 0 -230.5 86t-99.5 217t85 260t215 129q180 0 264 -246q56 -164 56 -362v-219zM1460 1292h-177v147h177v-147zM1784 1292h-176v147h176v-147zM1460 1501h-177v147h177v-147zM1784 1501h-176v147h176v-147z" />
    <glyph glyph-name="uni06A9" unicode="&#x6a9;" horiz-adv-x="1460" arabic-form="final" 
d="M983 188q128 0 178.5 25t50.5 73t-47 92t-194 161l-349 274q-125 101 -125 197q0 52 48.5 95t211.5 124l605 301v-197l-506 -250q-50 -20 -90.5 -53t-40.5 -55q0 -56 110 -144l340 -268q152 -120 194 -180.5t42 -118.5q0 -264 -426 -264h-513q-198 0 -304.5 79
t-106.5 230q0 40 10 121h161v-10q-14 -57 -14 -109q0 -123 254 -123h511z" />
    <glyph glyph-name="uni06AA.init" unicode="&#x6aa;" horiz-adv-x="2404" 
d="M2375 341q0 -230 -511 -297q-335 -44 -1374 -44h-504q-76 0 -112 60t-36 128h654q1636 0 1636 159q0 70 -129 70q-182 0 -708.5 -32.5t-787.5 -32.5q-137 0 -217.5 53t-80.5 151q0 176 349 361q128 67 420 179v-197q-537 -191 -537 -308q0 -54 126 -54q255 0 728 31.5
t689 31.5t305 -72q90 -72 90 -187z" />
    <glyph glyph-name="uni06AB.init" unicode="&#x6ab;" horiz-adv-x="968" 
d="M616.5 1040q38.5 0 65.5 22.5t27 54.5t-27 55t-65.5 23t-66 -23t-27.5 -55t27.5 -54.5t66 -22.5zM234 975q0 -56 110 -144l339 -268q152 -120 194 -180.5t42 -118.5q0 -264 -425 -264h-494q-59 0 -103.5 51t-44.5 137h640q128 0 178 25t50 73.5t-46 92t-195 160.5
l-348 274q-126 101 -126 197q0 52 49 95t211 124l605 301v-197l-176 -87q24 -10 44 -27q50 -42 50 -101.5t-50 -101.5t-121.5 -42t-122 42t-50.5 101v6l-80 -40q-50 -20 -90 -53t-40 -55z" />
    <glyph glyph-name="uni06AC.init" unicode="&#x6ac;" horiz-adv-x="968" 
d="M234 975q0 -56 110 -144l339 -268q152 -120 194 -180.5t42 -118.5q0 -264 -425 -264h-494q-59 0 -103.5 51t-44.5 137h640q128 0 178 25t50 73.5t-46 92t-195 160.5l-348 274q-126 101 -126 197q0 52 49 95t211 124l605 301v-197l-506 -250q-50 -20 -90 -53t-40 -55z
M337 1383h-177v147h177v-147z" />
    <glyph glyph-name="uni06AD" unicode="&#x6ad;" horiz-adv-x="1475" arabic-form="final" 
d="M774 879q-164 0 -164 -48q0 -28 68 -40l77 -15q101 -18 101 -92q0 -67 -92.5 -104t-235.5 -37v69q244 0 244 66q0 17 -23.5 25t-121 25t-97.5 99q0 58 65.5 89.5t178.5 31.5v-69zM1376 270q0 -123 -105.5 -196.5t-287.5 -73.5h-511q-198 0 -304.5 79t-106.5 230
q0 40 10 121h161v-10q-14 -57 -14 -109q0 -123 254 -123h501q246 0 246 156v1212h157v-1286zM700 1200h-177v147h177v-147zM1054 1200h-177v147h177v-147zM877 1409h-177v147h177v-147z" />
    <glyph glyph-name="uni06AE.init" unicode="&#x6ae;" horiz-adv-x="968" 
d="M234 975q0 -56 110 -144l339 -268q152 -120 194 -180.5t42 -118.5q0 -264 -425 -264h-494q-59 0 -103.5 51t-44.5 137h640q128 0 178 25t50 73.5t-46 92t-195 160.5l-348 274q-126 101 -126 197q0 52 49 95t211 124l605 301v-197l-506 -250q-50 -20 -90 -53t-40 -55z
M280 -221h-177v147h177v-147zM634 -221h-177v147h177v-147zM457 -430h-177v147h177v-147z" />
    <glyph glyph-name="uni06AF" unicode="&#x6af;" horiz-adv-x="1460" arabic-form="final" 
d="M1332 1649l-806 -402v101l806 401v-100zM983 188q128 0 178.5 25t50.5 73t-47 92t-194 161l-349 274q-125 101 -125 197q0 52 48.5 95t211.5 124l605 301v-197l-506 -250q-50 -20 -90.5 -53t-40.5 -55q0 -56 110 -144l340 -268q152 -120 194 -180.5t42 -118.5
q0 -264 -426 -264h-513q-198 0 -304.5 79t-106.5 230q0 40 10 121h161v-10q-14 -57 -14 -109q0 -123 254 -123h511z" />
    <glyph glyph-name="uni06B0.init" unicode="&#x6b0;" horiz-adv-x="968" 
d="M840 1649l-805 -402v101l805 401v-100zM616.5 1040q38.5 0 65.5 22.5t27 54.5t-27 55t-65.5 23t-66 -23t-27.5 -55t27.5 -54.5t66 -22.5zM234 975q0 -56 110 -144l339 -268q152 -120 194 -180.5t42 -118.5q0 -264 -425 -264h-494q-59 0 -103.5 51t-44.5 137h640
q128 0 178 25t50 73.5t-46 92t-195 160.5l-348 274q-126 101 -126 197q0 52 49 95t211 124l605 301v-197l-176 -87q24 -10 44 -27q50 -42 50 -101.5t-50 -101.5t-121.5 -42t-122 42t-50.5 101v6l-80 -40q-50 -20 -90 -53t-40 -55z" />
    <glyph glyph-name="uni06B1" unicode="&#x6b1;" horiz-adv-x="1460" arabic-form="final" 
d="M1332 1649l-806 -402v101l806 401v-100zM983 188q128 0 178.5 25t50.5 73t-47 92t-194 161l-349 274q-125 101 -125 197q0 52 48.5 95t211.5 124l605 301v-197l-506 -250q-50 -20 -90.5 -53t-40.5 -55q0 -56 110 -144l340 -268q152 -120 194 -180.5t42 -118.5
q0 -264 -426 -264h-513q-198 0 -304.5 79t-106.5 230q0 40 10 121h161v-10q-14 -57 -14 -109q0 -123 254 -123h511zM668 1670h-177v147h177v-147zM992 1670h-176v147h176v-147z" />
    <glyph glyph-name="uni06B2.init" unicode="&#x6b2;" horiz-adv-x="968" 
d="M840 1649l-805 -402v101l805 401v-100zM234 975q0 -56 110 -144l339 -268q152 -120 194 -180.5t42 -118.5q0 -264 -425 -264h-494q-59 0 -103.5 51t-44.5 137h640q128 0 178 25t50 73.5t-46 92t-195 160.5l-348 274q-126 101 -126 197q0 52 49 95t211 124l605 301v-197
l-506 -250q-50 -20 -90 -53t-40 -55zM295 -293h-177v147h177v-147zM619 -293h-176v147h176v-147z" />
    <glyph glyph-name="uni06B3" unicode="&#x6b3;" horiz-adv-x="1460" arabic-form="final" 
d="M1332 1649l-806 -402v101l806 401v-100zM983 188q128 0 178.5 25t50.5 73t-47 92t-194 161l-349 274q-125 101 -125 197q0 52 48.5 95t211.5 124l605 301v-197l-506 -250q-50 -20 -90.5 -53t-40.5 -55q0 -56 110 -144l340 -268q152 -120 194 -180.5t42 -118.5
q0 -264 -426 -264h-513q-198 0 -304.5 79t-106.5 230q0 40 10 121h161v-10q-14 -57 -14 -109q0 -123 254 -123h511zM817 -430h-176v148h176v-148zM817 -221h-176v147h176v-147z" />
    <glyph glyph-name="uni06B4.init" unicode="&#x6b4;" horiz-adv-x="968" 
d="M840 1649l-805 -402v101l805 401v-100zM234 975q0 -56 110 -144l339 -268q152 -120 194 -180.5t42 -118.5q0 -264 -425 -264h-494q-59 0 -103.5 51t-44.5 137h640q128 0 178 25t50 73.5t-46 92t-195 160.5l-348 274q-126 101 -126 197q0 52 49 95t211 124l605 301v-197
l-506 -250q-50 -20 -90 -53t-40 -55zM-8 1532h-177v147h177v-147zM346 1532h-177v147h177v-147zM169 1741h-177v147h177v-147z" />
    <glyph glyph-name="uni06B5.init" unicode="&#x6b5;" horiz-adv-x="530" 
d="M432 270q0 -123 -105 -196.5t-287 -73.5h-40q-59 0 -103.5 51t-44.5 137h178q245 0 245 156v1212h157v-1286zM479 1880l-159 -270h-89l-160 270h88l116 -202l117 202h87z" />
    <glyph glyph-name="uni06B5.medi" unicode="&#x6b5;" horiz-adv-x="530" 
d="M432 270q0 -123 -105 -196.5t-287 -73.5h-40q-59 0 -103.5 51t-44.5 137h178q245 0 245 156v1212h157v-1286zM479 1880l-159 -270h-89l-160 270h88l116 -202l117 202h87z" />
    <glyph glyph-name="uni06B6.init" unicode="&#x6b6;" horiz-adv-x="530" 
d="M432 270q0 -123 -105 -196.5t-287 -73.5h-40q-59 0 -103.5 51t-44.5 137h178q245 0 245 156v1212h157v-1286zM359 1662h-177v147h177v-147z" />
    <glyph glyph-name="uni06B6.medi" unicode="&#x6b6;" horiz-adv-x="530" 
d="M432 270q0 -123 -105 -196.5t-287 -73.5h-40q-59 0 -103.5 51t-44.5 137h178q245 0 245 156v1212h157v-1286zM359 1662h-177v147h177v-147z" />
    <glyph glyph-name="uni06B7.init" unicode="&#x6b7;" horiz-adv-x="530" 
d="M432 270q0 -134 -113 -202t-279 -68h-40q-72 0 -110 60t-38 128h178q245 0 245 156v1129h157v-1203zM175 1532h-176v147h176v-147zM529 1532h-176v147h176v-147zM353 1741h-178v147h178v-147z" />
    <glyph glyph-name="uni06B7.medi" unicode="&#x6b7;" horiz-adv-x="530" 
d="M432 270q0 -134 -113 -202t-279 -68h-40q-72 0 -110 60t-38 128h178q245 0 245 156v1129h157v-1203zM175 1532h-176v147h176v-147zM529 1532h-176v147h176v-147zM353 1741h-178v147h178v-147z" />
    <glyph glyph-name="uni06B8.init" unicode="&#x6b8;" horiz-adv-x="530" 
d="M432 270q0 -123 -105 -196.5t-287 -73.5h-40q-59 0 -103.5 51t-44.5 137h178q245 0 245 156v1212h157v-1286zM177 -221h-177v147h177v-147zM531 -221h-177v147h177v-147zM354 -430h-177v147h177v-147z" />
    <glyph glyph-name="uni06B8.medi" unicode="&#x6b8;" horiz-adv-x="530" 
d="M432 270q0 -123 -105 -196.5t-287 -73.5h-40q-59 0 -103.5 51t-44.5 137h178q245 0 245 156v1212h157v-1286zM177 -221h-177v147h177v-147zM531 -221h-177v147h177v-147zM354 -430h-177v147h177v-147z" />
    <glyph glyph-name="uni06B9.init" unicode="&#x6b9;" horiz-adv-x="600" 
d="M502 270q0 -123 -106 -196.5t-288 -73.5h-108q-59 0 -103.5 51t-44.5 137h246q246 0 246 156v373h158v-447zM428 891h-177v147h177v-147zM335 -293h-177v147h177v-147z" />
    <glyph glyph-name="uni06BA" unicode="&#x6ba;" horiz-adv-x="1302" arabic-form="final" 
d="M1266 172q0 -277 -156 -436.5t-446.5 -159.5t-446.5 159.5t-156 436.5q0 109 33 229h157v-10q-33 -96 -33 -207q0 -420 445.5 -420t445.5 420q0 57 -17 137l-16 70v10h158q32 -120 32 -229z" />
    <glyph glyph-name="uni06BB" unicode="&#x6bb;" horiz-adv-x="1302" arabic-form="final" 
d="M1266 172q0 -277 -156 -436.5t-446.5 -159.5t-446.5 159.5t-156 436.5q0 109 33 229h157v-10q-33 -96 -33 -207q0 -420 445.5 -420t445.5 420q0 57 -17 137l-16 70v10h158q32 -120 32 -229zM830 612q0 35 -21 74.5t-63 39.5q-70 0 -166 -159h116q134 0 134 45zM896 608
q0 -108 -192 -108h-272v67h79v413h69v-328q70 141 168 141q68 0 108 -61.5t40 -123.5z" />
    <glyph glyph-name="uni06BC.init" unicode="&#x6bc;" horiz-adv-x="600" 
d="M428 -58.5q0 -65.5 -50 -107.5t-121.5 -42t-122 42t-50.5 89.5t18 76.5h-102q-59 0 -103.5 51t-44.5 137h246q246 0 246 156v373h158v-447q0 -145 -143 -219q69 -44 69 -109.5zM428 891h-177v147h177v-147zM256.5 -142q38.5 0 65.5 22.5t27 54.5t-27 55t-49.5 23
t-44 -4.5t-43.5 -23t-22 -50.5t27.5 -54.5t66 -22.5z" />
    <glyph glyph-name="uni06BD.init" unicode="&#x6bd;" horiz-adv-x="600" 
d="M335 -430h-178v147h178v-147zM157 -221h-176v147h176v-147zM511 -221h-176v147h176v-147zM502 270q0 -123 -106 -196.5t-288 -73.5h-108q-59 0 -103.5 51t-44.5 137h246q246 0 246 156v373h158v-447z" />
    <glyph glyph-name="uni06BE" unicode="&#x647;" horiz-adv-x="1106" arabic-form="initial" 
d="M413 168q159 0 159 178q0 87 -55.5 161.5t-152.5 74.5q-66 0 -103.5 -55t-37.5 -141t54.5 -152t135.5 -66zM138 1104h49q298 0 585.5 -270.5t287.5 -528.5q0 -305 -431 -305h-629q-59 0 -103.5 51t-44.5 137h293q-79 105 -79 215q0 170 81.5 269.5t228 99.5t250.5 -133
t104 -301q0 -85 -45 -150h37q180 0 180 129q0 183 -207.5 390.5t-504.5 207.5h-52v189z" />
    <glyph glyph-name="uni06BF.init" unicode="&#x6bf;" horiz-adv-x="1334" 
d="M842 -430h-176v147h176v-147zM666 -221h-176v147h176v-147zM1020 -221h-178v147h178v-147zM1236 184q-214 0 -628.5 -92t-607.5 -92q-59 0 -103.5 51t-44.5 137h155q172 0 527.5 80.5t487.5 87.5q-363 273 -783 273h-114v186h126q279 0 546 -144q166 -91 381 -258l52 -41
h2l4 1v-189zM855 936h-177v147h177v-147z" />
    <glyph glyph-name="uni06BF.fina" unicode="&#x6bf;" horiz-adv-x="1334" 
d="M710 -98h-177v147h177v-147zM533 111h-177v147h177v-147zM887 111h-177v147h177v-147zM1334 0h-39q-162 0 -236 76t-74 243v218q-341 -14 -533 -126q-192 -111 -192 -287t148 -270t376 -94q322 0 516 111h13v-199q-193 -96 -509 -96t-508.5 146t-192.5 394t261 395.5
t654 147.5q-315 113 -755 113h-94v186h106q225 0 487 -77t491 -211v-131h-111v-164q0 -118 37.5 -152.5t110.5 -34.5h44v-188zM923 1120h-177v147h177v-147z" />
    <glyph glyph-name="uni06C0" unicode="&#x6c0;" horiz-adv-x="762" arabic-form="isolated" 
d="M394 176q162 0 162 210t-197 321q-127 -137 -127 -334q0 -95 44 -146t118 -51zM713 399.5q0 -190.5 -90.5 -301t-233.5 -110.5t-229.5 100t-86.5 291.5t161 370.5q-44 10 -98 10v170q259 -13 418 -176.5t159 -354zM440 1104h-302v70h67q-52 24 -52 76t44 87t112 35
t105 -12v-74q-43 17 -111.5 17t-68.5 -52q0 -32 40.5 -54.5t99.5 -22.5h66v-70z" />
    <glyph glyph-name="uni06C1" unicode="&#x6c1;" horiz-adv-x="1306" arabic-form="final" 
d="M785 375q-215 0 -455 -551h-210v10q196 363 289 482q178 223 373 223q233 0 324 -242q26 -67 53 -88t147 -21v-188q-302 0 -363 206q-24 80 -48 114q-39 55 -110 55z" />
    <glyph glyph-name="uni06C5" unicode="&#x6c5;" horiz-adv-x="1042" arabic-form="final" 
d="M624 616q-56 0 -94 -64t-38 -120t48 -93.5t123.5 -37.5t110.5 39q0 67 -43 171.5t-107 104.5zM943 197q0 -331 -283 -489q-240 -132 -660 -132v188q500 0 688 167h-483v108h562q21 52 21 115q-49 -41 -132 -41q-151 0 -236 93.5t-85 216.5t82 252.5t209 129.5
q173 0 258 -249q59 -170 59 -359z" />
    <glyph glyph-name="uni06C6" unicode="&#x6c6;" horiz-adv-x="1042" arabic-form="final" 
d="M625 616q-48 0 -90.5 -57.5t-42.5 -119.5t47.5 -100t123.5 -38t111 39q0 93 -50.5 184.5t-98.5 91.5zM656 113q-132 0 -226.5 85t-94.5 234t95.5 261t195.5 112q126 0 221.5 -164.5t95.5 -456t-240.5 -450t-702.5 -158.5v188q390 0 589 101t199 289q-49 -41 -132 -41z
M775 1249l-159 -270h-89l-160 270h88l116 -202l117 202h87z" />
    <glyph glyph-name="uni06C7" unicode="&#x6c7;" horiz-adv-x="1042" arabic-form="final" 
d="M625 616q-48 0 -90.5 -57.5t-42.5 -119.5t47.5 -100t123.5 -38t111 39q0 93 -50.5 184.5t-98.5 91.5zM656 113q-132 0 -226.5 85t-94.5 234t95.5 261t195.5 112q126 0 221.5 -164.5t95.5 -456t-240.5 -450t-702.5 -158.5v188q390 0 589 101t199 289q-49 -41 -132 -41z
M623 1134q0 31 -20.5 47t-48.5 16q-70 0 -70 -52.5t100 -74.5q39 33 39 64zM400 1145q0 55 42 88t108.5 33t111.5 -35t45 -83t-47 -93l56 -10v-66l-112 23q-153 -77 -332 -86v70q120 2 240 45q-112 37 -112 114z" />
    <glyph glyph-name="uni06C8" unicode="&#x6c8;" horiz-adv-x="1042" arabic-form="final" 
d="M625 616q-48 0 -90.5 -57.5t-42.5 -119.5t47.5 -100t123.5 -38t111 39q0 93 -50.5 184.5t-98.5 91.5zM656 113q-132 0 -226.5 85t-94.5 234t95.5 261t195.5 112q126 0 221.5 -164.5t95.5 -456t-240.5 -450t-702.5 -158.5v188q390 0 589 101t199 289q-49 -41 -132 -41z
M626 979h-84v513h84v-513z" />
    <glyph glyph-name="uni06C9" unicode="&#x6c9;" horiz-adv-x="1042" arabic-form="final" 
d="M625 616q-48 0 -90.5 -57.5t-42.5 -119.5t47.5 -100t123.5 -38t111 39q0 93 -50.5 184.5t-98.5 91.5zM656 113q-132 0 -226.5 85t-94.5 234t95.5 261t195.5 112q126 0 221.5 -164.5t95.5 -456t-240.5 -450t-702.5 -158.5v188q390 0 589 101t199 289q-49 -41 -132 -41z
M748 979l-153 202l-152 -202h-88l196 270h89l195 -270h-87z" />
    <glyph glyph-name="uni06CB" unicode="&#x6cb;" horiz-adv-x="1042" arabic-form="final" 
d="M625 616q-48 0 -90.5 -57.5t-42.5 -119.5t47.5 -100t123.5 -38t111 39q0 93 -50.5 184.5t-98.5 91.5zM656 113q-132 0 -226.5 85t-94.5 234t95.5 261t195.5 112q126 0 221.5 -164.5t95.5 -456t-240.5 -450t-702.5 -158.5v188q390 0 589 101t199 289q-49 -41 -132 -41z
M524 979h-177v147h177v-147zM878 979h-177v147h177v-147zM701 1188h-177v147h177v-147z" />
    <glyph glyph-name="uni06CC" unicode="&#x6cc;" horiz-adv-x="1573" arabic-form="isolated" 
d="M1487 866h-12q-180 88 -384 88q-99 0 -163.5 -36t-64.5 -84t45.5 -87t240.5 -121.5t261.5 -144.5t66.5 -147q0 -161 -213 -247.5t-630 -86.5q-597 0 -597 442q0 99 24 252h160v-10q-27 -135 -27 -240q0 -133 105 -194.5t337 -61.5q332 0 508 42t176 108q0 42 -56.5 81.5
t-234.5 111.5t-250.5 143.5t-72.5 159.5q0 122 112 214t304 91.5t365 -60.5v-213z" />
    <glyph glyph-name="uni06CD.fina" unicode="&#x6cd;" horiz-adv-x="1709" 
d="M1709 0q-203 0 -292 164q-7 12 -73 168t-103 188t-100 33q-110 0 -110 -88q0 -55 86 -141q115 -115 115 -228q0 -264 -450 -264q-236 0 -363 129t-127 330q0 40 7 102l-293 -78v96l469 131v-10q-26 -135 -26 -240q0 -272 336 -272q285 0 285 117q0 53 -88 142
q-113 112 -113 222t70 175t204 65t207 -84q47 -53 93 -188t81 -184q68 -97 185 -97v-188z" />
    <glyph glyph-name="uni06CE.init" unicode="&#x6ce;" horiz-adv-x="600" 
d="M502 270q0 -123 -106 -196.5t-288 -73.5h-108q-59 0 -103.5 51t-44.5 137h246q246 0 246 156v373h158v-447zM177 -293h-177v147h177v-147zM501 -293h-176v147h176v-147zM548 1161l-159 -270h-89l-160 270h88l116 -202l117 202h87z" />
    <glyph glyph-name="uni06CE.fina" unicode="&#x6ce;" horiz-adv-x="1454" 
d="M1454 0q-204 0 -292 164q-40 74 -87 196.5t-87 157.5t-101 35q-111 0 -111 -88q0 -55 101 -155.5t101 -213.5q0 -264 -450 -264q-221 0 -356 122t-135 337q0 65 17 170h160v-10q-20 -66 -20 -158q0 -146 83 -209.5t253 -63.5q286 0 286 117q0 52 -89 142
q-113 111 -113 220.5t70 175.5t184 66t186 -44t135.5 -229t121.5 -232.5t143 -47.5v-188zM559 985l-159 -270h-89l-160 270h88l116 -202l117 202h87z" />
    <glyph glyph-name="uni06D0" unicode="&#x6d0;" horiz-adv-x="1573" arabic-form="isolated" 
d="M1487 866h-12q-180 88 -384 88q-99 0 -163.5 -36t-64.5 -84t45.5 -87t240.5 -121.5t261.5 -144.5t66.5 -147q0 -161 -213 -247.5t-630 -86.5q-597 0 -597 442q0 99 24 252h160v-10q-27 -135 -27 -240q0 -133 105 -194.5t337 -61.5q332 0 508 42t176 108q0 42 -56.5 81.5
t-234.5 111.5t-250.5 143.5t-72.5 159.5q0 122 112 214t304 91.5t365 -60.5v-213zM745 -430h-176v148h176v-148zM745 -221h-176v147h176v-147z" />
    <glyph glyph-name="uni06D1.fina" unicode="&#x6d1;" horiz-adv-x="1454" 
d="M649 -430h-177v147h177v-147zM472 -221h-177v147h177v-147zM826 -221h-177v147h177v-147zM1454 0q-188 0 -282 163q-56 151 -116 309t-170 157q-110 0 -110 -88q0 -47 82.5 -137t82.5 -178q-1 -124 -97 -184t-326 -60t-356 102t-125 277q0 65 17 170h160v-10
q-20 -66 -20 -164q0 -99 80 -143t240 -44q158 0 212 22q54 24 53.5 76t-83 139.5t-82.5 168.5q0 111 70.5 176t202.5 65q173 0 249 -163q52 -151 104 -303q67 -163 214 -163v-188z" />
    <glyph glyph-name="uni06D2" unicode="&#x6d2;" horiz-adv-x="2104" arabic-form="isolated" 
d="M2260 -112q0 -68 -37 -128t-111 -60h-1560q-529 0 -529 189q0 91 93 147q60 36 244 92t278 100t220 192q126 150 216 150q118 0 239 -182v-188l-94 122q-78 91 -123 91q-24 0 -127 -124q-103 -123 -206 -177t-298 -104t-195 -74q0 -46 208 -46h1782z" />
    <glyph glyph-name="uni06D3" unicode="&#x6d3;" horiz-adv-x="2104" arabic-form="isolated" 
d="M2260 -112q0 -68 -37 -128t-111 -60h-1560q-529 0 -529 189q0 91 93 147q60 36 244 92t278 100t220 192q126 150 216 150q118 0 239 -182v-188l-94 122q-78 91 -123 91q-24 0 -127 -124q-103 -123 -206 -177t-298 -104t-195 -74q0 -46 208 -46h1782zM1195 725h-302v70h67
q-52 24 -52 76t44 87t112 35t105 -12v-74q-43 17 -111 17t-69 -52q0 -32 40.5 -54.5t99.5 -22.5h66v-70z" />
    <glyph glyph-name="uni06EE.fina" unicode="&#x6ee;" horiz-adv-x="835" 
d="M786 324q0 -148 -113.5 -236t-325.5 -88h-335v188h332q134 0 209.5 39t75.5 95q0 183 -413 399v235h12q558 -341 558 -632zM436 1100l-153 202l-152 -202h-88l196 270h89l195 -270h-87z" />
    <glyph glyph-name="uni06EF.fina" unicode="&#x6ef;" horiz-adv-x="1192" 
d="M1069 186q0 -299 -272.5 -454.5t-698.5 -155.5v188q366 0 590 100t224 290q0 164 -199 350v12h230q126 -164 126 -330zM904 690l-153 202l-152 -202h-88l196 270h89l195 -270h-87z" />
    <glyph glyph-name="uni06FA.init" unicode="&#x6fa;" horiz-adv-x="1487" 
d="M1388 188q0 -188 -218 -188h-98q-176 0 -239 72q-63 -72 -238 -72t-239 72q-66 -72 -258 -72h-98q-59 0 -103.5 51t-44.5 137h246q179 0 179 134v100h157v-100q0 -134 160 -134t161 134v100h157v-100q0 -134 160 -134t159 80v367h157v-447zM920 -293h-177v147h177v-147z
M671 717h-177v147h177v-147zM1025 717h-177v147h177v-147zM848 926h-177v147h177v-147z" />
    <glyph glyph-name="uni06FB.init" unicode="&#x6fb;" horiz-adv-x="2077" 
d="M1438 188q195 0 314 34.5t119 88.5q0 132 -101.5 225t-209.5 93q-167 0 -332.5 -104t-369.5 -337h580zM1554 815q188 0 331 -162t143 -352q0 -138 -153 -219.5t-415 -81.5h-909q-181 0 -276 82q-90 -82 -275 -82q-59 0 -103.5 51t-44.5 137h153q192 0 192 191v10h157v-10
q0 -191 192 -191h115q280 327 492.5 477t400.5 150zM1610 958h-177v147h177v-147zM1539 -293h-177v147h177v-147z" />
    <glyph glyph-name="uni06FC.init" unicode="&#x6fc;" horiz-adv-x="1334" 
d="M293 0h-293q-59 0 -103.5 51t-44.5 137h488q-108 49 -171 142t-63 186q0 197 134 309.5t353 112.5q287 0 481 -82v-213h-12q-192 113 -460 113q-164 0 -251.5 -71t-87.5 -171q0 -147 119.5 -224t165 -77t247.5 46.5t419 113.5v-189q-590 -184 -921 -184zM691 1112h-177
v147h177v-147zM691 400h-177v147h177v-147z" />
    <glyph glyph-name="uni06FC.medi" unicode="&#x6fc;" horiz-adv-x="964" 
d="M732 559q0 84 -250 84t-250 -84q0 -51 68 -126.5t181 -143.5q114 68 182.5 143.5t68.5 126.5zM964 0h-99q-174 0 -384 115q-209 -115 -383 -115h-98q-59 0 -103.5 51t-44.5 137h246q125 0 228 33q-253 200 -253 371q0 116 112.5 179t296.5 63t295.5 -63t111.5 -179
q0 -171 -253 -371q104 -33 229 -33h99v-188zM571 1008h-177v147h177v-147zM571 -293h-177v147h177v-147z" />
    <glyph glyph-name="uni06FC.fina" unicode="&#x6fc;" horiz-adv-x="1114" 
d="M811 686q0 46 -69 73t-172.5 27t-168 -26.5t-64.5 -64t46.5 -89t157.5 -151.5q144 81 207 133t63 98zM1114 0h-26q-231 0 -574 295q-130 -81 -192 -145t-62 -148q0 -106 115 -173t267 -67q223 0 434 129h12v-213q-196 -102 -431 -102t-394.5 123t-159.5 303
q0 117 73.5 199.5t238.5 181.5q-144 131 -199.5 203t-55.5 153q0 108 117 173t292 65t291 -64.5t116 -169t-62 -178.5t-276 -196q138 -115 230 -148t201 -33h45v-188zM656 1151h-177v147h177v-147zM625 -80h-177v147h177v-147z" />
    <glyph glyph-name="uni06FF.isol" unicode="&#x6ff;" horiz-adv-x="1106" 
d="M413 168q159 0 159 178q0 87 -55.5 161.5t-152.5 74.5q-66 0 -103.5 -55t-37.5 -141t54.5 -152t135.5 -66zM138 1104h49q298 0 585.5 -270.5t287.5 -528.5q0 -305 -431 -305h-629q-59 0 -103.5 51t-44.5 137h293q-79 105 -79 215q0 170 81.5 269.5t228 99.5t250.5 -133
t104 -301q0 -85 -45 -150h37q180 0 180 129q0 183 -207.5 390.5t-504.5 207.5h-52v189zM652 1220l-153 202l-152 -202h-88l196 270h89l195 -270h-87z" />
    <glyph glyph-name="uni06FF.medi" unicode="&#x6ff;" horiz-adv-x="964" 
d="M373 0q0 -97 48.5 -166.5t101.5 -69.5q94 0 94 89q0 58 -36 102.5t-89 44.5h-119zM617 312q1 91 -93 91q-48 0 -99.5 -60.5t-51.5 -154.5h119q53 0 89 40t36 84zM964 0h-288q98 -59 98 -170t-71.5 -182.5t-177 -71.5t-204 118.5t-98.5 305.5h-223q-59 0 -103.5 51
t-44.5 137h371q0 183 100.5 293.5t208.5 110.5t175 -65t67 -175t-120 -164h310v-188zM652 800l-153 202l-152 -202h-88l196 270h89l195 -270h-87z" />
    <glyph glyph-name="uni06FF.fina" unicode="&#x6ff;" horiz-adv-x="964" 
d="M373 0q0 -97 48.5 -166.5t101.5 -69.5q94 0 94 89q0 58 -36 102.5t-89 44.5h-119zM617 312q1 91 -93 91q-48 0 -99.5 -60.5t-51.5 -154.5h119q53 0 89 40t36 84zM964 0h-288q98 -59 98 -170t-71.5 -182.5t-177 -71.5t-204 118.5t-98.5 305.5h-223q-59 0 -103.5 51
t-44.5 137h371q0 183 100.5 293.5t208.5 110.5t175 -65t67 -175t-120 -164h310v-188zM652 800l-153 202l-152 -202h-88l196 270h89l195 -270h-87z" />
    <glyph glyph-name="uniFB51" unicode="&#x671;" horiz-adv-x="575" arabic-form="final" 
d="M575 0q-171 0 -266 87.5t-95 244.5v1224h157v-1212q0 -85 46 -120.5t153 -35.5h5v-188zM431 1763q0 46 -48 46t-81 -38t-43 -84q23 -6 61 -6t74.5 25.5t36.5 56.5zM515 1763q1 -69 -67 -111t-125 -41q-57 0 -120 20.5t-97 20.5t-100 -42v70q64 42 98 42t76 -10
q18 74 72.5 120.5t125.5 46.5q137 0 137 -116z" />
    <glyph glyph-name="uniFB54" unicode="&#x67b;" horiz-adv-x="600" arabic-form="initial" 
d="M502 270q0 -123 -106 -196.5t-288 -73.5h-108q-59 0 -103.5 51t-44.5 137h246q246 0 246 156v373h158v-447zM335 -430h-176v148h176v-148zM335 -221h-176v147h176v-147z" />
    <glyph glyph-name="uniFB58" unicode="&#x67e;" horiz-adv-x="600" arabic-form="initial" 
d="M335 -430h-178v147h178v-147zM157 -221h-176v147h176v-147zM511 -221h-176v147h176v-147zM502 270q0 -123 -106 -196.5t-288 -73.5h-108q-59 0 -103.5 51t-44.5 137h246q246 0 246 156v373h158v-447z" />
    <glyph glyph-name="uniFB5C" unicode="&#x680;" horiz-adv-x="600" arabic-form="initial" 
d="M502 270q0 -123 -106 -196.5t-288 -73.5h-108q-59 0 -103.5 51t-44.5 137h246q246 0 246 156v373h158v-447zM177 -430h-177v147h177v-147zM501 -430h-176v147h176v-147zM177 -221h-177v147h177v-147zM501 -221h-176v147h176v-147z" />
    <glyph glyph-name="uniFB60" unicode="&#x67a;" horiz-adv-x="600" arabic-form="initial" 
d="M502 270q0 -123 -106 -196.5t-288 -73.5h-108q-59 0 -103.5 51t-44.5 137h246q246 0 246 156v373h158v-447zM428 891h-176v148h176v-148zM428 1100h-176v147h176v-147z" />
    <glyph glyph-name="uniFB64" unicode="&#x67f;" horiz-adv-x="600" arabic-form="initial" 
d="M502 270q0 -123 -106 -196.5t-288 -73.5h-108q-59 0 -103.5 51t-44.5 137h246q246 0 246 156v373h158v-447zM266 891h-177v147h177v-147zM590 891h-176v147h176v-147zM266 1100h-177v147h177v-147zM590 1100h-176v147h176v-147z" />
    <glyph glyph-name="uniFB68" unicode="&#x679;" horiz-adv-x="600" arabic-form="initial" 
d="M502 270q0 -123 -106 -196.5t-288 -73.5h-108q-59 0 -103.5 51t-44.5 137h246q246 0 246 156v373h158v-447zM458 912q0 34 -21 74t-63 40q-70 0 -166 -159h116q134 0 134 45zM524 908q0 -108 -192 -108h-272v67h79v413h69v-328q70 141 168 141q68 1 108 -61t40 -124z" />
    <glyph glyph-name="uniFB6C" unicode="&#x6a4;" horiz-adv-x="713" arabic-form="initial" 
d="M364.5 934q-51.5 0 -101 -54t-49.5 -130q0 -140 184 -140q81 0 132 37q0 112 -57 199.5t-108.5 87.5zM378.5 426q-118.5 0 -216.5 85.5t-98 234t99 260.5t201 112q135 0 232.5 -163.5t97.5 -428.5t-127 -395.5t-363 -130.5h-204q-59 0 -103.5 51t-44.5 137h354
q143 0 241.5 76.5t98.5 202.5q-49 -41 -167.5 -41zM280 1292h-177v147h177v-147zM634 1292h-177v147h177v-147zM457 1501h-177v147h177v-147z" />
    <glyph glyph-name="uniFB6D" unicode="&#x6a4;" horiz-adv-x="727" arabic-form="medial" 
d="M502 506q0 59 -37.5 98t-101 39t-100.5 -39t-37 -98q0 -131 138 -240q138 109 138 240zM727 0h-49q-144 0 -314 100q-171 -100 -315 -100h-49q-59 0 -103.5 51t-44.5 137h246q65 0 134 17q-164 167 -164 310.5t83 231t212.5 87.5t212.5 -87.5t83 -231t-162 -310.5
q67 -17 132 -17h98v-188zM280 1008h-177v147h177v-147zM634 1008h-177v147h177v-147zM457 1217h-177v147h177v-147z" />
    <glyph glyph-name="uniFB70" unicode="&#x6a6;" horiz-adv-x="713" arabic-form="initial" 
d="M364.5 934q-51.5 0 -101 -54t-49.5 -130q0 -140 184 -140q81 0 132 37q0 112 -57 199.5t-108.5 87.5zM378.5 426q-118.5 0 -216.5 85.5t-98 234t99 260.5t201 112q135 0 232.5 -163.5t97.5 -428.5t-127 -395.5t-363 -130.5h-204q-59 0 -103.5 51t-44.5 137h354
q143 0 241.5 76.5t98.5 202.5q-49 -41 -167.5 -41zM276 1292h-177v147h177v-147zM600 1292h-176v147h176v-147zM276 1501h-177v147h177v-147zM600 1501h-176v147h176v-147z" />
    <glyph glyph-name="uniFB71" unicode="&#x6a6;" horiz-adv-x="727" arabic-form="medial" 
d="M502 506q0 59 -37.5 98t-101 39t-100.5 -39t-37 -98q0 -131 138 -240q138 109 138 240zM727 0h-49q-144 0 -314 100q-171 -100 -315 -100h-49q-59 0 -103.5 51t-44.5 137h246q65 0 134 17q-164 167 -164 310.5t83 231t212.5 87.5t212.5 -87.5t83 -231t-162 -310.5
q67 -17 132 -17h98v-188zM290 1008h-177v147h177v-147zM614 1008h-176v147h176v-147zM290 1217h-177v147h177v-147zM614 1217h-176v147h176v-147z" />
    <glyph glyph-name="uniFB73" unicode="&#x684;" horiz-adv-x="1334" arabic-form="final" 
d="M1334 0h-39q-408 0 -408 319v211q-294 -26 -460.5 -134t-166.5 -278t148 -264t376 -94q322 0 516 111h13v-199q-193 -96 -509 -96t-508.5 146t-192.5 394t261 395.5t654 147.5q-315 113 -755 113h-94v186h106q225 0 487 -77t491 -211v-131q-173 0 -209 -2v-162
q0 -102 60 -144.5t186 -42.5h44v-188zM721 -98h-176v148h176v-148zM721 111h-176v147h176v-147z" />
    <glyph glyph-name="uniFB74" unicode="&#x684;" horiz-adv-x="1334" arabic-form="initial" 
d="M1236 184q-214 0 -628.5 -92t-607.5 -92q-59 0 -103.5 51t-44.5 137h155q172 0 527.5 80.5t487.5 87.5q-363 273 -783 273h-114v186h126q279 0 546 -144q166 -91 381 -258l52 -41h2l4 1v-189zM843 -430h-176v148h176v-148zM843 -221h-176v147h176v-147z" />
    <glyph glyph-name="uniFB77" unicode="&#x683;" horiz-adv-x="1334" arabic-form="final" 
d="M1334 0h-39q-408 0 -408 319v211q-294 -26 -460.5 -134t-166.5 -278t148 -264t376 -94q322 0 516 111h13v-199q-193 -96 -509 -96t-508.5 146t-192.5 394t261 395.5t654 147.5q-315 113 -755 113h-94v186h106q225 0 487 -77t491 -211v-131q-173 0 -209 -2v-162
q0 -102 60 -144.5t186 -42.5h44v-188zM535 12h-177v147h177v-147zM859 12h-176v147h176v-147z" />
    <glyph glyph-name="uniFB78" unicode="&#x683;" horiz-adv-x="1334" arabic-form="initial" 
d="M1236 184q-214 0 -628.5 -92t-607.5 -92q-59 0 -103.5 51t-44.5 137h155q172 0 527.5 80.5t487.5 87.5q-363 273 -783 273h-114v186h126q279 0 546 -144q166 -91 381 -258l52 -41h2l4 1v-189zM681 -244h-177v147h177v-147zM1005 -244h-176v147h176v-147z" />
    <glyph glyph-name="uniFB7B" unicode="&#x686;" horiz-adv-x="1334" arabic-form="final" 
d="M710 -98h-177v147h177v-147zM533 111h-177v147h177v-147zM887 111h-177v147h177v-147zM1334 0h-39q-162 0 -236 76t-74 243v218q-341 -14 -533 -126q-192 -111 -192 -287t148 -270t376 -94q322 0 516 111h13v-199q-193 -96 -509 -96t-508.5 146t-192.5 394t261 395.5
t654 147.5q-315 113 -755 113h-94v186h106q225 0 487 -77t491 -211v-131h-111v-164q0 -118 37.5 -152.5t110.5 -34.5h44v-188z" />
    <glyph glyph-name="uniFB7C" unicode="&#x686;" horiz-adv-x="1334" arabic-form="initial" 
d="M842 -430h-176v147h176v-147zM666 -221h-176v147h176v-147zM1020 -221h-178v147h178v-147zM1236 184q-214 0 -628.5 -92t-607.5 -92q-59 0 -103.5 51t-44.5 137h155q172 0 527.5 80.5t487.5 87.5q-363 273 -783 273h-114v186h126q279 0 546 -144q166 -91 381 -258l52 -41
h2l4 1v-189z" />
    <glyph glyph-name="uniFB7F" unicode="&#x687;" horiz-adv-x="1334" arabic-form="final" 
d="M605 -98h-178v147h178v-147zM929 -98h-177v147h177v-147zM605 111h-178v147h178v-147zM929 111h-177v147h177v-147zM1334 0h-39q-174 0 -242 82t-68 237v218q-284 -12 -475 -97q-250 -111 -250 -321q0 -177 152 -268t372 -91q322 0 516 111h13v-199q-191 -96 -509 -96
t-510 146t-191 393q0 273 307 421q255 123 608 123q-315 113 -755 113h-94v186h106q241 0 501 -80t477 -208v-131h-111v-164q0 -92 21 -130q32 -57 127 -57h44v-188z" />
    <glyph glyph-name="uniFB80" unicode="&#x687;" horiz-adv-x="1334" arabic-form="initial" 
d="M1236 184q-214 0 -628.5 -92t-607.5 -92q-59 0 -103.5 51t-44.5 137h155q172 0 527.5 80.5t487.5 87.5q-363 273 -783 273h-114v186h126q279 0 546 -144q166 -91 381 -258l52 -41h2l4 1v-189zM681 -430h-177v147h177v-147zM1005 -430h-176v147h176v-147zM681 -221h-177
v147h177v-147zM1005 -221h-176v147h176v-147z" />
    <glyph glyph-name="uniFB90" unicode="&#x6a9;" horiz-adv-x="968" arabic-form="initial" 
d="M234 975q0 -56 110 -144l339 -268q152 -120 194 -180.5t42 -118.5q0 -264 -425 -264h-494q-59 0 -103.5 51t-44.5 137h640q128 0 178 25t50 73.5t-46 92t-195 160.5l-348 274q-126 101 -126 197q0 52 49 95t211 124l605 301v-197l-506 -250q-50 -20 -90 -53t-40 -55z" />
    <glyph glyph-name="uniFB94" unicode="&#x6af;" horiz-adv-x="968" arabic-form="initial" 
d="M840 1649l-805 -402v101l805 401v-100zM234 975q0 -56 110 -144l339 -268q152 -120 194 -180.5t42 -118.5q0 -264 -425 -264h-494q-59 0 -103.5 51t-44.5 137h640q128 0 178 25t50 73.5t-46 92t-195 160.5l-348 274q-126 101 -126 197q0 52 49 95t211 124l605 301v-197
l-506 -250q-50 -20 -90 -53t-40 -55z" />
    <glyph glyph-name="uniFB98" unicode="&#x6b3;" horiz-adv-x="968" arabic-form="initial" 
d="M840 1649l-805 -402v101l805 401v-100zM234 975q0 -56 110 -144l339 -268q152 -120 194 -180.5t42 -118.5q0 -264 -425 -264h-494q-59 0 -103.5 51t-44.5 137h640q128 0 178 25t50 73.5t-46 92t-195 160.5l-348 274q-126 101 -126 197q0 52 49 95t211 124l605 301v-197
l-506 -250q-50 -20 -90 -53t-40 -55zM457 -430h-176v148h176v-148zM457 -221h-176v147h176v-147z" />
    <glyph glyph-name="uniFB9C" unicode="&#x6b1;" horiz-adv-x="968" arabic-form="initial" 
d="M840 1649l-805 -402v101l805 401v-100zM234 975q0 -56 110 -144l339 -268q152 -120 194 -180.5t42 -118.5q0 -264 -425 -264h-494q-59 0 -103.5 51t-44.5 137h640q128 0 178 25t50 73.5t-46 92t-195 160.5l-348 274q-126 101 -126 197q0 52 49 95t211 124l605 301v-197
l-506 -250q-50 -20 -90 -53t-40 -55zM177 1670h-177v147h177v-147zM501 1670h-176v147h176v-147z" />
    <glyph glyph-name="uniFBA5" unicode="&#x6c0;" horiz-adv-x="938" arabic-form="final" 
d="M244 555q0 -57 39 -88t97 -31q173 0 274 133v293q-194 -33 -302 -118t-108 -189zM938 0q-142 0 -213 79.5t-71 313.5q-41 -55 -119 -92t-155 -37q-129 0 -211.5 77.5t-82.5 218.5t152 268.5t416 168.5v72h157v-676q0 -111 30 -158t97 -47v-188zM555 1204h-302v70h67
q-52 24 -52 76t44 87t112 35t105 -12v-74q-43 17 -111.5 17t-68.5 -52q0 -32 40.5 -54.5t99.5 -22.5h66v-70z" />
    <glyph glyph-name="uniFBA6" unicode="&#x6c1;" horiz-adv-x="762" arabic-form="isolated" 
d="M394 176q162 0 162 210t-197 321q-127 -137 -127 -334q0 -95 44 -146t118 -51zM713 400q0 -190 -90.5 -301t-233.5 -111t-229.5 100t-86.5 292t161 370q-44 10 -98 10v170q259 -13 418 -176.5t159 -353.5z" />
    <glyph glyph-name="uniFBA8" unicode="&#x6c1;" horiz-adv-x="600" arabic-form="initial" 
d="M326 -231h-150v125q0 38 41 72t109 34v-49q-86 0 -86 -57h86v-125zM502 270q0 -134 -114 -202t-280 -68h-108q-72 0 -110 60t-38 128h246q246 0 246 156v373h158v-447z" />
    <glyph glyph-name="uniFBA9" unicode="&#x6c1;" horiz-adv-x="1225" arabic-form="medial" 
d="M482 -380h-150v125q0 46 46 71t104 25v-49q-86 0 -86 -47h86v-125zM1224 0q-82 0 -196.5 94t-168.5 94q-113 0 -189 -60q-96 -73 -170 -258h-174q-27 118 -30 231q-12 -13 -55 -42.5t-78 -44t-91 -14.5h-72q-74 0 -111 60t-37 128h246q113 0 152 34t70 122l132 373h182
q-84 -208 -144 -417q-29 -101 -34 -246q64 129 172 213.5t223 84.5t229.5 -82t143.5 -82v-188z" />
    <glyph glyph-name="uniFBAB" unicode="&#x6be;" horiz-adv-x="964" arabic-form="final" 
d="M373 0q0 -97 48.5 -166.5t101.5 -69.5q94 0 94 89q0 58 -36 102.5t-89 44.5h-119zM617 312q1 91 -93 91q-48 0 -99.5 -60.5t-51.5 -154.5h119q53 0 89 40t36 84zM964 0h-288q98 -59 98 -170t-71.5 -182.5t-177 -71.5t-204 118.5t-98.5 305.5h-223q-59 0 -103.5 51
t-44.5 137h371q0 183 100.5 293.5t208.5 110.5t175 -65t67 -175t-120 -164h310v-188z" />
    <glyph glyph-name="uniFBAF" unicode="&#x6d2;" horiz-adv-x="2104" arabic-form="final" 
d="M2260 -242q0 -68 -37 -128t-111 -60h-1560q-256 0 -392 61t-137 165q0 104 133 180q391 158 841 185t774 27h333v-188h-340q-314 0 -652.5 -8.5t-618.5 -64.5q-223 -53 -223 -106t208 -63h1782z" />
    <glyph glyph-name="uniFBB1" unicode="&#x6d3;" horiz-adv-x="2104" arabic-form="final" 
d="M2260 -242q0 -68 -37 -128t-111 -60h-1560q-256 0 -392 61t-137 165q0 104 133 180q391 158 841 185t774 27h333v-188h-340q-314 0 -652.5 -8.5t-618.5 -64.5q-223 -53 -223 -106t208 -63h1782zM1483 660h-302v70h67q-52 24 -52 76t44 87t112 35t105 -12v-74
q-43 17 -111 17t-69 -52q0 -32 40.5 -54.5t99.5 -22.5h66v-70z" />
    <glyph glyph-name="uniFBD5" unicode="&#x6ad;" horiz-adv-x="968" arabic-form="initial" 
d="M234 975q0 -56 110 -144l339 -268q152 -120 194 -180.5t42 -118.5q0 -264 -425 -264h-494q-59 0 -103.5 51t-44.5 137h640q128 0 178 25t50 73.5t-46 92t-195 160.5l-348 274q-126 101 -126 197q0 52 49 95t211 124l605 301v-197l-506 -250q-50 -20 -90 -53t-40 -55z
M184 1460h-177v147h177v-147zM538 1460h-177v147h177v-147zM361 1669h-177v147h177v-147z" />
    <glyph glyph-name="uniFBE5" unicode="&#x6d0;" horiz-adv-x="1454" arabic-form="final" 
d="M613 -430h-176v148h176v-148zM613 -221h-176v147h176v-147zM1454 0q-188 0 -282 163q-56 151 -116 309t-170 157q-110 0 -110 -88q0 -47 82.5 -137t82.5 -178q-1 -124 -97 -184t-326 -60t-356 102t-125 277q0 65 17 170h160v-10q-20 -66 -20 -164q0 -99 80 -143t240 -44
q158 0 212 22q54 24 53.5 76t-83 139.5t-82.5 168.5q0 111 70.5 176t202.5 65q173 0 249 -163q52 -151 104 -303q67 -163 214 -163v-188z" />
    <glyph glyph-name="uni066E.medi" unicode="&#x649;" horiz-adv-x="600" arabic-form="initial" 
d="M502 270q0 -123 -106 -196.5t-288 -73.5h-108q-59 0 -103.5 51t-44.5 137h246q246 0 246 156v373h158v-447z" />
    <glyph glyph-name="uniFBFD" unicode="&#x6cc;" horiz-adv-x="1454" arabic-form="final" 
d="M1454 0q-204 0 -292 164q-40 74 -87 196.5t-87 157.5t-101 35q-111 0 -111 -88q0 -55 101 -155.5t101 -213.5q0 -264 -450 -264q-221 0 -356 122t-135 337q0 65 17 170h160v-10q-20 -66 -20 -158q0 -146 83 -209.5t253 -63.5q286 0 286 117q0 52 -89 142
q-113 111 -113 220.5t70 175.5t184 66t186 -44t135.5 -229t121.5 -232.5t143 -47.5v-188z" />
    <glyph glyph-name="uniFBFE" unicode="&#x6cc;" horiz-adv-x="600" arabic-form="initial" 
d="M502 270q0 -123 -106 -196.5t-288 -73.5h-108q-59 0 -103.5 51t-44.5 137h246q246 0 246 156v373h158v-447zM177 -293h-177v147h177v-147zM501 -293h-176v147h176v-147z" />
    <glyph glyph-name="uniFC5E" unicode="&#xfc5e;" arabic-form="isolated" 
d="M457 1765q0 54 -70 54t-70 -53.5t101 -73.5q39 33 39 73zM553 1459.5q0 -56.5 -42 -99.5t-119.5 -43t-105.5 43q-35 -80 -136 -80q-150 0 -150 125q0 29 5 78h84q-5 -34 -5 -74q0 -59 66 -59q84 0 84 114v52h83v-43q0 -87 76 -87t76 84q0 54 -7 76h86q5 -30 5 -86.5z
M234 1767q0 121 155 121q66 0 109 -33t43 -85t-49 -97l59 -6v-67l-117 24q-135 -71 -358 -90l18 188q2 25 -28 25l-66 -2v70l98 2q28 1 49 -15t20 -39l-12 -157q103 11 194 45q-115 30 -115 116z" />
    <glyph glyph-name="uniFC5F" unicode="&#xfc5f;" arabic-form="isolated" 
d="M583 1354l-516 -74v74l516 74v-74zM583 1504l-516 -74v74l516 73v-73zM601 1747q0 -59 -44.5 -100t-119.5 -41t-103 43q-35 -80 -136 -80q-150 0 -150 125q0 29 5 78h84q-5 -33 -5 -74q0 -59 66 -59q84 0 84 115v51h83v-43q0 -86 76 -86t76 84q0 53 -7 76h86q5 -30 5 -89
z" />
    <glyph glyph-name="uniFC60" unicode="&#xfc60;" arabic-form="isolated" 
d="M535 1614l-516 -74v74l516 74v-74zM553 1457.5q0 -58.5 -44.5 -99.5t-119.5 -41t-103 43q-35 -80 -136 -80q-150 0 -150 125q0 29 5 78h84q-5 -34 -5 -74q0 -59 66 -59q84 0 84 114v52h83v-43q0 -87 76 -87t76 84q0 54 -7 76h86q5 -30 5 -88.5z" />
    <glyph glyph-name="uniFC61" unicode="&#xfc61;" arabic-form="isolated" 
d="M408 1756q0 31 -21 47t-47 16q-72 0 -72 -52.5t100 -74.5q40 33 40 64zM185 1767q0 55 41.5 88t108.5 33t112 -34.5t45 -83t-47 -93.5l57 -10v-65l-113 22q-154 -77 -333 -86v70q120 2 242 45q-113 37 -113 114zM553 1457.5q0 -58.5 -44.5 -99.5t-119.5 -41t-103 43
q-35 -80 -136 -80q-150 0 -150 125q0 29 5 78h84q-5 -34 -5 -74q0 -59 66 -59q84 0 84 114v52h83v-43q0 -87 76 -87t76 84q0 54 -7 76h86q5 -30 5 -88.5z" />
    <glyph glyph-name="uniFC62" unicode="&#xfc62;" arabic-form="isolated" 
d="M535 1354l-516 -74v74l516 73v-73zM553 1597q0 -59 -44.5 -100t-119.5 -41t-103 43q-35 -80 -136 -80q-150 0 -150 125q0 29 5 78h84q-5 -33 -5 -74q0 -59 66 -59q84 0 84 115v51h83v-43q0 -86 76 -86t76 84q0 53 -7 76h86q5 -30 5 -89z" />
    <glyph glyph-name="uniFE82" unicode="&#x622;" horiz-adv-x="575" arabic-form="final" 
d="M575 0q-171 0 -266 87.5t-95 244.5v1224h157v-1212q0 -85 46 -120.5t153 -35.5h5v-188zM411 1637q-51 0 -124 22.5t-110 22.5t-126 -45v74q72 41 117.5 41t118.5 -22.5t118.5 -22.5t117.5 43v-74q-61 -39 -112 -39z" />
    <glyph glyph-name="uniFE84" unicode="&#x623;" horiz-adv-x="575" arabic-form="final" 
d="M575 0q-171 0 -266 87.5t-95 244.5v1224h157v-1212q0 -85 46 -120.5t153 -35.5h5v-188zM443 1610h-302v70h67q-52 24 -52 76t44 87t112 35t105 -12v-74q-43 17 -111 17t-69 -52q0 -32 40.5 -54.5t99.5 -22.5h66v-70z" />
    <glyph glyph-name="uniFE88" unicode="&#x625;" horiz-adv-x="575" arabic-form="final" 
d="M575 0q-171 0 -266 87.5t-95 244.5v1224h157v-1212q0 -85 46 -120.5t153 -35.5h5v-188zM443 -362h-302v70h67q-52 24 -52 76t44 87t112 35t105 -12v-74q-43 17 -111 17t-69 -52q0 -32 40.5 -54.5t99.5 -22.5h66v-70z" />
    <glyph glyph-name="uniFE8A" unicode="&#x626;" horiz-adv-x="1454" arabic-form="final" 
d="M1454 0q-204 0 -292 164q-40 74 -87 196.5t-87 157.5t-101 35q-111 0 -111 -88q0 -55 101 -155.5t101 -213.5q0 -264 -450 -264q-221 0 -356 122t-135 337q0 65 17 170h160v-10q-20 -66 -20 -158q0 -146 83 -209.5t253 -63.5q286 0 286 117q0 52 -89 142
q-113 111 -113 220.5t70 175.5t184 66t186 -44t135.5 -229t121.5 -232.5t143 -47.5v-188zM476 715h-302v70h67q-52 24 -52 76t44 87t112 35t105 -12v-74q-43 17 -111.5 17t-68.5 -52q0 -32 40.5 -54.5t99.5 -22.5h66v-70z" />
    <glyph glyph-name="uniFE8B" unicode="&#x626;" horiz-adv-x="600" arabic-form="initial" 
d="M502 270q0 -123 -106 -196.5t-288 -73.5h-108q-59 0 -103.5 51t-44.5 137h246q246 0 246 156v373h158v-447zM551 891h-302v70h67q-52 24 -52 76t44 87t112 35t105 -12v-74q-43 17 -111 17t-69 -52q0 -32 40.5 -54.5t99.5 -22.5h66v-70z" />
    <glyph glyph-name="uniFE8E" unicode="&#x627;" horiz-adv-x="575" arabic-form="final" 
d="M575 0q-171 0 -266 87.5t-95 244.5v1224h157v-1212q0 -85 46 -120.5t153 -35.5h5v-188z" />
    <glyph glyph-name="uniFE91" unicode="&#x628;" horiz-adv-x="600" arabic-form="initial" 
d="M502 270q0 -123 -106 -196.5t-288 -73.5h-108q-59 0 -103.5 51t-44.5 137h246q246 0 246 156v373h158v-447zM335 -293h-177v147h177v-147z" />
    <glyph glyph-name="uniFE94" unicode="&#x629;" horiz-adv-x="938" arabic-form="final" 
d="M244 555q0 -57 39 -88t97 -31q173 0 274 133v293q-194 -33 -302 -118t-108 -189zM938 0q-142 0 -213 79.5t-71 313.5q-41 -55 -119 -92t-155 -37q-129 0 -211.5 77.5t-82.5 218.5t152 268.5t416 168.5v72h157v-676q0 -111 30 -158t97 -47v-188zM423 1204h-177v147h177
v-147zM747 1204h-176v147h176v-147z" />
    <glyph glyph-name="uniFE97" unicode="&#x62a;" horiz-adv-x="600" arabic-form="initial" 
d="M502 270q0 -123 -106 -196.5t-288 -73.5h-108q-59 0 -103.5 51t-44.5 137h246q246 0 246 156v373h158v-447zM276 891h-177v147h177v-147zM600 891h-176v147h176v-147z" />
    <glyph glyph-name="uniFE9B" unicode="&#x62b;" horiz-adv-x="600" arabic-form="initial" 
d="M502 270q0 -123 -106 -196.5t-288 -73.5h-108q-59 0 -103.5 51t-44.5 137h246q246 0 246 156v373h158v-447zM245 891h-177v147h177v-147zM599 891h-177v147h177v-147zM422 1100h-177v147h177v-147z" />
    <glyph glyph-name="uniFE9E" unicode="&#x62c;" horiz-adv-x="1334" arabic-form="final" 
d="M1334 0h-39q-408 0 -408 319v211q-294 -26 -460.5 -134t-166.5 -278t148 -264t376 -94q322 0 516 111h13v-199q-193 -96 -509 -96t-508.5 146t-192.5 394t261 395.5t654 147.5q-315 113 -755 113h-94v186h106q225 0 487 -77t491 -211v-131q-173 0 -209 -2v-162
q0 -102 60 -144.5t186 -42.5h44v-188zM703 12h-177v147h177v-147z" />
    <glyph glyph-name="uniFE9F" unicode="&#x62c;" horiz-adv-x="1334" arabic-form="initial" 
d="M1236 184q-214 0 -628.5 -92t-607.5 -92q-59 0 -103.5 51t-44.5 137h155q172 0 527.5 80.5t487.5 87.5q-363 273 -783 273h-114v186h126q279 0 546 -144q166 -91 381 -258l52 -41h2l4 1v-189zM843 -244h-177v147h177v-147z" />
    <glyph glyph-name="uniFEA2" unicode="&#x62d;" horiz-adv-x="1334" arabic-form="final" 
d="M1334 0h-39q-408 0 -408 319v211q-294 -26 -460.5 -134t-166.5 -278t148 -264t376 -94q322 0 516 111h13v-199q-193 -96 -509 -96t-508.5 146t-192.5 394t261 395.5t654 147.5q-315 113 -755 113h-94v186h106q225 0 487 -77t491 -211v-131q-173 0 -209 -2v-162
q0 -102 60 -144.5t186 -42.5h44v-188z" />
    <glyph glyph-name="uniFEA3" unicode="&#x62d;" horiz-adv-x="1334" arabic-form="initial" 
d="M1236 184q-214 0 -628.5 -92t-607.5 -92q-59 0 -103.5 51t-44.5 137h155q172 0 527.5 80.5t487.5 87.5q-363 273 -783 273h-114v186h126q279 0 546 -144q166 -91 381 -258l52 -41h2l4 1v-189z" />
    <glyph glyph-name="uniFEA6" unicode="&#x62e;" horiz-adv-x="1334" arabic-form="final" 
d="M1334 0h-39q-408 0 -408 319v211q-294 -26 -460.5 -134t-166.5 -278t148 -264t376 -94q322 0 516 111h13v-199q-193 -96 -509 -96t-508.5 146t-192.5 394t261 395.5t654 147.5q-315 113 -755 113h-94v186h106q225 0 487 -77t491 -211v-131q-173 0 -209 -2v-162
q0 -102 60 -144.5t186 -42.5h44v-188zM923 1120h-177v147h177v-147z" />
    <glyph glyph-name="uniFEA7" unicode="&#x62e;" horiz-adv-x="1334" arabic-form="initial" 
d="M1236 184q-214 0 -628.5 -92t-607.5 -92q-59 0 -103.5 51t-44.5 137h155q172 0 527.5 80.5t487.5 87.5q-363 273 -783 273h-114v186h126q279 0 546 -144q166 -91 381 -258l52 -41h2l4 1v-189zM855 936h-177v147h177v-147z" />
    <glyph glyph-name="uniFEB3" unicode="&#x633;" horiz-adv-x="1487" arabic-form="initial" 
d="M1388 188q0 -188 -218 -188h-98q-176 0 -239 72q-63 -72 -238 -72t-239 72q-66 -72 -258 -72h-98q-59 0 -103.5 51t-44.5 137h246q179 0 179 134v100h157v-100q0 -134 160 -134t161 134v100h157v-100q0 -134 160 -134t159 80v367h157v-447z" />
    <glyph glyph-name="uniFEB7" unicode="&#x634;" horiz-adv-x="1487" arabic-form="initial" 
d="M1388 188q0 -188 -218 -188h-98q-176 0 -239 72q-63 -72 -238 -72t-239 72q-66 -72 -258 -72h-98q-59 0 -103.5 51t-44.5 137h246q179 0 179 134v100h157v-100q0 -134 160 -134t161 134v100h157v-100q0 -134 160 -134t159 80v367h157v-447zM671 717h-177v147h177v-147z
M1025 717h-177v147h177v-147zM848 926h-177v147h177v-147z" />
    <glyph glyph-name="uniFEBB" unicode="&#x635;" horiz-adv-x="2077" arabic-form="initial" 
d="M1438 188q195 0 314 34.5t119 88.5q0 132 -101.5 225t-209.5 93q-167 0 -332.5 -104t-369.5 -337h580zM1554 815q188 0 331 -162t143 -352q0 -138 -153 -219.5t-415 -81.5h-909q-181 0 -276 82q-90 -82 -275 -82q-59 0 -103.5 51t-44.5 137h153q192 0 192 191v10h157v-10
q0 -191 192 -191h115q280 327 492.5 477t400.5 150z" />
    <glyph glyph-name="uniFEBF" unicode="&#x636;" horiz-adv-x="2077" arabic-form="initial" 
d="M1438 188q195 0 314 34.5t119 88.5q0 132 -101.5 225t-209.5 93q-167 0 -332.5 -104t-369.5 -337h580zM1554 815q188 0 331 -162t143 -352q0 -138 -153 -219.5t-415 -81.5h-909q-181 0 -276 82q-90 -82 -275 -82q-59 0 -103.5 51t-44.5 137h153q192 0 192 191v10h157v-10
q0 -191 192 -191h115q280 327 492.5 477t400.5 150zM1610 958h-177v147h177v-147z" />
    <glyph glyph-name="uniFECA" unicode="&#x639;" horiz-adv-x="1114" arabic-form="final" 
d="M811 686q0 46 -69 73t-172.5 27t-168 -26.5t-64.5 -64t46.5 -89t157.5 -151.5q144 81 207 133t63 98zM1114 0h-26q-231 0 -574 295q-130 -81 -192 -145t-62 -148q0 -106 115 -173t267 -67q223 0 434 129h12v-213q-196 -102 -431 -102t-394.5 123t-159.5 303
q0 117 73.5 199.5t238.5 181.5q-144 131 -199.5 203t-55.5 153q0 108 117 173t292 65t291 -64.5t116 -169t-62 -178.5t-276 -196q138 -115 230 -148t201 -33h45v-188z" />
    <glyph glyph-name="uniFECB" unicode="&#x639;" horiz-adv-x="1334" arabic-form="initial" 
d="M293 0h-293q-59 0 -103.5 51t-44.5 137h488q-108 49 -171 142t-63 186q0 197 134 309.5t353 112.5q287 0 481 -82v-213h-12q-192 113 -460 113q-164 0 -251.5 -71t-87.5 -171q0 -147 119.5 -224t165 -77t247.5 46.5t419 113.5v-189q-590 -184 -921 -184z" />
    <glyph glyph-name="uniFECC" unicode="&#x639;" horiz-adv-x="964" arabic-form="medial" 
d="M732 559q0 84 -250 84t-250 -84q0 -51 68 -126.5t181 -143.5q114 68 182.5 143.5t68.5 126.5zM964 0h-99q-174 0 -384 115q-209 -115 -383 -115h-98q-59 0 -103.5 51t-44.5 137h246q125 0 228 33q-253 200 -253 371q0 116 112.5 179t296.5 63t295.5 -63t111.5 -179
q0 -171 -253 -371q104 -33 229 -33h99v-188z" />
    <glyph glyph-name="uniFECE" unicode="&#x63a;" horiz-adv-x="1114" arabic-form="final" 
d="M811 686q0 46 -69 73t-172.5 27t-168 -26.5t-64.5 -64t46.5 -89t157.5 -151.5q144 81 207 133t63 98zM1114 0h-26q-231 0 -574 295q-130 -81 -192 -145t-62 -148q0 -106 115 -173t267 -67q223 0 434 129h12v-213q-196 -102 -431 -102t-394.5 123t-159.5 303
q0 117 73.5 199.5t238.5 181.5q-144 131 -199.5 203t-55.5 153q0 108 117 173t292 65t291 -64.5t116 -169t-62 -178.5t-276 -196q138 -115 230 -148t201 -33h45v-188zM656 1151h-177v147h177v-147z" />
    <glyph glyph-name="uniFECF" unicode="&#x63a;" horiz-adv-x="1334" arabic-form="initial" 
d="M293 0h-293q-59 0 -103.5 51t-44.5 137h488q-108 49 -171 142t-63 186q0 197 134 309.5t353 112.5q287 0 481 -82v-213h-12q-192 113 -460 113q-164 0 -251.5 -71t-87.5 -171q0 -147 119.5 -224t165 -77t247.5 46.5t419 113.5v-189q-590 -184 -921 -184zM691 1112h-177
v147h177v-147z" />
    <glyph glyph-name="uniFED0" unicode="&#x63a;" horiz-adv-x="964" arabic-form="medial" 
d="M732 559q0 84 -250 84t-250 -84q0 -51 68 -126.5t181 -143.5q114 68 182.5 143.5t68.5 126.5zM964 0h-99q-174 0 -384 115q-209 -115 -383 -115h-98q-59 0 -103.5 51t-44.5 137h246q125 0 228 33q-253 200 -253 371q0 116 112.5 179t296.5 63t295.5 -63t111.5 -179
q0 -171 -253 -371q104 -33 229 -33h99v-188zM571 1008h-177v147h177v-147z" />
    <glyph glyph-name="uniFED3" unicode="&#x641;" horiz-adv-x="713" arabic-form="initial" 
d="M364.5 934q-51.5 0 -101 -54t-49.5 -130q0 -140 184 -140q81 0 132 37q0 112 -57 199.5t-108.5 87.5zM378.5 426q-118.5 0 -216.5 85.5t-98 234t99 260.5t201 112q135 0 232.5 -163.5t97.5 -428.5t-127 -395.5t-363 -130.5h-204q-59 0 -103.5 51t-44.5 137h354
q143 0 241.5 76.5t98.5 202.5q-49 -41 -167.5 -41zM414 1292h-177v147h177v-147z" />
    <glyph glyph-name="uniFED4" unicode="&#x641;" horiz-adv-x="727" arabic-form="medial" 
d="M502 506q0 59 -37.5 98t-101 39t-100.5 -39t-37 -98q0 -131 138 -240q138 109 138 240zM727 0h-49q-144 0 -314 100q-171 -100 -315 -100h-49q-59 0 -103.5 51t-44.5 137h246q65 0 134 17q-164 167 -164 310.5t83 231t212.5 87.5t212.5 -87.5t83 -231t-162 -310.5
q67 -17 132 -17h98v-188zM452 1008h-177v147h177v-147z" />
    <glyph glyph-name="uniFED7" unicode="&#x642;" horiz-adv-x="713" arabic-form="initial" 
d="M364.5 934q-51.5 0 -101 -54t-49.5 -130q0 -140 184 -140q81 0 132 37q0 112 -57 199.5t-108.5 87.5zM378.5 426q-118.5 0 -216.5 85.5t-98 234t99 260.5t201 112q135 0 232.5 -163.5t97.5 -428.5t-127 -395.5t-363 -130.5h-204q-59 0 -103.5 51t-44.5 137h354
q143 0 241.5 76.5t98.5 202.5q-49 -41 -167.5 -41zM276 1292h-177v147h177v-147zM600 1292h-176v147h176v-147z" />
    <glyph glyph-name="uniFED8" unicode="&#x642;" horiz-adv-x="727" arabic-form="medial" 
d="M502 506q0 59 -37.5 98t-101 39t-100.5 -39t-37 -98q0 -131 138 -240q138 109 138 240zM727 0h-49q-144 0 -314 100q-171 -100 -315 -100h-49q-59 0 -103.5 51t-44.5 137h246q65 0 134 17q-164 167 -164 310.5t83 231t212.5 87.5t212.5 -87.5t83 -231t-162 -310.5
q67 -17 132 -17h98v-188zM290 1008h-177v147h177v-147zM614 1008h-176v147h176v-147z" />
    <glyph glyph-name="uniFEDB" unicode="&#x643;" horiz-adv-x="968" arabic-form="initial" 
d="M234 975q0 -56 110 -144l339 -268q152 -120 194 -180.5t42 -118.5q0 -264 -425 -264h-494q-59 0 -103.5 51t-44.5 137h640q128 0 178 25t50 73.5t-46 92t-195 160.5l-348 274q-126 101 -126 197q0 52 49 95t211 124l605 301v-197l-506 -250q-50 -20 -90 -53t-40 -55z" />
    <glyph glyph-name="uniFEDE" unicode="&#x644;" horiz-adv-x="1253" arabic-form="final" 
d="M1156 248q0 -453 -546 -453q-294 0 -427.5 106.5t-133.5 336.5q0 123 24 251h166v-10q-33 -113 -33 -248t92 -191t314 -56q385 0 385 276v1296h159v-1308z" />
    <glyph glyph-name="uniFEDF" unicode="&#x644;" horiz-adv-x="530" arabic-form="initial" 
d="M432 270q0 -123 -105 -196.5t-287 -73.5h-40q-59 0 -103.5 51t-44.5 137h178q245 0 245 156v1212h157v-1286z" />
    <glyph glyph-name="uniFEE0" unicode="&#x644;" horiz-adv-x="530" arabic-form="medial" 
d="M432 270q0 -123 -105 -196.5t-287 -73.5h-40q-59 0 -103.5 51t-44.5 137h178q245 0 245 156v1212h157v-1286z" />
    <glyph glyph-name="uniFEE3" unicode="&#x645;" horiz-adv-x="964" arabic-form="initial" 
d="M542 168q104 0 159.5 48.5t55.5 130.5t-69.5 158.5t-185.5 76.5q-202 0 -202 -193q0 -87 69 -154t173 -67zM-148 188h104q112 0 144.5 54t42.5 174q25 356 331 356q192 0 316 -119.5t124 -297.5t-93.5 -274.5t-255.5 -96.5q-199 0 -321 157q-53 -91 -97 -116t-125 -25
h-22q-59 0 -103.5 51t-44.5 137z" />
    <glyph glyph-name="uniFEE7" unicode="&#x646;" horiz-adv-x="600" arabic-form="initial" 
d="M502 270q0 -123 -106 -196.5t-288 -73.5h-108q-59 0 -103.5 51t-44.5 137h246q246 0 246 156v373h158v-447zM428 891h-177v147h177v-147z" />
    <glyph glyph-name="uniFEEA" unicode="&#x647;" horiz-adv-x="938" arabic-form="final" 
d="M244 555q0 -57 39 -88t97 -31q173 0 274 133v293q-194 -33 -302 -118t-108 -189zM938 0q-142 0 -213 79.5t-71 313.5q-41 -55 -119 -92t-155 -37q-129 0 -211.5 77.5t-82.5 218.5t152 268.5t416 168.5v72h157v-676q0 -111 30 -158t97 -47v-188z" />
    <glyph glyph-name="uniFEF0" unicode="&#x649;" horiz-adv-x="1454" arabic-form="final" 
d="M1454 0q-204 0 -292 164q-40 74 -87 196.5t-87 157.5t-101 35q-111 0 -111 -88q0 -55 101 -155.5t101 -213.5q0 -264 -450 -264q-221 0 -356 122t-135 337q0 65 17 170h160v-10q-20 -66 -20 -158q0 -146 83 -209.5t253 -63.5q286 0 286 117q0 52 -89 142
q-113 111 -113 220.5t70 175.5t184 66t186 -44t135.5 -229t121.5 -232.5t143 -47.5v-188z" />
    <glyph glyph-name="uniFEF2" unicode="&#x64a;" horiz-adv-x="1454" arabic-form="final" 
d="M480 -424h-178v147h178v-147zM804 -424h-176v147h176v-147zM1454 0q-204 0 -292 164q-40 74 -87 196.5t-87 157.5t-101 35q-111 0 -111 -88q0 -55 101 -155.5t101 -213.5q0 -264 -450 -264q-221 0 -356 122t-135 337q0 65 17 170h160v-10q-20 -66 -20 -158
q0 -146 83 -209.5t253 -63.5q286 0 286 117q0 52 -89 142q-113 111 -113 220.5t70 175.5t184 66t186 -44t135.5 -229t121.5 -232.5t143 -47.5v-188z" />
    <glyph glyph-name="uniFEF3" unicode="&#x64a;" horiz-adv-x="600" arabic-form="initial" 
d="M502 270q0 -123 -106 -196.5t-288 -73.5h-108q-59 0 -103.5 51t-44.5 137h246q246 0 246 156v373h158v-447zM177 -293h-177v147h177v-147zM501 -293h-176v147h176v-147z" />
    <glyph glyph-name=".notdef" horiz-adv-x="1322" 
d="M314 148h694v1102h-694v-1102zM166 0v1398h990v-1398h-990z" />
    <glyph glyph-name=".null" 
 />
    <glyph glyph-name="nonmarkingreturn" horiz-adv-x="100" 
 />
    <glyph glyph-name="null" unicode="&#xd;" 
 />
    <glyph glyph-name="space" unicode=" " horiz-adv-x="565" 
 />
    <glyph glyph-name="exclam" unicode="!" horiz-adv-x="670" 
d="M336 -23q-80 0 -132 48.5t-52 118.5t52 116.5t132 46.5t131 -46.5t51 -118.5t-51 -118.5t-131 -46.5zM500 1434l-39 -988h-256l-37 988h332z" />
    <glyph glyph-name="quotedbl" unicode="&#x22;" horiz-adv-x="1010" 
d="M438 1452l-30 -442h-203l-29 442h262zM834 1452l-31 -444h-201l-31 444h263z" />
    <glyph glyph-name="numbersign" unicode="#" horiz-adv-x="1213" 
d="M750 889h-232l-55 -248h231zM1176 1069l-39 -180h-185l-55 -248h207l-45 -180h-199l-78 -346h-200l73 346h-229l-74 -346h-200l71 346h-186l37 180h188l53 248h-202l34 180h205l74 356h205l-74 -356h229l76 356h203l-74 -356h185z" />
    <glyph glyph-name="dollar" unicode="$" horiz-adv-x="1178" 
d="M817 385q0 98 -143 160v-303q143 22 143 143zM389 1055q0 -103 139 -172v317q-139 -25 -139 -145zM674 -209h-146v211q-203 1 -378 92v277q58 -47 173 -87t205 -46v364q-234 87 -319.5 188.5t-85.5 253.5t111 262t294 128v186h146v-182q211 -10 315 -68v-270
q-140 85 -315 104v-379q219 -79 314 -180.5t95 -256.5t-106 -256.5t-303 -123.5v-217z" />
    <glyph glyph-name="percent" unicode="%" horiz-adv-x="1776" 
d="M1339 551q-145 1 -145 -197t142 -198t141 200q0 93 -38 144t-100 51zM1329 -20q-159 0 -252.5 97t-93.5 269t99.5 276.5t262.5 104.5t252 -94.5t89 -268.5t-99 -279t-258 -105zM1477 1434l-934 -1434h-244l932 1434h246zM449 1278q-146 0 -146 -198q1 -198 141 -197
q140 -1 140 197t-135 198zM436 707q-159 0 -252.5 96.5t-93.5 268.5t100 277t262 105t251.5 -95t89.5 -269t-99 -278.5t-258 -104.5z" />
    <glyph glyph-name="ampersand" unicode="&#x26;" horiz-adv-x="1740" 
d="M817 1124q0 85 -54 104t-84 19q-61 0 -104.5 -36t-43.5 -92t35 -103t87 -76q164 60 164 184zM635 216q195 0 364 138q-130 204 -238 264t-157 82q-96 -47 -152.5 -110t-56.5 -160t66 -155.5t174 -58.5zM1479 -23q-179 0 -343 178q-220 -178 -520 -178q-243 0 -392 114.5
t-149 324.5q0 284 347 414q-175 135 -175 294t119.5 246.5t309.5 87.5t305.5 -86.5t115.5 -225.5q0 -218 -254 -325q202 -93 339 -300q153 192 153 462q0 81 -19 138h269q21 -61 21 -133q0 -372 -283 -664q102 -106 204 -106t180 40v-238q-108 -43 -228 -43z" />
    <glyph glyph-name="quotesingle" unicode="'" horiz-adv-x="600" 
d="M430 1452l-31 -442h-200l-29 442h260z" />
    <glyph glyph-name="parenleft" unicode="(" horiz-adv-x="756" 
d="M158 540q0 510 323 894h256q-303 -402 -303 -885t305 -875h-258q-323 356 -323 866z" />
    <glyph glyph-name="parenleft" unicode="&#xfd3e;" horiz-adv-x="756" 
d="M158 540q0 510 323 894h256q-303 -402 -303 -885t305 -875h-258q-323 356 -323 866z" />
    <glyph glyph-name="parenright" unicode=")" horiz-adv-x="756" 
d="M324 547q0 483 -306 887h258q324 -384 324 -892t-326 -868h-256q306 390 306 873z" />
    <glyph glyph-name="parenright" unicode="&#xfd3f;" horiz-adv-x="756" 
d="M324 547q0 483 -306 887h258q324 -384 324 -892t-326 -868h-256q306 390 306 873z" />
    <glyph glyph-name="asterisk" unicode="*" horiz-adv-x="932" 
d="M864 1053l-274 -37l196 -211l-182 -125l-137 254l-137 -254l-183 125l197 211l-274 37l71 202l252 -108l-43 287h234l-43 -287l250 108z" />
    <glyph glyph-name="plus" unicode="+" horiz-adv-x="1448" 
d="M1212 485h-385v-385h-202v385h-387v203h387v387h202v-387h385v-203z" />
    <glyph glyph-name="comma" unicode="," horiz-adv-x="555" 
d="M432 252l-147 -506h-246l102 506h291z" />
    <glyph glyph-name="hyphen" unicode="-" horiz-adv-x="828" 
d="M690 436h-547v221h547v-221z" />
    <glyph glyph-name="period" unicode="." horiz-adv-x="555" 
d="M277 -25q-81 0 -133 48t-52 119t54 117t134 46t131.5 -46.5t51.5 -118.5t-52.5 -118.5t-133.5 -46.5z" />
    <glyph glyph-name="slash" unicode="/" horiz-adv-x="908" 
d="M932 1434l-699 -1672h-282l696 1672h285z" />
    <glyph glyph-name="zero" unicode="0" horiz-adv-x="1178" 
d="M596 1217q-205 0 -205 -500t201 -500q196 0 196 500t-192 500zM582 -25q-512 0 -512 719q0 373 138.5 568.5t401.5 195.5q500 0 500 -731q0 -364 -136.5 -558t-391.5 -194z" />
    <glyph glyph-name="one" unicode="1" horiz-adv-x="1178" 
d="M1077 0h-907v250h297v893l-305 -66v256l620 125v-1208h295v-250z" />
    <glyph glyph-name="two" unicode="2" horiz-adv-x="1178" 
d="M471 262h582v-262h-944v246l411 393q124 119 174.5 199.5t50.5 169.5q0 198 -213 198q-185 0 -354 -147v278q186 121 414 121t351.5 -110.5t123.5 -298.5q0 -251 -301 -519l-295 -262v-6z" />
    <glyph glyph-name="three" unicode="3" horiz-adv-x="1178" 
d="M483 217q121 0 188.5 52.5t67.5 146.5t-83.5 146t-229.5 52h-129v242h119q280 0 280 186q0 175 -215 175q-144 0 -280 -93v258q151 76 361 76t333 -99t123 -257q0 -281 -285 -352v-5q152 -19 240 -110.5t88 -224.5q0 -201 -147.5 -318t-387.5 -117t-379 72v275
q144 -105 336 -105z" />
    <glyph glyph-name="four" unicode="4" horiz-adv-x="1178" 
d="M664 530v451q0 60 4 137h-6q-14 -36 -54 -112l-307 -476h363zM1124 305h-172v-305h-288v305h-625v201l602 928h311v-904h172v-225z" />
    <glyph glyph-name="five" unicode="5" horiz-adv-x="1178" 
d="M456 217q146 0 216.5 59.5t70.5 161.5q0 213 -301 213q-98 0 -237 -18v801h794v-258h-524v-287q63 6 119 6q221 0 346 -116.5t125 -322.5t-149 -343.5t-404 -137.5q-207 0 -348 62v270q146 -90 292 -90z" />
    <glyph glyph-name="six" unicode="6" horiz-adv-x="1178" 
d="M612 688q-87 0 -138.5 -61t-51.5 -161t52.5 -174.5t138.5 -74.5t137 66.5t51 173.5q0 231 -189 231zM755 1217q-144 0 -241.5 -121.5t-101.5 -325.5h6q103 152 292 152t294.5 -122t105.5 -330t-140 -351.5t-369 -143.5t-365 175t-136 491q0 372 175 594.5t475 222.5
q166 0 258 -39v-264q-109 62 -253 62z" />
    <glyph glyph-name="seven" unicode="7" horiz-adv-x="1178" 
d="M96 1176v258h998v-146l-506 -1288h-334l510 1176h-668z" />
    <glyph glyph-name="eight" unicode="8" horiz-adv-x="1178" 
d="M381 383q0 -78 61.5 -129t153.5 -51t149.5 50t57.5 132q0 164 -221 240q-201 -79 -201 -242zM768 1071q0 73 -46.5 116.5t-122.5 43.5t-125.5 -45.5t-49.5 -116.5q0 -134 172 -203q172 71 172 205zM125 1077q0 166 132 273.5t343 107.5t338 -100.5t127 -259.5
q0 -235 -272 -346v-4q146 -43 226.5 -141.5t80.5 -221.5q0 -190 -140.5 -300t-375.5 -110t-368.5 107.5t-133.5 284.5q0 257 289 378v5q-246 101 -246 327z" />
    <glyph glyph-name="nine" unicode="9" horiz-adv-x="1178" 
d="M576 1217q-83 0 -136 -66.5t-53 -173.5t52.5 -169.5t138.5 -62.5t138 59.5t52 161.5t-54.5 176.5t-137.5 74.5zM436 217q162 0 252.5 112.5t91.5 319.5l-6 2q-95 -141 -280 -141t-300.5 123t-115.5 335t141 351t368 139t363.5 -174t136.5 -498q0 -384 -164.5 -597.5
t-459.5 -213.5q-175 0 -303 56v260q114 -74 276 -74z" />
    <glyph glyph-name="colon" unicode=":" horiz-adv-x="555" 
d="M277 -25q-81 0 -133 48t-52 119t54 117t134 46t131.5 -46.5t51.5 -118.5t-52.5 -118.5t-133.5 -46.5zM277 707q-81 0 -133 47.5t-52 118.5t54 117t134 46t131.5 -46.5t51.5 -118.5t-52.5 -118t-133.5 -46z" />
    <glyph glyph-name="semicolon" unicode=";" horiz-adv-x="555" 
d="M432 252l-147 -506h-246l102 506h291zM284 707q-82 0 -134 48t-52 119t53 116.5t133 45.5t131.5 -46.5t51.5 -118.5t-50.5 -118t-132.5 -46z" />
    <glyph glyph-name="less" unicode="&#x3c;" horiz-adv-x="1448" 
d="M1192 63l-934 426v162l934 447v-238l-666 -285v-6l666 -268v-238z" />
    <glyph glyph-name="equal" unicode="=" horiz-adv-x="1448" 
d="M1212 266h-974v203h974v-203zM1212 700h-974v205h974v-205z" />
    <glyph glyph-name="greater" unicode="&#x3e;" horiz-adv-x="1448" 
d="M1192 502l-934 -426v237l668 267v4l-668 286v238l934 -444v-162z" />
    <glyph glyph-name="question" unicode="?" horiz-adv-x="897" 
d="M408.5 -23q-79.5 0 -132.5 49t-53 118t52.5 116t132.5 47q80 -1 132 -47t52 -118t-52 -118q-52 -47 -131.5 -47zM242 525q0 169 126 275q100 83 136.5 133.5t36.5 100.5q0 82 -43.5 122t-114.5 40q-172 0 -321 -131v301q154 92 356 92q309 0 374 -133t65 -211
q0 -132 -50 -214t-146 -161q-95 -79 -127 -123.5t-32 -104.5q0 -59 24 -96h-263q-21 54 -21 110z" />
    <glyph glyph-name="at" unicode="@" horiz-adv-x="1954" 
d="M989 899q-90 0 -146.5 -102.5t-56.5 -218.5t38.5 -169t99.5 -53q94 0 148 101t54 270q0 80 -37.5 126t-99.5 46zM862 180q-138 0 -222.5 100t-84.5 277q0 229 117 372.5t274 143.5t195 -117h4l10 99h225q-45 -425 -45 -561t78 -136t130 106t52 277q0 234 -149.5 383.5
t-425.5 149.5t-465.5 -200t-189.5 -482t167.5 -442t462.5 -160q225 0 412 86v-191q-171 -73 -440 -73q-369 0 -600.5 212t-231.5 572t247.5 608t621.5 248t596.5 -192.5t222.5 -507.5q0 -259 -136 -415.5t-337 -156.5q-99 0 -161 53t-67 138h-6q-70 -191 -254 -191z" />
    <glyph glyph-name="A" unicode="A" horiz-adv-x="1440" 
d="M897 567l-154 482q-17 54 -24 129h-8q-5 -63 -25 -125l-156 -486h367zM1425 0h-352l-102 319h-510l-101 -319h-350l522 1434h383z" />
    <glyph glyph-name="B" unicode="B" horiz-adv-x="1313" 
d="M487 616v-378h175q112 0 175.5 52t63.5 140t-62.5 137t-174.5 49h-177zM487 1196v-340h142q100 0 157.5 48.5t57.5 133.5q0 158 -236 158h-121zM164 0v1434h522q240 0 369 -88t129 -248q0 -116 -78.5 -203t-200.5 -121v-4q153 -19 244.5 -113t91.5 -229
q0 -197 -141 -312.5t-385 -115.5h-551z" />
    <glyph glyph-name="C" unicode="C" horiz-adv-x="1278" 
d="M782 -25q-330 0 -519 194t-189 527.5t212.5 547.5t551.5 214q210 0 354 -53v-311q-144 86 -337 86t-317 -127t-124 -339.5t117 -336t310.5 -123.5t350.5 92v-295q-157 -76 -410 -76z" />
    <glyph glyph-name="D" unicode="D" horiz-adv-x="1510" 
d="M487 1171v-909h160q210 0 329.5 126t119.5 337t-118.5 328.5t-332.5 117.5h-158zM164 0v1434h508q764 0 764 -699q0 -335 -208.5 -535t-555.5 -200h-508z" />
    <glyph glyph-name="E" unicode="E" horiz-adv-x="1090" 
d="M1024 0h-860v1434h827v-263h-504v-319h469v-262h-469v-328h537v-262z" />
    <glyph glyph-name="F" unicode="F" horiz-adv-x="1065" 
d="M993 1171h-506v-352h465v-262h-465v-557h-323v1434h829v-263z" />
    <glyph glyph-name="G" unicode="G" horiz-adv-x="1456" 
d="M802 -25q-329 0 -528.5 191.5t-199.5 528.5t218 550t580 213q228 0 402 -63v-303q-166 96 -406 96q-201 0 -327.5 -130.5t-126.5 -350t113.5 -340.5t306.5 -121q116 0 184 33v280h-287v258h610v-721q-210 -121 -539 -121z" />
    <glyph glyph-name="H" unicode="H" horiz-adv-x="1569" 
d="M1405 0h-324v584h-594v-584h-323v1434h323v-572h594v572h324v-1434z" />
    <glyph glyph-name="I" unicode="I" horiz-adv-x="649" 
d="M607 1434v-250h-120v-934h120v-250h-563v250h120v934h-120v250h563z" />
    <glyph glyph-name="J" unicode="J" horiz-adv-x="912" 
d="M762 569q0 -288 -133.5 -441t-386.5 -153q-113 0 -209 39v303q83 -63 186 -63q221 0 221 328v852h322v-865z" />
    <glyph glyph-name="K" unicode="K" horiz-adv-x="1329" 
d="M487 702v-702h-323v1434h323v-678h5q12 28 40 80l396 598h385l-500 -684l543 -750h-408l-418 623q-12 18 -38 79h-5z" />
    <glyph glyph-name="L" unicode="L" horiz-adv-x="1047" 
d="M1018 0h-854v1434h323v-1172h531v-262z" />
    <glyph glyph-name="M" unicode="M" horiz-adv-x="1960" 
d="M1798 0h-319v858q0 139 12 307h-8q-25 -132 -45 -190l-336 -975h-264l-342 965q-14 39 -45 200h-9q13 -212 13 -372v-793h-291v1434h473l293 -850q35 -102 51 -205h6q27 119 57 207l293 848h461v-1434z" />
    <glyph glyph-name="N" unicode="N" horiz-adv-x="1618" 
d="M1454 0h-326l-591 901q-52 79 -72 119h-4q8 -76 8 -232v-788h-305v1434h348l569 -873q39 -59 72 -117h4q-8 50 -8 197v793h305v-1434z" />
    <glyph glyph-name="O" unicode="O" horiz-adv-x="1553" 
d="M781.5 1180q-167.5 0 -267.5 -127.5t-100 -339t100 -335.5t264.5 -124t262.5 120.5t98 339t-95 342.5t-262.5 124zM774 -25q-312 0 -506 200.5t-194 531.5t197 541t513 210t505.5 -201t189.5 -534.5t-196.5 -540.5t-508.5 -207z" />
    <glyph glyph-name="P" unicode="P" horiz-adv-x="1258" 
d="M487 1186v-447h127q258 0 258 226q0 221 -258 221h-127zM487 494v-494h-323v1434h506q542 0 542 -457q0 -216 -155.5 -349.5t-415.5 -133.5h-154z" />
    <glyph glyph-name="Q" unicode="Q" horiz-adv-x="1553" 
d="M1374 -433q-114 0 -196.5 32t-158 87.5t-147 130.5t-148.5 161q-290 8 -470 212.5t-180 526.5t196.5 531.5t513 209.5t506 -201t189.5 -530q0 -257 -116 -441t-323 -259q143 -154 291 -178q50 -8 120.5 -8t132.5 25v-272q-96 -27 -210 -27zM778.5 254q165.5 0 263 121
t97.5 338t-94 342t-262 125t-268.5 -127.5t-100.5 -338.5t99 -336q100 -124 265.5 -124z" />
    <glyph glyph-name="R" unicode="R" horiz-adv-x="1337" 
d="M487 1192v-399h140q104 0 167.5 60.5t63.5 150.5q0 188 -225 188h-146zM574 549h-87v-549h-323v1434h512q522 0 522 -390q0 -146 -86 -251t-236 -148v-4q102 -32 220 -217l271 -424h-371l-223 369q-54 91 -99 136q-44 44 -100 44z" />
    <glyph glyph-name="S" unicode="S" horiz-adv-x="1148" 
d="M493 229q178 -1 228 87q15 26 15 64q0 70 -90 130q-62 42 -225 109q-329 136 -329 413q0 213 159 319.5t389 106.5t373 -55v-299q-144 100 -326.5 100t-237.5 -86q-17 -26 -17 -60q0 -64 66 -112.5t179 -94.5q211 -87 305 -185.5t94 -262.5q0 -223 -169 -333
q-146 -94 -399.5 -94.5t-409.5 79.5v320q174 -146 395 -146z" />
    <glyph glyph-name="T" unicode="T" horiz-adv-x="1200" 
d="M1171 1171h-409v-1171h-324v1171h-407v263h1140v-263z" />
    <glyph glyph-name="U" unicode="U" horiz-adv-x="1481" 
d="M1333 621q0 -646 -602 -646q-584 0 -584 631v828h324v-832q0 -348 272 -348q267 0 267 336v844h323v-813z" />
    <glyph glyph-name="V" unicode="V" horiz-adv-x="1366" 
d="M1358 1434l-494 -1434h-366l-488 1434h348l299 -998q24 -81 29 -143h6q7 67 31 147l297 994h338z" />
    <glyph glyph-name="W" unicode="W" horiz-adv-x="2058" 
d="M2040 1434l-379 -1434h-358l-238 920q-19 72 -23 161h-4q-9 -98 -26 -161l-244 -920h-373l-377 1434h353l202 -955q13 -61 19 -164h6q4 77 29 168l260 951h346l235 -963q13 -53 23 -154h4q4 79 21 160l198 957h326z" />
    <glyph glyph-name="X" unicode="X" horiz-adv-x="1342" 
d="M1335 0h-383l-247 467q-14 26 -29 96h-4q-7 -33 -33 -100l-248 -463h-385l457 717l-418 717h393l205 -430q24 -51 43 -121h4q12 42 45 125l228 426h360l-430 -711z" />
    <glyph glyph-name="Y" unicode="Y" horiz-adv-x="1243" 
d="M778 0h-323v504l-455 930h369l231 -535q6 -15 33 -117h4q13 72 31 113l235 539h342l-467 -924v-510z" />
    <glyph glyph-name="Z" unicode="Z" horiz-adv-x="1243" 
d="M1196 0h-1155v186l735 985h-682v263h1100v-181l-719 -991h721v-262z" />
    <glyph glyph-name="bracketleft" unicode="[" horiz-adv-x="756" 
d="M686 -326h-469v1760h469v-201h-209v-1358h209v-201z" />
    <glyph glyph-name="backslash" unicode="\" horiz-adv-x="893" 
d="M961 -238h-279l-682 1672h281z" />
    <glyph glyph-name="bracketright" unicode="]" horiz-adv-x="756" 
d="M541 -326h-471v201h211v1358h-211v201h471v-1760z" />
    <glyph glyph-name="asciicircum" unicode="^" horiz-adv-x="1448" 
d="M1249 610h-243l-287 586h-4l-271 -586h-241l430 848h162z" />
    <glyph glyph-name="underscore" unicode="_" horiz-adv-x="850" 
d="M850 -297h-850v119h850v-119z" />
    <glyph glyph-name="grave" unicode="`" horiz-adv-x="643" 
d="M596 1186h-227l-314 323h281z" />
    <glyph glyph-name="a" unicode="a" horiz-adv-x="1102" 
d="M688 416v69l-186 -24q-154 -20 -154 -139q0 -54 38 -88t114 -34.5t132 61t56 155.5zM985 0h-299v147h-4q-103 -172 -305 -172q-149 0 -234.5 84.5t-85.5 225.5q0 298 353 344l278 37q0 168 -182 168t-348 -109v238q66 34 180.5 60t208.5 26q438 0 438 -437v-612z" />
    <glyph glyph-name="b" unicode="b" horiz-adv-x="1270" 
d="M444 551v-105q0 -99 57 -164t155.5 -65t158 83.5t59.5 223.5t-54.5 211.5t-152.5 71.5t-160.5 -71t-62.5 -185zM449 119v-119h-316v1516h316v-646h4q117 179 324 179t314 -136t107 -382t-125 -401t-324 -155t-296 144h-4z" />
    <glyph glyph-name="c" unicode="c" horiz-adv-x="983" 
d="M583 -25q-219 0 -365 143t-146 386.5t156.5 394t418.5 150.5q181 0 262 -48v-268q-99 74 -228 74t-208.5 -79.5t-79.5 -217.5t76 -215.5t201.5 -77.5t238.5 74v-254q-107 -62 -326 -62z" />
    <glyph glyph-name="d" unicode="d" horiz-adv-x="1268" 
d="M825 498v77q0 100 -58 166t-157 66t-158 -82.5t-59 -222.5t57 -212q58 -72 156 -72.5t158.5 76.5t60.5 204zM1135 0h-316v141h-4q-109 -166 -309 -166t-317 135.5t-117 383.5t129 401.5t333 153.5t281 -142h4v609h316v-1516z" />
    <glyph glyph-name="e" unicode="e" horiz-adv-x="1108" 
d="M760 616q0 220 -178 220q-76 0 -131.5 -63t-67.5 -157h377zM1053 422h-668q16 -223 281 -223q169 0 297 80v-228q-141 -76 -379 -76t-375 137.5t-137 387.5t148 399.5t368 149.5t342.5 -133t122.5 -361v-133z" />
    <glyph glyph-name="f" unicode="f" horiz-adv-x="785" 
d="M684 1298q-152 0 -152 -165v-109h234v-233h-234v-791h-315v791h-172v233h172v127q0 175 114 282t310 107q96 0 160 -20v-246q-61 24 -117 24z" />
    <glyph glyph-name="g" unicode="g" horiz-adv-x="1268" 
d="M825 492v81q0 97 -57.5 165.5t-155.5 68.5t-158 -82q-60 -83 -60.5 -221t56.5 -212q58 -74 156 -74.5t158.5 75t60.5 199.5zM1137 117q0 -285 -165 -441.5t-478 -156.5q-207 0 -328 59v266q158 -92 318 -92t248.5 84.5t88.5 229.5v81h-4q-107 -172 -311 -172t-319 138
t-115 384t128 399t326 153t291 -144h4v119h316v-907z" />
    <glyph glyph-name="h" unicode="h" horiz-adv-x="1233" 
d="M1116 0h-315v582q0 225 -164 225q-84 0 -136 -63t-52 -160v-584h-316v1516h316v-644h4q116 177 315 177q348 0 348 -420v-629z" />
    <glyph glyph-name="i" unicode="i" horiz-adv-x="582" 
d="M449 0h-316v1024h316v-1024zM293.5 1186q-80.5 0 -131.5 47.5t-51 117.5t51 115t131.5 45t131 -45t50.5 -116.5t-50.5 -117.5t-131 -46z" />
    <glyph glyph-name="j" unicode="j" horiz-adv-x="582" 
d="M449 18q0 -227 -111 -363t-320 -136q-69 0 -151 30v248q66 -37 117 -37q149 0 149 234v1030h316v-1006zM293.5 1186q-80.5 0 -131.5 47.5t-51 117.5t51 115t131.5 45t131 -45t50.5 -116.5t-50.5 -117.5t-131 -46z" />
    <glyph glyph-name="k" unicode="k" horiz-adv-x="1145" 
d="M449 508v-508h-316v1516h316v-965h4l305 473h375l-367 -481l393 -543h-379l-327 508h-4z" />
    <glyph glyph-name="l" unicode="l" horiz-adv-x="582" 
d="M449 0h-316v1516h316v-1516z" />
    <glyph glyph-name="m" unicode="m" horiz-adv-x="1876" 
d="M1759 0h-315v584q0 223 -164 223q-78 0 -127 -67t-49 -167v-573h-316v590q0 217 -161 217q-81 0 -129.5 -64t-48.5 -174v-569h-316v1024h316v-160h4q49 82 137.5 133.5t193.5 51.5q217 0 297 -191q117 191 344 191q334 0 334 -412v-637z" />
    <glyph glyph-name="n" unicode="n" horiz-adv-x="1239" 
d="M1122 0h-315v569q0 238 -170 238q-82 0 -135 -63t-53 -160v-584h-316v1024h316v-162h4q113 187 329 187q340 0 340 -422v-627z" />
    <glyph glyph-name="o" unicode="o" horiz-adv-x="1252" 
d="M629 807q-112 0 -174 -77t-62 -218q0 -295 238 -295q227 0 227 295t-229 295zM623 -25q-258 0 -404.5 143.5t-146.5 393.5t152 393.5t409 143.5t402 -143.5t145 -389t-149.5 -393.5t-407.5 -148z" />
    <glyph glyph-name="p" unicode="p" horiz-adv-x="1270" 
d="M444 539v-82q0 -106 56 -173t155.5 -67t159 83.5t59.5 236.5q0 270 -210 270q-97 0 -158.5 -73.5t-61.5 -194.5zM449 119v-590h-316v1495h316v-154h4q117 179 322.5 179t314 -136.5t108.5 -382t-126.5 -400.5t-324 -155t-294.5 144h-4z" />
    <glyph glyph-name="q" unicode="q" horiz-adv-x="1268" 
d="M825 489v82q0 100 -58 168t-156 68t-158 -82.5t-60 -220.5t58.5 -212.5t155.5 -74.5t157.5 75t60.5 197zM1135 -471h-316v612h-4q-107 -166 -307 -166t-318 134.5t-118 384.5t129 402.5t327 152.5t287 -144h4v119h316v-1495z" />
    <glyph glyph-name="r" unicode="r" horiz-adv-x="815" 
d="M654.5 770q-89.5 0 -147.5 -75.5t-58 -205.5v-489h-316v1024h316v-190h4q75 208 270 208q50 0 78 -12v-291q-57 31 -146.5 31z" />
    <glyph glyph-name="s" unicode="s" horiz-adv-x="901" 
d="M368 190q181 0 181 93q0 67 -172 117.5t-241.5 127.5t-69.5 179q0 179 129.5 260.5t292.5 81.5t302 -41v-244q-120 70 -244 70q-171 0 -171 -90q-1 -62 129 -104q121 -39 179 -69q169 -86 169 -243q0 -186 -144 -276q-125 -78 -311.5 -77.5t-330.5 52.5v256
q154 -93 302 -93z" />
    <glyph glyph-name="t" unicode="t" horiz-adv-x="797" 
d="M541 -25q-334 0 -334 347v469h-166v233h166v221l315 90v-311h230v-233h-230v-414q0 -160 127 -160q50 0 103 29v-234q-70 -37 -211 -37z" />
    <glyph glyph-name="u" unicode="u" horiz-adv-x="1239" 
d="M1106 0h-315v156h-5q-117 -181 -313 -181q-356 0 -356 431v618h315v-590q0 -217 172 -217q85 0 136 59.5t51 161.5v586h315v-1024z" />
    <glyph glyph-name="v" unicode="v" horiz-adv-x="1110" 
d="M1108 1024l-381 -1024h-360l-363 1024h338l178 -631q30 -107 35 -182h4q7 71 37 176l182 637h330z" />
    <glyph glyph-name="w" unicode="w" horiz-adv-x="1633" 
d="M1616 1024l-295 -1024h-332l-151 600q-15 60 -17 131h-6q-7 -78 -20 -127l-162 -604h-328l-289 1024h322l141 -668q10 -47 15 -114h6q5 70 18 118l176 664h301l158 -668q6 -25 14 -116h7q5 58 16 116l133 668h293z" />
    <glyph glyph-name="x" unicode="x" horiz-adv-x="1131" 
d="M1122 1024l-338 -496l336 -528h-364l-148 276q-18 33 -43 93h-4q-15 -42 -41 -90l-149 -279h-363l346 510l-325 514h366l146 -287q29 -57 41 -96h4q16 47 43 98l149 285h344z" />
    <glyph glyph-name="y" unicode="y" horiz-adv-x="1102" 
d="M240 -481q-115 0 -189 26v252q63 -37 137 -37q122 0 170 115l54 127l-416 1022h350l191 -623q18 -58 28 -137h4q9 58 33 135l193 625h313l-416 -1106q-150 -399 -452 -399z" />
    <glyph glyph-name="z" unicode="z" horiz-adv-x="981" 
d="M944 0h-919v131l514 660h-463v233h864v-156l-487 -635h491v-233z" />
    <glyph glyph-name="braceleft" unicode="{" horiz-adv-x="756" 
d="M674 -326q-218 0 -317 80t-99 285v240q0 184 -152 184v184q152 0 152 191v223q0 206 98 289.5t318 83.5v-187q-160 0 -160 -174v-213q0 -240 -154 -303v-4q154 -62 154 -307v-205q0 -98 37.5 -139t122.5 -41v-187z" />
    <glyph glyph-name="bar" unicode="|" horiz-adv-x="668" 
d="M461 -481h-252v2048h252v-2048z" />
    <glyph glyph-name="braceright" unicode="}" horiz-adv-x="756" 
d="M651 463q-153 0 -153 -187v-231q0 -211 -97.5 -291t-316.5 -80v187q84 0 122 40.5t38 137.5v213q0 239 153 299v4q-153 63 -153 313v205q0 174 -160 174v187q218 0 316 -83.5t98 -285.5v-229q0 -189 153 -189v-184z" />
    <glyph glyph-name="asciitilde" unicode="~" horiz-adv-x="1448" 
d="M942 408q-106 0 -236 76t-178 75q-123 0 -129 -160h-204q6 169 89.5 267t211.5 98t256 -77t179 -77t84.5 44.5t35.5 117.5h204q-6 -168 -89.5 -266t-223.5 -98z" />
    <glyph glyph-name="nonbreakingspace" unicode="&#xa0;" horiz-adv-x="565" 
 />
    <glyph glyph-name="exclamdown" unicode="&#xa1;" horiz-adv-x="670" 
d="M504 -408h-332l37 990h256zM335 721q-80 0 -131.5 46t-51.5 117t51.5 118t131.5 47t131.5 -48t51.5 -119t-51.5 -116t-131.5 -45z" />
    <glyph glyph-name="cent" unicode="&#xa2;" horiz-adv-x="1178" 
d="M467 678q0 -222 195 -279v559q-195 -58 -195 -280zM823 -37h-161v184q-216 12 -354 151.5t-138 365.5t134 374t358 172v211h161v-207q110 -6 181 -45v-272q-76 58 -181 70v-574q108 17 181 68v-254q-73 -42 -181 -55v-189z" />
    <glyph glyph-name="sterling" unicode="&#xa3;" horiz-adv-x="1178" 
d="M1114 0h-971v227q193 52 193 269v116h-172v217h172v187q0 198 122 320t330 122q127 0 234 -49v-258q-98 66 -209 66q-184 0 -184 -230v-158h268v-217h-268v-86q0 -184 -152 -284h637v-242z" />
    <glyph glyph-name="currency" unicode="&#xa4;" horiz-adv-x="1139" 
d="M567 965q-98 0 -167.5 -69.5t-69.5 -168.5t69.5 -168.5t169.5 -69.5t171 69.5t71 167.5t-73 168.5t-171 70.5zM570 289q-128 0 -234 65l-143 -141l-142 145l142 138q-66 110 -66 230t66 228l-142 140l142 145l143 -141q106 65 234 65t233 -65l143 141l141 -145l-141 -140
q68 -112 68 -228t-68 -230l141 -138l-141 -145l-143 141q-105 -65 -233 -65z" />
    <glyph glyph-name="yen" unicode="&#xa5;" horiz-adv-x="1178" 
d="M1055 793v-189h-305v-153h305v-189h-305v-262h-308v262h-315v189h315v153h-315v189h256l-342 641h321l246 -570h4q4 11 37 90l203 480h305l-354 -641h252z" />
    <glyph glyph-name="brokenbar" unicode="&#xa6;" horiz-adv-x="668" 
d="M461 -481h-252v895h252v-895zM461 684h-252v883h252v-883z" />
    <glyph glyph-name="section" unicode="&#xa7;" horiz-adv-x="994" 
d="M367 762q0 -64 51 -109.5t178 -99.5q66 45 66 115t-53.5 108.5t-176.5 87.5q-65 -38 -65 -102zM834 260q0 -149 -108.5 -237.5t-278.5 -88.5t-297 68v248q180 -105 309 -105t129 99q0 61 -96 108q-141 65 -210 112.5t-110 116.5t-41 150q0 143 125 234q-88 87 -88 221
t102 219.5t258 85.5t277 -55v-250q-139 96 -261 96t-122 -94q0 -45 40.5 -77.5t184.5 -96.5q254 -112 254 -309q0 -167 -149 -271q82 -75 82 -174z" />
    <glyph glyph-name="dieresis" unicode="&#xa8;" horiz-adv-x="946" 
d="M240 1186q-68 0 -111 39.5t-43 98.5t44 97.5t111 38.5t109.5 -39t42.5 -99t-42.5 -98t-110.5 -38zM698 1186q-68 0 -110.5 39t-42.5 99t43 98t110 38t110.5 -38.5t43.5 -98.5t-43 -98.5t-111 -38.5z" />
    <glyph glyph-name="copyright" unicode="&#xa9;" horiz-adv-x="1790" 
d="M930 227q-209 0 -346.5 134t-137.5 350t143.5 355.5t373.5 139.5q125 0 239 -55v-236q-98 76 -228 76t-208 -76.5t-78 -202.5t79 -201t209 -75t228 76v-217q-125 -68 -274 -68zM895 1346q-273 0 -452 -180t-179 -450t181 -449t449 -179t451 179.5t183 449.5t-180 449.5
t-453 179.5zM889 -25q-329 0 -543.5 207.5t-214.5 527.5t220.5 534t548.5 214t544.5 -209t216.5 -529t-221.5 -532.5t-550.5 -212.5z" />
    <glyph glyph-name="ordfeminine" unicode="&#xaa;" horiz-adv-x="840" 
d="M526 985v70l-123 -17q-116 -16 -116 -96q0 -88 104 -88q54 0 94.5 38.5t40.5 92.5zM739 717h-213v86h-4q-87 -107 -219 -107q-101 0 -166 61t-65 158q0 211 262 244l192 25q0 114 -139 114q-118 0 -246 -77v176q124 57 287 57q311 0 311 -299v-438z" />
    <glyph glyph-name="guillemotleft" unicode="&#xab;" horiz-adv-x="1190" 
d="M651 201h-268l-330 336l330 344h266l-334 -344zM1137 201h-269l-327 336l327 344h269l-334 -344z" />
    <glyph glyph-name="logicalnot" unicode="&#xac;" horiz-adv-x="1448" 
d="M1212 266h-202v389h-772v203h974v-592z" />
    <glyph glyph-name="sfthyphen" unicode="&#xad;" horiz-adv-x="828" 
d="M690 436h-547v221h547v-221z" />
    <glyph glyph-name="registered" unicode="&#xae;" horiz-adv-x="1790" 
d="M774 1010v-230h111q139 0 139 119q0 111 -160 111h-90zM848 618h-74v-354h-211v922h320q370 0 370 -262q0 -189 -217 -244v-4q90 -20 142 -146l110 -266h-254l-76 232q-40 122 -110 122zM895 1346q-273 0 -452 -180t-179 -450t181 -449t449 -179t451 179.5t183 449.5
t-180 449.5t-453 179.5zM889 -25q-329 0 -543.5 207.5t-214.5 527.5t220.5 534t548.5 214t544.5 -209t216.5 -529t-221.5 -532.5t-550.5 -212.5z" />
    <glyph glyph-name="uni00AF" unicode="&#xaf;" horiz-adv-x="850" 
d="M850 1396h-850v120h850v-120z" />
    <glyph glyph-name="degree" unicode="&#xb0;" horiz-adv-x="778" 
d="M399 1307q-54 0 -91.5 -37.5t-37.5 -91.5t37 -92.5t91 -38.5t92 38.5t38 92.5t-37.5 91.5t-91.5 37.5zM398 895q-118 0 -200.5 82.5t-82.5 200.5t82.5 199t200.5 81t202 -81t84 -199t-84 -200.5t-202 -82.5z" />
    <glyph glyph-name="plusminus" unicode="&#xb1;" horiz-adv-x="1448" 
d="M1210 0h-972v203h972v-203zM1212 694h-385v-387h-202v387h-383v203h383v391h202v-391h385v-203z" />
    <glyph glyph-name="twosuperior" unicode="&#xb2;" horiz-adv-x="828" 
d="M721 884h-604v157l248 234q77 73 95 110t19 81q-1 44 -29 70q-28 28 -75 28q-98 0 -211 -103v215q118 78 252 78t214 -68t79 -190q1 -70 -37 -141t-180 -197l-105 -92v-4h334v-178z" />
    <glyph glyph-name="threesuperior" unicode="&#xb3;" horiz-adv-x="828" 
d="M352 1029q150 1 150 103t-172 102h-117v166h113q149 0 149 96q0 90 -113 90t-204 -65v176q99 57 236 57q136 0 214 -60t78 -161q0 -147 -143 -195v-4q172 -41 172 -198q0 -123 -98 -198t-244 -75t-242 53v181q107 -68 221 -68z" />
    <glyph glyph-name="acute" unicode="&#xb4;" horiz-adv-x="621" 
d="M596 1509l-313 -323h-228l260 323h281z" />
    <glyph glyph-name="mu1" unicode="&#xb5;" horiz-adv-x="1255" 
d="M812 154h-4q-57 -177 -216 -177q-97 0 -140 64h-3v-436h-316v1419h316v-589q0 -207 170 -207q184 0 184 254v542h319v-710q0 -236 39 -314h-324q-25 70 -25 154z" />
    <glyph glyph-name="paragraph" unicode="&#xb6;" horiz-adv-x="1043" 
d="M946 1272h-117v-1272h-174v1272h-118v-1272h-177v836q-115 7 -191.5 91.5t-76.5 212.5t85.5 211t211.5 83h557v-162z" />
    <glyph glyph-name="periodcentered" unicode="&#xb7;" horiz-adv-x="555" 
d="M277 487q-81 0 -133 48t-52 119t54 117t134 46t131.5 -46.5t51.5 -118.5t-52.5 -118.5t-133.5 -46.5z" />
    <glyph glyph-name="cedilla" unicode="&#xb8;" horiz-adv-x="441" 
d="M123 -319q123 0 123 73q0 66 -111 66q-13 0 -37 -2v182h172v-82q187 -8 187 -166q0 -207 -318 -207q-46 0 -88 4v138q35 -6 72 -6z" />
    <glyph glyph-name="onesuperior" unicode="&#xb9;" horiz-adv-x="807" 
d="M721 884h-563v172h176v477l-191 -41v180l406 82v-698h172v-172z" />
    <glyph glyph-name="ordmasculine" unicode="&#xba;" horiz-adv-x="934" 
d="M463 1280q-162 0 -162 -205t162 -205t162 205t-162 205zM460 696q-186 0 -288 100t-102 278t109 279t291 101t285 -101.5t103 -275.5t-106 -277.5t-292 -103.5z" />
    <glyph glyph-name="guillemotright" unicode="&#xbb;" horiz-adv-x="1190" 
d="M651 537l-329 -336h-269l336 336l-334 344h267zM1137 537l-328 -336h-268l333 336l-331 344h266z" />
    <glyph glyph-name="onequarter" unicode="&#xbc;" horiz-adv-x="1950" 
d="M676 584h-563v172h176v477l-191 -41v180l406 82v-698h172v-172zM1505 1434l-891 -1434h-244l891 1434h244zM1522 331v263q0 47 4 84h-8q-14 -36 -39 -76l-168 -271h211zM1845 176h-110v-176h-213v176h-395v141l350 533h258v-519h110v-155z" />
    <glyph glyph-name="onehalf" unicode="&#xbd;" horiz-adv-x="1977" 
d="M676 584h-563v172h176v477l-191 -41v180l406 82v-698h172v-172zM1506 1434l-891 -1434h-244l891 1434h244zM1843 0h-604v157l248 234q77 73 95 110t19 81q-1 44 -29 70q-28 28 -75 28q-98 0 -211 -103v215q118 78 252 78t214 -68t79 -190q1 -70 -37 -141t-180 -197
l-105 -92v-4h334v-178z" />
    <glyph glyph-name="threequarters" unicode="&#xbe;" horiz-adv-x="2005" 
d="M352 729q150 1 150 103t-172 102h-117v166h113q149 0 149 96q0 90 -113 90t-204 -65v176q99 57 236 57q136 0 214 -60t78 -161q0 -147 -143 -195v-4q172 -41 172 -198q0 -123 -98 -198t-244 -75t-242 53v181q107 -68 221 -68zM1565 1434l-891 -1434h-244l891 1434h244z
M1569 331v263q0 47 4 84h-8q-14 -36 -39 -76l-168 -271h211zM1892 176h-110v-176h-213v176h-395v141l350 533h258v-519h110v-155z" />
    <glyph glyph-name="questiondown" unicode="&#xbf;" horiz-adv-x="897" 
d="M502 719q-80 1 -132 47t-52 118t52 118t132 47q80 0 132 -49t53 -118q0 -69 -52.5 -116t-132.5 -47zM668 501q0 -169 -125 -275q-102 -86 -138 -135t-36 -99q0 -82 43.5 -122t114.5 -40q172 0 321 131v-301q-154 -92 -356 -92q-309 0 -374 133t-65 211q0 132 50 214
t146 161q95 79 127 123.5t32 104.5q0 59 -24 96h263q21 -54 21 -110z" />
    <glyph glyph-name="Agrave" unicode="&#xc0;" horiz-adv-x="1440" 
d="M897 567l-154 482q-17 54 -24 129h-8q-5 -63 -25 -125l-156 -486h367zM1425 0h-352l-102 319h-510l-101 -319h-350l522 1434h383zM916 1567h-227l-314 323h281z" />
    <glyph glyph-name="Aacute" unicode="&#xc1;" horiz-adv-x="1440" 
d="M897 567l-154 482q-17 54 -24 129h-8q-5 -63 -25 -125l-156 -486h367zM1425 0h-352l-102 319h-510l-101 -319h-350l522 1434h383zM1036 1890l-313 -323h-228l260 323h281z" />
    <glyph glyph-name="Acircumflex" unicode="&#xc2;" horiz-adv-x="1440" 
d="M897 567l-154 482q-17 54 -24 129h-8q-5 -63 -25 -125l-156 -486h367zM1425 0h-352l-102 319h-510l-101 -319h-350l522 1434h383zM1078 1567h-207l-158 188l-147 -188h-207l235 325h248z" />
    <glyph glyph-name="Atilde" unicode="&#xc3;" horiz-adv-x="1440" 
d="M897 567l-154 482q-17 54 -24 129h-8q-5 -63 -25 -125l-156 -486h367zM1425 0h-352l-102 319h-510l-101 -319h-350l522 1434h383zM1077 1878q0 -140 -55.5 -216.5t-146.5 -76.5t-177 45t-119 45q-80 0 -80 -108h-141q0 139 55 216t145 77t173 -46t124 -47q78 0 78 111
h144z" />
    <glyph glyph-name="Adieresis" unicode="&#xc4;" horiz-adv-x="1440" 
d="M897 567l-154 482q-17 54 -24 129h-8q-5 -63 -25 -125l-156 -486h367zM1425 0h-352l-102 319h-510l-101 -319h-350l522 1434h383zM487 1567q-68 0 -111 39.5t-43 98.5t44 97.5t111 38.5t109.5 -38.5t42.5 -99t-42.5 -98.5t-110.5 -38zM945.5 1567q-67.5 0 -110.5 39
t-43 99t43 98t110 38t110.5 -38.5t43.5 -98.5t-43 -98.5t-110.5 -38.5z" />
    <glyph glyph-name="Aring" unicode="&#xc5;" horiz-adv-x="1440" 
d="M893 584l-152 465q-13 40 -22 120h-8q-7 -68 -23 -116l-153 -469h358zM719 1645q-47 0 -75 -28.5t-28 -70.5q0 -98 103 -98q48 0 77 28.5t29 70.5t-29.5 70t-76.5 28zM469 1555.5q0 94.5 73.5 157.5t184 63t180.5 -63.5t70 -154t-53 -147.5l501 -1411h-352l-102 319h-510
l-101 -319h-350l512 1407q-53 54 -53 148.5z" />
    <glyph glyph-name="AE" unicode="&#xc6;" horiz-adv-x="1915" 
d="M991 567v604h-78l-282 -604h360zM1849 0h-858v319h-471l-147 -319h-375l725 1434h1094v-263h-504v-319h469v-262h-469v-328h536v-262z" />
    <glyph glyph-name="Ccedilla" unicode="&#xc7;" horiz-adv-x="1278" 
d="M682 -319q123 0 123 73q0 66 -111 66q-13 0 -37 -2v165q-242 31 -394 186q-189 194 -189 527.5t212.5 547.5t551.5 214q210 0 354 -53v-311q-144 86 -337 86t-317 -127t-124 -339.5t117 -336t310.5 -123.5t350.5 92v-295q-142 -69 -363 -75v-58q187 -8 187 -166
q0 -207 -318 -207q-46 0 -88 4v138q35 -6 72 -6z" />
    <glyph glyph-name="Egrave" unicode="&#xc8;" horiz-adv-x="1090" 
d="M1024 0h-860v1434h827v-263h-504v-319h469v-262h-469v-328h537v-262zM766 1567h-227l-314 323h281z" />
    <glyph glyph-name="Eacute" unicode="&#xc9;" horiz-adv-x="1090" 
d="M1024 0h-860v1434h827v-263h-504v-319h469v-262h-469v-328h537v-262zM934 1890l-313 -323h-228l260 323h281z" />
    <glyph glyph-name="Ecircumflex" unicode="&#xca;" horiz-adv-x="1090" 
d="M1024 0h-860v1434h827v-263h-504v-319h469v-262h-469v-328h537v-262zM932 1567h-207l-158 188l-147 -188h-207l235 325h248z" />
    <glyph glyph-name="Edieresis" unicode="&#xcb;" horiz-adv-x="1090" 
d="M1024 0h-860v1434h827v-263h-504v-319h469v-262h-469v-328h537v-262zM354 1567q-68 0 -111 39.5t-43 98.5t44 97.5t111 38.5t109.5 -38.5t42.5 -99t-42.5 -98.5t-110.5 -38zM812.5 1567q-67.5 0 -110.5 39t-43 99t43 98t110 38t110.5 -38.5t43.5 -98.5t-43 -98.5
t-110.5 -38.5z" />
    <glyph glyph-name="Igrave" unicode="&#xcc;" horiz-adv-x="649" 
d="M607 1434v-250h-120v-934h120v-250h-563v250h120v934h-120v250h563zM532 1567h-227l-314 323h281z" />
    <glyph glyph-name="Iacute" unicode="&#xcd;" horiz-adv-x="649" 
d="M607 1434v-250h-120v-934h120v-250h-563v250h120v934h-120v250h563zM651 1890l-313 -323h-228l260 323h281z" />
    <glyph glyph-name="Icircumflex" unicode="&#xce;" horiz-adv-x="649" 
d="M607 1434v-250h-120v-934h120v-250h-563v250h120v934h-120v250h563zM691 1567h-207l-158 188l-147 -188h-207l235 325h248z" />
    <glyph glyph-name="Idieresis" unicode="&#xcf;" horiz-adv-x="649" 
d="M607 1434v-250h-120v-934h120v-250h-563v250h120v934h-120v250h563zM101 1567q-68 0 -111 39.5t-43 98.5t44 97.5t111 38.5t109.5 -38.5t42.5 -99t-42.5 -98.5t-110.5 -38zM559.5 1567q-67.5 0 -110.5 39t-43 99t43 98t110 38t110.5 -38.5t43.5 -98.5t-43 -98.5
t-110.5 -38.5z" />
    <glyph glyph-name="Eth" unicode="&#xd0;" horiz-adv-x="1510" 
d="M487 1171v-319h271v-266h-271v-324h160q210 0 329.5 126t119.5 337t-118.5 328.5t-332.5 117.5h-158zM164 0v586h-164v266h164v582h508q764 0 764 -699q0 -335 -208.5 -535t-555.5 -200h-508z" />
    <glyph glyph-name="Ntilde" unicode="&#xd1;" horiz-adv-x="1618" 
d="M1454 0h-326l-591 901q-52 79 -72 119h-4q8 -76 8 -232v-788h-305v1434h348l569 -873q39 -59 72 -117h4q-8 50 -8 197v793h305v-1434zM1206 1878q0 -140 -55.5 -216.5t-146.5 -76.5q-90 0 -176 45t-120 45q-80 0 -80 -108h-141q0 139 55 216t145 77t173 -46t124 -47
q78 0 78 111h144z" />
    <glyph glyph-name="Ograve" unicode="&#xd2;" horiz-adv-x="1552" 
d="M781.5 1180q-167.5 0 -267.5 -127.5t-100 -339t100 -335.5t264.5 -124t262.5 120.5t98 339t-95 342.5t-262.5 124zM774 -25q-312 0 -506 200.5t-194 531.5t197 541t513 210t505.5 -201t189.5 -534.5t-196.5 -540.5t-508.5 -207zM971 1567h-227l-314 323h281z" />
    <glyph glyph-name="Oacute" unicode="&#xd3;" horiz-adv-x="1552" 
d="M781.5 1180q-167.5 0 -267.5 -127.5t-100 -339t100 -335.5t264.5 -124t262.5 120.5t98 339t-95 342.5t-262.5 124zM774 -25q-312 0 -506 200.5t-194 531.5t197 541t513 210t505.5 -201t189.5 -534.5t-196.5 -540.5t-508.5 -207zM1110 1890l-313 -323h-228l260 323h281z
" />
    <glyph glyph-name="Ocircumflex" unicode="&#xd4;" horiz-adv-x="1552" 
d="M781.5 1180q-167.5 0 -267.5 -127.5t-100 -339t100 -335.5t264.5 -124t262.5 120.5t98 339t-95 342.5t-262.5 124zM774 -25q-312 0 -506 200.5t-194 531.5t197 541t513 210t505.5 -201t189.5 -534.5t-196.5 -540.5t-508.5 -207zM1149 1567h-207l-158 188l-147 -188h-207
l235 325h248z" />
    <glyph glyph-name="Otilde" unicode="&#xd5;" horiz-adv-x="1552" 
d="M781.5 1180q-167.5 0 -267.5 -127.5t-100 -339t100 -335.5t264.5 -124t262.5 120.5t98 339t-95 342.5t-262.5 124zM774 -25q-312 0 -506 200.5t-194 531.5t197 541t513 210t505.5 -201t189.5 -534.5t-196.5 -540.5t-508.5 -207zM1147 1878q0 -140 -55.5 -216.5
t-146.5 -76.5t-176.5 45t-119.5 45q-80 0 -80 -108h-141q0 139 55 216t145 77t173 -46.5t124 -46.5q78 0 78 111h144z" />
    <glyph glyph-name="Odieresis" unicode="&#xd6;" horiz-adv-x="1552" 
d="M781.5 1180q-167.5 0 -267.5 -127.5t-100 -339t100 -335.5t264.5 -124t262.5 120.5t98 339t-95 342.5t-262.5 124zM774 -25q-312 0 -506 200.5t-194 531.5t197 541t513 210t505.5 -201t189.5 -534.5t-196.5 -540.5t-508.5 -207zM546 1567q-68 0 -111 39.5t-43 98.5
t44 97.5t111 38.5t109.5 -38.5t42.5 -99t-42.5 -98.5t-110.5 -38zM1004.5 1567q-67.5 0 -110.5 39t-43 99t43 98t110 38t110.5 -38.5t43.5 -98.5t-43 -98.5t-110.5 -38.5z" />
    <glyph glyph-name="multiply" unicode="&#xd7;" horiz-adv-x="1448" 
d="M1210 248l-145 -144l-338 340l-340 -340l-145 146l340 336l-340 340l141 145l344 -340l342 340l139 -151l-338 -334z" />
    <glyph glyph-name="Oslash" unicode="&#xd8;" horiz-adv-x="1553" 
d="M776 227q175 0 281 128.5t106 351.5q0 164 -53 288l-578 -676q101 -92 244 -92zM784 1206q-181 0 -287 -136.5t-106 -360.5q0 -146 47 -252l578 673q-97 76 -232 76zM74 698q0 340 196.5 550t522.5 210q234 0 401 -119l129 150l125 -103l-135 -157q166 -196 166 -518
t-196.5 -529t-512.5 -207q-240 0 -422 134l-143 -170l-125 104l149 176q-155 192 -155 479z" />
    <glyph glyph-name="Ugrave" unicode="&#xd9;" horiz-adv-x="1481" 
d="M1333 621q0 -646 -602 -646q-584 0 -584 631v828h324v-832q0 -348 272 -348q267 0 267 336v844h323v-813zM920 1567h-227l-314 323h281z" />
    <glyph glyph-name="Uacute" unicode="&#xda;" horiz-adv-x="1481" 
d="M1333 621q0 -646 -602 -646q-584 0 -584 631v828h324v-832q0 -348 272 -348q267 0 267 336v844h323v-813zM1088 1890l-313 -323h-228l260 323h281z" />
    <glyph glyph-name="Ucircumflex" unicode="&#xdb;" horiz-adv-x="1481" 
d="M1333 621q0 -646 -602 -646q-584 0 -584 631v828h324v-832q0 -348 272 -348q267 0 267 336v844h323v-813zM1099 1567h-207l-158 188l-147 -188h-207l235 325h248z" />
    <glyph glyph-name="Udieresis" unicode="&#xdc;" horiz-adv-x="1481" 
d="M1333 621q0 -646 -602 -646q-584 0 -584 631v828h324v-832q0 -348 272 -348q267 0 267 336v844h323v-813zM511 1567q-68 0 -111 39.5t-43 98.5t44 97.5t111 38.5t109.5 -38.5t42.5 -99t-42.5 -98.5t-110.5 -38zM969.5 1567q-67.5 0 -110.5 39t-43 99t43 98t110 38
t110.5 -38.5t43.5 -98.5t-43 -98.5t-110.5 -38.5z" />
    <glyph glyph-name="Yacute" unicode="&#xdd;" horiz-adv-x="1243" 
d="M778 0h-323v504l-455 930h369l231 -535q6 -15 33 -117h4q13 72 31 113l235 539h342l-467 -924v-510zM903 1857l-313 -323h-228l260 323h281z" />
    <glyph glyph-name="Thorn" unicode="&#xde;" horiz-adv-x="1258" 
d="M487 975v-447h127q258 0 258 226q0 221 -258 221h-127zM487 281v-281h-323v1434h323v-211h183q542 0 542 -457q0 -216 -155.5 -350.5t-415.5 -134.5h-154z" />
    <glyph glyph-name="germandbls" unicode="&#xdf;" horiz-adv-x="1286" 
d="M716 217q88 0 137.5 52.5t49.5 156.5t-89 171.5t-251 72.5v221q111 8 172.5 68t61.5 151.5t-44.5 139.5t-119.5 48q-184 0 -184 -245v-1053h-316v1049q0 223 137 357t367.5 134t356.5 -109.5t126 -281.5q0 -122 -71.5 -214t-184.5 -126v-4q363 -69 363 -399
q0 -180 -126.5 -305.5t-342.5 -125.5q-105 0 -213 33v262q83 -53 171 -53z" />
    <glyph glyph-name="agrave" unicode="&#xe0;" horiz-adv-x="1102" 
d="M688 416v69l-186 -24q-154 -20 -154 -139q0 -54 38 -88t114 -34.5t132 61t56 155.5zM985 0h-299v147h-4q-103 -172 -305 -172q-149 0 -234.5 84.5t-85.5 225.5q0 298 353 344l278 37q0 168 -182 168t-348 -109v238q66 34 180.5 60t208.5 26q438 0 438 -437v-612z
M775 1186h-227l-314 323h281z" />
    <glyph glyph-name="aacute" unicode="&#xe1;" horiz-adv-x="1102" 
d="M688 416v69l-186 -24q-154 -20 -154 -139q0 -54 38 -88t114 -34.5t132 61t56 155.5zM985 0h-299v147h-4q-103 -172 -305 -172q-149 0 -234.5 84.5t-85.5 225.5q0 298 353 344l278 37q0 168 -182 168t-348 -109v238q66 34 180.5 60t208.5 26q438 0 438 -437v-612z
M891 1509l-313 -323h-228l260 323h281z" />
    <glyph glyph-name="acircumflex" unicode="&#xe2;" horiz-adv-x="1102" 
d="M688 416v69l-186 -24q-154 -20 -154 -139q0 -54 38 -88t114 -34.5t132 61t56 155.5zM985 0h-299v147h-4q-103 -172 -305 -172q-149 0 -234.5 84.5t-85.5 225.5q0 298 353 344l278 37q0 168 -182 168t-348 -109v238q66 34 180.5 60t208.5 26q438 0 438 -437v-612z
M914 1186h-207l-158 188l-147 -188h-207l235 325h248z" />
    <glyph glyph-name="atilde" unicode="&#xe3;" horiz-adv-x="1102" 
d="M688 416v69l-186 -24q-154 -20 -154 -139q0 -54 38 -88t114 -34.5t132 61t56 155.5zM985 0h-299v147h-4q-103 -172 -305 -172q-149 0 -234.5 84.5t-85.5 225.5q0 298 353 344l278 37q0 168 -182 168t-348 -109v238q66 34 180.5 60t208.5 26q438 0 438 -437v-612z
M907 1497q0 -140 -55.5 -216.5t-146.5 -76.5t-177 45t-119 45q-80 0 -80 -108h-141q0 139 55 216t145 77q90 -1 173 -47t124 -46q78 0 78 111h144z" />
    <glyph glyph-name="adieresis" unicode="&#xe4;" horiz-adv-x="1102" 
d="M688 416v69l-186 -24q-154 -20 -154 -139q0 -54 37.5 -88.5t114 -34.5t132.5 61.5t56 155.5zM985 0h-299v147h-4q-103 -172 -305 -172q-149 0 -234.5 84.5t-85.5 225.5q0 298 353 344l278 37q0 168 -182.5 168t-347.5 -109v238q66 34 180.5 60t208.5 26q438 0 438 -437
v-612zM329 1186q-68 0 -111 39.5t-43 98.5t44 97.5t111 38.5t109.5 -38.5t42.5 -99t-42.5 -98.5t-110.5 -38zM787.5 1186q-67.5 0 -110.5 39t-43 99t43 98t110 38t110.5 -38.5t43.5 -98.5t-43 -98.5t-110.5 -38.5z" />
    <glyph glyph-name="aring" unicode="&#xe5;" horiz-adv-x="1102" 
d="M688 416v69l-186 -24q-154 -20 -154 -139q0 -54 37.5 -88.5t114 -34.5t132.5 61.5t56 155.5zM985 0h-299v147h-4q-103 -172 -305 -172q-149 0 -234.5 84.5t-85.5 225.5q0 298 353 344l278 37q0 168 -182.5 168t-347.5 -109v238q66 34 180.5 60t208.5 26q438 0 438 -437
v-612zM573 1499q-96 0 -96 -94t96 -94q45 0 74 27.5t29 67.5t-28.5 66.5t-74.5 26.5zM572.5 1186q-101.5 0 -168 59.5t-66.5 158t69.5 158.5t173.5 60t170 -59.5t66 -156.5t-71.5 -158.5t-173 -61.5z" />
    <glyph glyph-name="ae" unicode="&#xe6;" horiz-adv-x="1696" 
d="M686 414v45l-156 -13q-184 -15 -184 -131q0 -50 39 -83t113 -33t131 59.5t57 155.5zM1348 616q0 220 -177 220q-75 0 -131.5 -62t-66.5 -158h375zM1640 422h-667q20 -223 282 -223q160 0 297 80v-226q-156 -78 -378 -78q-269 0 -398 179h-4q-141 -179 -362 -179
q-166 0 -259.5 82.5t-93.5 228.5t96.5 234.5t276.5 102.5l256 20q0 191 -184 191q-174 0 -344 -107v236q187 86 370 86q234 0 324 -134h4q132 134 336 134t326 -133t122 -365v-129z" />
    <glyph glyph-name="ccedilla" unicode="&#xe7;" horiz-adv-x="983" 
d="M498 -319q123 0 123 73q0 66 -111 66q-13 0 -37 -2v169q-151 29 -255 131q-146 143 -146 386.5t156.5 394t418.5 150.5q181 0 262 -48v-268q-99 74 -228 74t-208.5 -79.5t-79.5 -217.5t76 -215.5t201.5 -77.5t238.5 74v-254q-95 -55 -264 -61v-58q187 -8 187 -166
q0 -207 -318 -207q-46 0 -88 4v138q35 -6 72 -6z" />
    <glyph glyph-name="egrave" unicode="&#xe8;" horiz-adv-x="1108" 
d="M760 616q0 220 -178 220q-76 0 -131.5 -63t-67.5 -157h377zM1053 422h-668q16 -223 281 -223q169 0 297 80v-228q-141 -76 -379 -76t-375 137.5t-137 387.5t148 399.5t368 149.5t342.5 -133t122.5 -361v-133zM795 1186h-227l-314 323h281z" />
    <glyph glyph-name="eacute" unicode="&#xe9;" horiz-adv-x="1108" 
d="M760 616q0 220 -178 220q-76 0 -131.5 -63t-67.5 -157h377zM1053 422h-668q16 -223 281 -223q169 0 297 80v-228q-141 -76 -379 -76t-375 137.5t-137 387.5t148 399.5t368 149.5t342.5 -133t122.5 -361v-133zM921 1509l-313 -323h-228l260 323h281z" />
    <glyph glyph-name="ecircumflex" unicode="&#xea;" horiz-adv-x="1108" 
d="M760 616q0 220 -178 220q-76 0 -131.5 -63t-67.5 -157h377zM1053 422h-668q16 -223 281 -223q169 0 297 80v-228q-141 -76 -379 -76t-375 137.5t-137 387.5t148 399.5t368 149.5t342.5 -133t122.5 -361v-133zM949 1186h-207l-158 188l-147 -188h-207l235 325h248z" />
    <glyph glyph-name="edieresis" unicode="&#xeb;" horiz-adv-x="1108" 
d="M760 616q0 220 -178 220q-76 0 -131.5 -63t-67.5 -157h377zM1053 422h-668q16 -223 281 -223q169 0 297 80v-228q-142 -76 -379.5 -76t-374.5 137.5t-137 388t148 399.5t368 149t342.5 -133t122.5 -361v-133zM350 1186q-68 0 -111 39.5t-43 98.5t44 97.5t111 38.5
t109.5 -38.5t42.5 -99t-42.5 -98.5t-110.5 -38zM808.5 1186q-67.5 0 -110.5 39t-43 99t43 98t110 38t110.5 -38.5t43.5 -98.5t-43 -98.5t-110.5 -38.5z" />
    <glyph glyph-name="igrave" unicode="&#xec;" horiz-adv-x="582" 
d="M449 0h-316v1024h316v-1024zM514 1186h-227l-314 323h281z" />
    <glyph glyph-name="iacute" unicode="&#xed;" horiz-adv-x="582" 
d="M449 0h-316v1024h316v-1024zM612 1509l-313 -323h-228l260 323h281z" />
    <glyph glyph-name="icircumflex" unicode="&#xee;" horiz-adv-x="582" 
d="M449 0h-316v1024h316v-1024zM657 1186h-207l-158 188l-147 -188h-207l235 325h248z" />
    <glyph glyph-name="idieresis" unicode="&#xef;" horiz-adv-x="582" 
d="M449 0h-316v1024h316v-1024zM68 1186q-68 0 -111 39.5t-43 98.5t44 97.5t111 38.5t109.5 -38.5t42.5 -99t-42.5 -98.5t-110.5 -38zM526.5 1186q-67.5 0 -110.5 39t-43 99t43 98t110 38t110.5 -38.5t43.5 -98.5t-43 -98.5t-110.5 -38.5z" />
    <glyph glyph-name="eth" unicode="&#xf0;" horiz-adv-x="1215" 
d="M612 807q-103 0 -161 -78.5t-58 -216.5t57 -216.5t156.5 -78.5t157 81.5t57.5 221.5q0 287 -209 287zM1143 563q0 -260 -150 -424t-396.5 -164t-385.5 144.5t-139 385t132.5 388t346.5 147.5q117 0 205 -75l4 2q-84 147 -195 237l-291 -143l-81 141l241 115
q-157 125 -270 199h352q11 -6 131 -97l273 133l77 -137l-215 -104q361 -291 361 -748z" />
    <glyph glyph-name="ntilde" unicode="&#xf1;" horiz-adv-x="1239" 
d="M1122 0h-315v569q0 238 -170 238q-82 0 -135 -63t-53 -160v-584h-316v1024h316v-162h4q113 187 329 187q340 0 340 -422v-627zM982 1497q0 -140 -55.5 -216.5t-146.5 -76.5q-90 0 -176 45t-120 45q-80 0 -80 -108h-141q0 139 55 216t145 77q90 -1 173 -47t124 -46
q78 0 78 111h144z" />
    <glyph glyph-name="ograve" unicode="&#xf2;" horiz-adv-x="1251" 
d="M629 807q-112 0 -174 -77t-62 -218q0 -295 238 -295q227 0 227 295t-229 295zM623 -25q-258 0 -404.5 143.5t-146.5 393.5t152 393.5t409 143.5t402 -143.5t145 -389t-149.5 -393.5t-407.5 -148zM852 1186h-227l-314 323h281z" />
    <glyph glyph-name="oacute" unicode="&#xf3;" horiz-adv-x="1251" 
d="M629 807q-112 0 -174 -77t-62 -218q0 -295 238 -295q227 0 227 295t-229 295zM623 -25q-258 0 -404.5 143.5t-146.5 393.5t152 393.5t409 143.5t402 -143.5t145 -389t-149.5 -393.5t-407.5 -148zM968 1509l-313 -323h-228l260 323h281z" />
    <glyph glyph-name="ocircumflex" unicode="&#xf4;" horiz-adv-x="1251" 
d="M629 807q-112 0 -174 -77t-62 -218q0 -295 238 -295q227 0 227 295t-229 295zM623 -25q-258 0 -404.5 143.5t-146.5 393.5t152 393.5t409 143.5t402 -143.5t145 -389t-149.5 -393.5t-407.5 -148zM988 1186h-207l-158 188l-147 -188h-207l235 325h248z" />
    <glyph glyph-name="otilde" unicode="&#xf5;" horiz-adv-x="1251" 
d="M629 807q-112 0 -174 -77t-62 -218q0 -295 238 -295q227 0 227 295t-229 295zM623 -25q-258 0 -404.5 143.5t-146.5 393.5t152 393.5t409 143.5t402 -143.5t145 -389t-149.5 -393.5t-407.5 -148zM985 1497q0 -140 -55.5 -216.5t-146.5 -76.5t-176.5 45t-119.5 45
q-80 0 -80 -108h-141q0 139 55 216t145 77t173 -46.5t124 -46.5q78 0 78 111h144z" />
    <glyph glyph-name="odieresis" unicode="&#xf6;" horiz-adv-x="1251" 
d="M629 807q-112 0 -174 -77t-62 -218q0 -295 238 -295q227 0 227 295t-229 295zM623 -25q-258 0 -404.5 143.5t-146.5 393.5t152 393.5t409 143.5t402 -143.5t145 -389t-149.5 -393.5t-407.5 -148zM401 1186q-68 0 -111 39.5t-43 98.5t44 97.5t111 38.5t109.5 -38.5
t42.5 -99t-42.5 -98.5t-110.5 -38zM859.5 1186q-67.5 0 -110.5 39t-43 99t43 98t110 38t110.5 -38.5t43.5 -98.5t-43 -98.5t-110.5 -38.5z" />
    <glyph glyph-name="divide" unicode="&#xf7;" horiz-adv-x="1448" 
d="M726 47q-58 0 -99 38.5t-41 98.5t39.5 102t101.5 42t99.5 -40.5t37.5 -102.5t-40 -100t-98 -38zM1212 485h-974v203h974v-203zM730 846q-58 0 -99 40t-41 100t39.5 101t101.5 41t99.5 -40t37.5 -102t-40 -101t-98 -39z" />
    <glyph glyph-name="oslash" unicode="&#xf8;" horiz-adv-x="1252" 
d="M629 197q252 0 252 323q0 74 -19 131l-393 -409q61 -45 160 -45zM631 831q-258 0 -258 -317q0 -73 18 -121l381 398q-56 40 -141 40zM1180 526q0 -259 -148 -404t-411 -145q-198 0 -328 86l-135 -141l-119 107l137 143q-104 141 -104 338q0 253 152.5 397t412.5 144
q179 0 311 -82l139 147l119 -106l-139 -146q113 -143 113 -338z" />
    <glyph glyph-name="ugrave" unicode="&#xf9;" horiz-adv-x="1239" 
d="M1106 0h-315v156h-5q-117 -181 -313 -181q-356 0 -356 431v618h315v-590q0 -217 172 -217q85 0 136 59.5t51 161.5v586h315v-1024zM784 1186h-227l-314 323h281z" />
    <glyph glyph-name="uacute" unicode="&#xfa;" horiz-adv-x="1239" 
d="M1106 0h-315v156h-5q-117 -181 -313 -181q-356 0 -356 431v618h315v-590q0 -217 172 -217q85 0 136 59.5t51 161.5v586h315v-1024zM977 1509l-313 -323h-228l260 323h281z" />
    <glyph glyph-name="ucircumflex" unicode="&#xfb;" horiz-adv-x="1239" 
d="M1106 0h-315v156h-5q-117 -181 -313 -181q-356 0 -356 431v618h315v-590q0 -217 172 -217q85 0 136 59.5t51 161.5v586h315v-1024zM970 1186h-207l-158 188l-147 -188h-207l235 325h248z" />
    <glyph glyph-name="udieresis" unicode="&#xfc;" horiz-adv-x="1239" 
d="M1106 0h-315v156h-5q-117 -181 -313 -181q-356 0 -356 431v618h315v-590q0 -217 172 -217q85 0 136 59.5t51 161.5v586h315v-1024zM386 1186q-68 0 -111 39.5t-43 98.5t44 97.5t111 38.5t109.5 -38.5t42.5 -99t-42.5 -98.5t-110.5 -38zM844.5 1186q-67.5 0 -110.5 39
t-43 99t43 98t110 38t110.5 -38.5t43.5 -98.5t-43 -98.5t-110.5 -38.5z" />
    <glyph glyph-name="yacute" unicode="&#xfd;" horiz-adv-x="1102" 
d="M240 -481q-115 0 -189 26v252q63 -37 137 -37q122 0 170 115l54 127l-416 1022h350l191 -623q18 -58 28 -137h4q9 58 33 135l193 625h313l-416 -1106q-150 -399 -452 -399zM834 1509l-313 -323h-228l260 323h281z" />
    <glyph glyph-name="thorn" unicode="&#xfe;" horiz-adv-x="1270" 
d="M444 539v-82q0 -106 56 -173t155.5 -67t159 83.5t59.5 236.5q0 270 -210 270q-97 0 -158.5 -73.5t-61.5 -194.5zM449 119v-590h-316v1987h316v-646h4q117 179 322.5 179t314 -136.5t108.5 -382t-126.5 -400.5t-324 -155t-294.5 144h-4z" />
    <glyph glyph-name="ydieresis" unicode="&#xff;" horiz-adv-x="1102" 
d="M240 -481q-115 0 -189 26v252q63 -37 137 -37q122 0 170 115l54 127l-416 1022h350l191 -623q18 -58 28 -137h4q9 58 33 135l193 625h313l-416 -1106q-150 -399 -452 -399zM335 1186q-68 0 -111 39.5t-43 98.5t44 97.5t111 38.5t109.5 -38.5t42.5 -99t-42.5 -98.5
t-110.5 -38zM793.5 1186q-67.5 0 -110.5 39t-43 99t43 98t110 38t110.5 -38.5t43.5 -98.5t-43 -98.5t-110.5 -38.5z" />
    <glyph glyph-name="Amacron" unicode="&#x100;" horiz-adv-x="1440" 
d="M897 567l-154 482q-17 54 -24 129h-8q-5 -63 -25 -125l-156 -486h367zM1425 0h-352l-102 319h-510l-101 -319h-350l522 1434h383zM1013 1567h-586v172h586v-172z" />
    <glyph glyph-name="amacron" unicode="&#x101;" horiz-adv-x="1102" 
d="M688 416v69l-186 -24q-154 -20 -154 -139q0 -54 38 -88t114 -34.5t132 61t56 155.5zM985 0h-299v147h-4q-103 -172 -305 -172q-149 0 -234.5 84.5t-85.5 225.5q0 298 353 344l278 37q0 168 -182 168t-348 -109v238q66 34 180.5 60t208.5 26q438 0 438 -437v-612z
M864 1186h-586v172h586v-172z" />
    <glyph glyph-name="Abreve" unicode="&#x102;" horiz-adv-x="1440" 
d="M897 567l-154 482q-17 54 -24 129h-8q-5 -63 -25 -125l-156 -486h367zM1425 0h-352l-102 319h-510l-101 -319h-350l522 1434h383zM717.5 1567q-146.5 0 -238.5 85.5t-96 221.5h179q17 -135 156.5 -135t158.5 135h180q-12 -141 -102.5 -224t-237 -83z" />
    <glyph glyph-name="abreve" unicode="&#x103;" horiz-adv-x="1102" 
d="M688 416v69l-186 -24q-154 -20 -154 -139q0 -54 37.5 -88.5t114 -34.5t132.5 61.5t56 155.5zM985 0h-299v147h-4q-103 -172 -305 -172q-149 0 -234.5 84.5t-85.5 225.5q0 298 353 344l278 37q0 168 -182.5 168t-347.5 -109v238q66 34 180.5 60t208.5 26q438 0 438 -437
v-612zM568.5 1186q-146.5 0 -238.5 85.5t-96 221.5h179q17 -135 156.5 -135t158.5 135h180q-12 -141 -102.5 -224t-237 -83z" />
    <glyph glyph-name="Aogonek" unicode="&#x104;" horiz-adv-x="1440" 
d="M897 567l-154 482q-17 54 -24 129h-8q-5 -63 -25 -125l-156 -486h367zM1087 -419q-77 0 -128 44.5t-51 138.5t95 183q31 29 71 53h-1l-102 319h-510l-101 -319h-350l522 1434h383l510 -1434h-196q-153 -112 -153 -208q0 -66 63 -66q41 0 81 12l1 -138q-57 -19 -134 -19z
" />
    <glyph glyph-name="aogonek" unicode="&#x105;" horiz-adv-x="1102" 
d="M688 416v69l-186 -24q-154 -20 -154 -139q0 -54 37.5 -88.5t114 -34.5t132.5 61.5t56 155.5zM700 -419q-77 0 -128 44.5t-51 138.5t95 183q31 29 71 53h-1v147h-4q-103 -172 -305 -172q-149 0 -234.5 84.5t-85.5 225.5q0 298 353 344l278 37q0 168 -182.5 168
t-347.5 -109v238q66 34 180.5 60t208.5 26q438 0 438 -437v-612h-143q-153 -112 -153 -208q0 -66 63 -66q41 0 81 12l1 -138q-57 -19 -134 -19z" />
    <glyph glyph-name="Cacute" unicode="&#x106;" horiz-adv-x="1278" 
d="M782 -25q-330 0 -519 194t-189 527.5t212.5 547.5t551.5 214q210 0 354 -53v-311q-144 86 -337 86t-317 -127t-124 -339.5t117 -336t310.5 -123.5t350.5 92v-295q-157 -76 -410 -76zM1159 1890l-313 -323h-228l260 323h281z" />
    <glyph glyph-name="cacute" unicode="&#x107;" horiz-adv-x="983" 
d="M583 -25q-219 0 -365 143t-146 386.5t156.5 394t418.5 150.5q181 0 262 -48v-268q-99 74 -228 74t-208.5 -79.5t-79.5 -217.5t76 -215.5t201.5 -77.5t238.5 74v-254q-107 -62 -326 -62zM926 1509l-313 -323h-228l260 323h281z" />
    <glyph glyph-name="Ccircumflex" unicode="&#x108;" horiz-adv-x="1278" 
d="M782 -25q-330 0 -519 194t-189 527.5t212.5 547.5t551.5 214q210 0 354 -53v-311q-144 86 -337 86t-317 -127t-124 -339.5t117 -336t310.5 -123.5t350.5 92v-295q-157 -76 -410 -76zM1159 1567h-207l-158 188l-147 -188h-207l235 325h248z" />
    <glyph glyph-name="ccircumflex" unicode="&#x109;" horiz-adv-x="983" 
d="M583 -25q-219 0 -365 143t-146 386.5t156.5 394t418.5 150.5q181 0 262 -48v-268q-99 74 -228 74t-208.5 -79.5t-79.5 -217.5t76 -215.5t201.5 -77.5t238.5 74v-254q-107 -62 -326 -62zM953 1186h-207l-158 188l-147 -188h-207l235 325h248z" />
    <glyph glyph-name="Cdotaccent" unicode="&#x10a;" horiz-adv-x="1278" 
d="M782 -25q-330 0 -519 194t-189 527.5t212.5 547.5t551.5 214q210 0 354 -53v-311q-144 86 -337 86t-317 -127t-124 -339.5t117 -336t310.5 -123.5t350.5 92v-295q-157 -76 -410 -76zM819 1567q-67 0 -110.5 40t-43.5 98.5t44 96t110.5 37.5t109 -38t42.5 -97t-42.5 -98
t-109.5 -39z" />
    <glyph glyph-name="cdotaccent" unicode="&#x10b;" horiz-adv-x="983" 
d="M583 -25q-219 0 -365 143t-146 386.5t156.5 394t418.5 150.5q181 0 262 -48v-268q-99 74 -228 74t-208.5 -79.5t-79.5 -217.5t76 -215.5t201.5 -77.5t238.5 74v-254q-107 -62 -326 -62zM610 1186q-67 0 -110.5 40t-43.5 98.5t44 96t110.5 37.5t109 -38t42.5 -97
t-42.5 -98t-109.5 -39z" />
    <glyph glyph-name="Ccaron" unicode="&#x10c;" horiz-adv-x="1278" 
d="M782 -25q-330 0 -519 194t-189 527.5t212.5 547.5t551.5 214q210 0 354 -53v-311q-144 86 -337 86t-317 -127t-124 -339.5t117 -336t310.5 -123.5t350.5 92v-295q-157 -76 -410 -76zM1163 1892l-238 -325h-248l-235 325h205l155 -188l156 188h205z" />
    <glyph glyph-name="ccaron" unicode="&#x10d;" horiz-adv-x="983" 
d="M583 -25q-219 0 -365 143t-146 386.5t156.5 394t418.5 150.5q181 0 262 -48v-268q-99 74 -228 74t-208.5 -79.5t-79.5 -217.5t76 -215.5t201.5 -77.5t238.5 74v-254q-107 -62 -326 -62zM950 1511l-238 -325h-248l-235 325h205l155 -188l156 188h205z" />
    <glyph glyph-name="Dcaron" unicode="&#x10e;" horiz-adv-x="1510" 
d="M487 1171v-909h160q210 0 329.5 126t119.5 337t-118.5 328.5t-332.5 117.5h-158zM164 0v1434h508q764 0 764 -699q0 -335 -208.5 -535t-555.5 -200h-508zM1077 1892l-238 -325h-248l-235 325h205l155 -188l156 188h205z" />
    <glyph glyph-name="dcaron" unicode="&#x10f;" horiz-adv-x="1517" 
d="M825 498v77q0 100 -58 166t-157 66t-158 -82.5t-59 -222.5t57 -212q58 -72 156 -72.5t158.5 76.5t60.5 204zM1135 0h-316v141h-4q-109 -166 -309 -166t-317 135.5t-117 383.5t129 401.5t333 153.5t281 -142h4v609h316v-1516zM1580 1516l-168 -352h-194l90 352h272z" />
    <glyph glyph-name="Dcroat" unicode="&#x110;" horiz-adv-x="1510" 
d="M487 1171v-319h271v-266h-271v-324h160q210 0 329.5 126t119.5 337t-118.5 328.5t-332.5 117.5h-158zM164 0v586h-164v266h164v582h508q764 0 764 -699q0 -335 -208.5 -535t-555.5 -200h-508z" />
    <glyph glyph-name="dcroat" unicode="&#x111;" horiz-adv-x="1295" 
d="M825 498v77q0 100 -58 166t-157 66t-158 -82.5t-59 -222.5t57 -212q58 -72 156 -72.5t158.5 76.5t60.5 204zM1278 1171h-143v-1171h-316v141h-4q-109 -166 -309 -166t-317 135.5t-117 383.5t129 401.5t333 153.5t281 -142h4v264h-330v205h330v140h316v-140h143v-205z" />
    <glyph glyph-name="Emacron" unicode="&#x112;" horiz-adv-x="1090" 
d="M1024 0h-860v1434h827v-263h-504v-319h469v-262h-469v-328h537v-262zM864 1567h-586v172h586v-172z" />
    <glyph glyph-name="emacron" unicode="&#x113;" horiz-adv-x="1108" 
d="M760 616q0 220 -178 220q-76 0 -131.5 -63t-67.5 -157h377zM1053 422h-668q16 -223 281 -223q169 0 297 80v-228q-141 -76 -379 -76t-375 137.5t-137 387.5t148 399.5t368 149.5t342.5 -133t122.5 -361v-133zM867 1186h-586v172h586v-172z" />
    <glyph glyph-name="Ebreve" unicode="&#x114;" horiz-adv-x="1090" 
d="M1024 0h-860v1434h827v-263h-504v-319h469v-262h-469v-328h537v-262zM586.5 1567q-146.5 0 -238.5 85.5t-96 221.5h179q17 -135 156.5 -135t158.5 135h180q-12 -141 -102.5 -224t-237 -83z" />
    <glyph glyph-name="ebreve" unicode="&#x115;" horiz-adv-x="1108" 
d="M760 616q0 220 -178 220q-76 0 -131.5 -63t-67.5 -157h377zM1053 422h-668q16 -223 281 -223q169 0 297 80v-228q-142 -76 -379.5 -76t-374.5 137.5t-137 388t148 399.5t368 149t342.5 -133t122.5 -361v-133zM571.5 1186q-146.5 0 -238.5 85.5t-96 221.5h179
q17 -135 156.5 -135t158.5 135h180q-12 -141 -102.5 -224t-237 -83z" />
    <glyph glyph-name="Edotaccent" unicode="&#x116;" horiz-adv-x="1090" 
d="M1024 0h-860v1434h827v-263h-504v-319h469v-262h-469v-328h537v-262zM589 1567q-67 0 -111 40q-44 41 -43.5 99t44.5 96q45 38 111 37.5t108.5 -38.5t42.5 -97t-42.5 -98t-109.5 -39z" />
    <glyph glyph-name="edotaccent" unicode="&#x117;" horiz-adv-x="1108" 
d="M760 616q0 220 -178 220q-76 0 -131.5 -63t-67.5 -157h377zM1053 422h-668q16 -223 281 -223q169 0 297 80v-228q-141 -76 -379 -76t-375 137.5t-137 387.5t148 399.5t368 149.5t342.5 -133t122.5 -361v-133zM596 1186q-67 0 -110.5 40t-43.5 98t44 96t110 38t109 -38
t43 -97t-42.5 -98t-109.5 -39z" />
    <glyph glyph-name="Eogonek" unicode="&#x118;" horiz-adv-x="1090" 
d="M658 -374.5q-51 44.5 -51 138.5t95 183q31 29 71 53h-609v1434h827v-263h-504v-319h469v-262h-469v-328h537v-262h-96q-153 -112 -153 -208q0 -66 63 -66q41 0 81 12l1 -138q-57 -19 -134 -19t-128 44.5z" />
    <glyph glyph-name="eogonek" unicode="&#x119;" horiz-adv-x="1108" 
d="M760 616q0 220 -178 220q-76 0 -131.5 -63t-67.5 -157h377zM495 -245q0 124 129 220h-30q-248 0 -385 137.5t-137 388t148 399.5t368 149t342.5 -133t122.5 -361v-133h-668q16 -223 281 -223q169 0 297 80v-228q-67 -36 -152 -55q-148 -110 -148 -204q0 -66 63 -66
q41 0 81 12l1 -138q-57 -19 -134 -19t-128 44.5t-51 129.5z" />
    <glyph glyph-name="Ecaron" unicode="&#x11a;" horiz-adv-x="1090" 
d="M1024 0h-860v1434h827v-263h-504v-319h469v-262h-469v-328h537v-262zM954 1892l-238 -325h-248l-235 325h205l155 -188l156 188h205z" />
    <glyph glyph-name="ecaron" unicode="&#x11b;" horiz-adv-x="1108" 
d="M760 616q0 220 -178 220q-76 0 -131.5 -63t-67.5 -157h377zM1053 422h-668q16 -223 281 -223q169 0 297 80v-228q-141 -76 -379 -76t-375 137.5t-137 387.5t148 399.5t368 149.5t342.5 -133t122.5 -361v-133zM935 1511l-238 -325h-248l-235 325h205l155 -188l156 188h205
z" />
    <glyph glyph-name="Gcircumflex" unicode="&#x11c;" horiz-adv-x="1456" 
d="M802 -25q-329 0 -528.5 191.5t-199.5 528.5t218 550t580 213q228 0 402 -63v-303q-166 96 -406 96q-201 0 -327.5 -130.5t-126.5 -350t113.5 -340.5t306.5 -121q116 0 184 33v280h-287v258h610v-721q-210 -121 -539 -121zM1196 1567h-207l-158 188l-147 -188h-207
l235 325h248z" />
    <glyph glyph-name="gcircumflex" unicode="&#x11d;" horiz-adv-x="1268" 
d="M825 492v81q0 97 -57.5 165.5t-155.5 68.5t-158 -82q-60 -83 -60.5 -221t56.5 -212q58 -74 156 -74.5t158.5 75t60.5 199.5zM1137 117q0 -285 -165 -441.5t-478 -156.5q-207 0 -328 59v266q158 -92 318 -92t248.5 84.5t88.5 229.5v81h-4q-107 -172 -311 -172t-319 138
t-115 384t128 399t326 153t291 -144h4v119h316v-907zM993 1186h-207l-158 188l-147 -188h-207l235 325h248z" />
    <glyph glyph-name="Gbreve" unicode="&#x11e;" horiz-adv-x="1456" 
d="M802 -25q-329 0 -528.5 191.5t-199.5 528.5t218 550t580 213q228 0 402 -63v-303q-166 96 -406 96q-201 0 -327.5 -130.5t-126.5 -350t113.5 -340.5t306.5 -121q116 0 184 33v280h-287v258h610v-721q-210 -121 -539 -121zM803.5 1567q-146.5 0 -238.5 85.5t-96 221.5h179
q17 -135 156.5 -135t158.5 135h180q-12 -141 -102.5 -224t-237 -83z" />
    <glyph glyph-name="gbreve" unicode="&#x11f;" horiz-adv-x="1268" 
d="M825 492v81q0 97 -57.5 165.5t-156 68.5t-158.5 -82t-60 -220.5t57 -213t155.5 -74.5t159 75.5t60.5 199.5zM1137 117q0 -285 -165 -441.5t-478 -156.5q-207 0 -328 59v266q158 -92 318.5 -92t248.5 84.5t88 229.5v81h-4q-108 -172 -311.5 -172t-318.5 138t-115 384
t128 399t326 153t291 -144h4v119h316v-907zM631.5 1186q-146.5 0 -238.5 85.5t-96 221.5h179q17 -135 156.5 -135t158.5 135h180q-12 -141 -102.5 -224t-237 -83z" />
    <glyph glyph-name="Gdotaccent" unicode="&#x120;" horiz-adv-x="1456" 
d="M802 -25q-329 0 -528.5 191.5t-199.5 528.5t218 550t580 213q228 0 402 -63v-303q-166 96 -406 96q-201 0 -327.5 -130.5t-126.5 -350t113.5 -340.5t306.5 -121q116 0 184 33v280h-287v258h610v-721q-210 -121 -539 -121zM819 1567q-67 0 -110.5 40t-43.5 98.5t44 96
t110.5 37.5t109 -38t42.5 -97t-42.5 -98t-109.5 -39z" />
    <glyph glyph-name="gdotaccent" unicode="&#x121;" horiz-adv-x="1268" 
d="M825 492v81q0 97 -57.5 165.5t-155.5 68.5t-158 -82q-60 -83 -60.5 -221t56.5 -212q58 -74 156 -74.5t158.5 75t60.5 199.5zM1137 117q0 -285 -165 -441.5t-478 -156.5q-207 0 -328 59v266q158 -92 318 -92t248.5 84.5t88.5 229.5v81h-4q-107 -172 -311 -172t-319 138
t-115 384t128 399t326 153t291 -144h4v119h316v-907zM634 1186q-67 0 -110.5 40t-43.5 98t44 96t110 38t109 -38t43 -97t-42.5 -98t-109.5 -39z" />
    <glyph glyph-name="Gcommaaccent" unicode="&#x122;" horiz-adv-x="1456" 
d="M802 -25q-329 0 -528.5 191.5t-199.5 528.5t218 550t580 213q228 0 402 -63v-303q-166 96 -406 96q-201 0 -327.5 -130.5t-126.5 -350t113.5 -340.5t306.5 -121q116 0 184 33v280h-287v258h610v-721q-210 -121 -539 -121zM972 -117l-168 -352h-194l90 352h272z" />
    <glyph glyph-name="gcommaaccent" unicode="&#x123;" horiz-adv-x="1268" 
d="M825 492v81q0 97 -57.5 165.5t-155.5 68.5t-158 -82q-60 -83 -60.5 -221t56.5 -212q58 -74 156 -74.5t158.5 75t60.5 199.5zM1137 117q0 -285 -165 -441.5t-478 -156.5q-207 0 -328 59v266q158 -92 318 -92t248.5 84.5t88.5 229.5v81h-4q-107 -172 -311 -172t-319 138
t-115 384t128 399t326 153t291 -144h4v119h316v-907zM821 1538l-90 -352h-272l168 352h194z" />
    <glyph glyph-name="Hcircumflex" unicode="&#x124;" horiz-adv-x="1569" 
d="M1405 0h-324v584h-594v-584h-323v1434h323v-572h594v572h324v-1434zM1144 1567h-207l-158 188l-147 -188h-207l235 325h248z" />
    <glyph glyph-name="hcircumflex" unicode="&#x125;" horiz-adv-x="1233" 
d="M1116 0h-315v582q0 225 -164 225q-84 0 -136 -63t-52 -160v-584h-316v1516h316v-644h4q116 177 315 177q348 0 348 -420v-629zM1012 1567h-207l-158 188l-147 -188h-207l235 325h248z" />
    <glyph glyph-name="Hbar" unicode="&#x126;" horiz-adv-x="1569" 
d="M1081 862v156h-594v-156h594zM1569 1018h-164v-1018h-324v584h-594v-584h-323v1018h-164v205h164v211h323v-211h594v211h324v-211h164v-205z" />
    <glyph glyph-name="hbar" unicode="&#x127;" horiz-adv-x="1262" 
d="M1149 0h-311v553q0 225 -164 225q-88 0 -138.5 -61t-50.5 -158v-559h-315v1179h-143v159h143v178h315v-178h330v-159h-330v-329h4q116 176 316 176q344 0 344 -420v-606z" />
    <glyph glyph-name="Itilde" unicode="&#x128;" horiz-adv-x="649" 
d="M607 1434v-250h-120v-934h120v-250h-563v250h120v934h-120v250h563zM684 1860q0 -140 -55.5 -216.5t-146.5 -76.5q-90 0 -176 45t-120 45q-80 0 -80 -108h-141q0 139 55 216t145 77t173 -46t124 -47q78 0 78 111h144z" />
    <glyph glyph-name="itilde" unicode="&#x129;" horiz-adv-x="582" 
d="M449 0h-316v1024h316v-1024zM650 1497q0 -140 -55.5 -216.5t-146.5 -76.5q-90 0 -176 45t-120 45q-80 0 -80 -108h-141q0 139 55 216t145 77q90 -1 173 -47t124 -46q78 0 78 111h144z" />
    <glyph glyph-name="Imacron" unicode="&#x12a;" horiz-adv-x="649" 
d="M607 1434v-250h-120v-934h120v-250h-563v250h120v934h-120v250h563zM617 1567h-586v172h586v-172z" />
    <glyph glyph-name="imacron" unicode="&#x12b;" horiz-adv-x="582" 
d="M449 0h-316v1024h316v-1024zM584 1186h-586v172h586v-172z" />
    <glyph glyph-name="Ibreve" unicode="&#x12c;" horiz-adv-x="649" 
d="M607 1434v-250h-120v-934h120v-250h-563v250h120v934h-120v250h563zM322.5 1567q-146.5 0 -238.5 85.5t-96 221.5h179q17 -135 156.5 -135t158.5 135h180q-12 -141 -102.5 -224t-237 -83z" />
    <glyph glyph-name="ibreve" unicode="&#x12d;" horiz-adv-x="582" 
d="M449 0h-316v1024h316v-1024zM288.5 1186q-146.5 0 -238.5 85.5t-96 221.5h179q17 -135 156.5 -135t158.5 135h180q-12 -141 -102.5 -224t-237 -83z" />
    <glyph glyph-name="Iogonek" unicode="&#x12e;" horiz-adv-x="649" 
d="M216 -374.5q-51 44.5 -51 138.5t95 183q31 29 71 53h-287v250h120v934h-120v250h563v-250h-120v-934h120v-250h-121q-153 -112 -153 -208q0 -66 63 -66q41 0 81 12l1 -138q-57 -19 -134 -19t-128 44.5z" />
    <glyph glyph-name="iogonek" unicode="&#x12f;" horiz-adv-x="582" 
d="M293.5 1186q-80.5 0 -131.5 47.5t-51 117.5t51 115t131.5 45t131 -45t50.5 -116.5t-50.5 -117.5t-131 -46zM307 -419q-77 0 -128 44.5t-51 138.5t95 183q31 29 71 53h-161v1024h316v-1024q-153 -112 -153 -208q0 -66 63 -66q41 0 81 12l1 -138q-57 -19 -134 -19z" />
    <glyph glyph-name="Idotaccent" unicode="&#x130;" horiz-adv-x="649" 
d="M607 1434v-250h-120v-934h120v-250h-563v250h120v934h-120v250h563zM325 1567q-67 0 -111 40q-44 41 -43.5 99t44.5 96q45 38 111 37.5t108.5 -38.5t42.5 -97t-42.5 -98t-109.5 -39z" />
    <glyph glyph-name="dotlessi" unicode="&#x131;" horiz-adv-x="582" 
d="M449 0h-316v1024h316v-1024z" />
    <glyph glyph-name="IJ" unicode="&#x132;" horiz-adv-x="1561" 
d="M607 1434v-250h-120v-934h120v-250h-563v250h120v934h-120v250h563zM1412 569q0 -288 -133.5 -441t-386.5 -153q-113 0 -209 39v303q83 -63 186 -63q221 0 221 328v852h322v-865z" />
    <glyph glyph-name="ij" unicode="&#x133;" horiz-adv-x="1238" 
d="M449 0h-316v1024h316v-1024zM293.5 1186q-80.5 0 -131.5 47.5t-51 117.5t51 115t131.5 45t131 -45t50.5 -116.5t-50.5 -117.5t-131 -46zM1105 18q0 -227 -111 -363t-320 -136q-69 0 -151 30v248q66 -37 117 -37q149 0 149 234v1030h316v-1006zM949.5 1186
q-80.5 0 -131.5 47.5t-51 117.5t51 115t131.5 45t131 -45t50.5 -116.5t-50.5 -117.5t-131 -46z" />
    <glyph glyph-name="Jcircumflex" unicode="&#x134;" horiz-adv-x="912" 
d="M762 569q0 -288 -133.5 -441t-386.5 -153q-113 0 -209 39v303q83 -63 186 -63q221 0 221 328v852h322v-865zM959 1567h-207l-158 188l-147 -188h-207l235 325h248z" />
    <glyph glyph-name="jcircumflex" unicode="&#x135;" horiz-adv-x="582" 
d="M449 18q0 -227 -111 -363t-320 -136q-69 0 -151 30v248q66 -37 117 -37q149 0 149 234v1030h316v-1006zM649 1186h-207l-158 188l-147 -188h-207l235 325h248z" />
    <glyph glyph-name="Kcommaaccent" unicode="&#x136;" horiz-adv-x="1329" 
d="M487 702v-702h-323v1434h323v-678h5q12 28 40 80l396 598h385l-500 -684l543 -750h-408l-418 623q-12 18 -38 79h-5zM886 -117l-168 -352h-194l90 352h272z" />
    <glyph glyph-name="kcommaaccent" unicode="&#x137;" horiz-adv-x="1145" 
d="M449 508v-508h-316v1516h316v-965h4l305 473h375l-367 -481l393 -543h-379l-327 508h-4zM765 -117l-168 -352h-194l90 352h272z" />
    <glyph glyph-name="kgreenlandic" unicode="&#x138;" horiz-adv-x="1145" 
d="M449 508v-508h-316v1024h316v-473h4l305 473h375l-367 -481l393 -543h-379l-327 508h-4z" />
    <glyph glyph-name="Lacute" unicode="&#x139;" horiz-adv-x="1047" 
d="M1018 0h-854v1434h323v-1172h531v-262zM903 1890l-313 -323h-228l260 323h281z" />
    <glyph glyph-name="lacute" unicode="&#x13a;" horiz-adv-x="582" 
d="M449 0h-316v1516h316v-1516zM652 1972l-313 -323h-228l260 323h281z" />
    <glyph glyph-name="Lcommaaccent" unicode="&#x13b;" horiz-adv-x="1047" 
d="M506 -319q123 0 123 73q0 66 -111 66q-13 0 -37 -2v182h-317v1434h323v-1172h531v-262h-365v-82q187 -8 187 -166q0 -207 -318 -207q-46 0 -88 4v138q35 -6 72 -6z" />
    <glyph glyph-name="lcommaaccent" unicode="&#x13c;" horiz-adv-x="582" 
d="M199 -319q123 0 123 73q0 66 -111 66q-13 0 -37 -2v182h-41v1516h316v-1516h-103v-82q187 -8 187 -166q0 -207 -318 -207q-46 0 -88 4v138q35 -6 72 -6z" />
    <glyph glyph-name="Lcaron" unicode="&#x13d;" horiz-adv-x="1047" 
d="M1018 0h-854v1434h323v-1172h531v-262zM1054 1436l-168 -352h-194l90 352h272z" />
    <glyph glyph-name="lcaron" unicode="&#x13e;" horiz-adv-x="746" 
d="M449 0h-316v1516h316v-1516zM917 1516l-168 -352h-194l90 352h272z" />
    <glyph glyph-name="Ldot" unicode="&#x13f;" horiz-adv-x="1047" 
d="M1018 0h-854v1434h323v-1172h531v-262zM827 651q-67 0 -111 40q-44 41 -43.5 99t44.5 96q45 38 111 37.5t108.5 -38.5t42.5 -97t-42.5 -98t-109.5 -39z" />
    <glyph glyph-name="ldot" unicode="&#x140;" horiz-adv-x="887" 
d="M449 0h-316v1516h316v-1516zM735 590q-67 0 -110.5 40t-43.5 98t44 96q45 38 111 38t108.5 -38t42.5 -97t-42.5 -98t-109.5 -39z" />
    <glyph glyph-name="Lslash" unicode="&#x141;" horiz-adv-x="1047" 
d="M1018 0h-854v467l-162 -86v264l162 84v705h323v-549l283 149v-262l-283 -149v-361h531v-262z" />
    <glyph glyph-name="lslash" unicode="&#x142;" horiz-adv-x="643" 
d="M475 0h-315v473l-131 -84v258l131 82v787h315v-592l135 86v-256l-135 -86v-668z" />
    <glyph glyph-name="Nacute" unicode="&#x143;" horiz-adv-x="1618" 
d="M1454 0h-326l-591 901q-52 79 -72 119h-4q8 -76 8 -232v-788h-305v1434h348l569 -873q39 -59 72 -117h4q-8 50 -8 197v793h305v-1434zM1143 1890l-313 -323h-228l260 323h281z" />
    <glyph glyph-name="nacute" unicode="&#x144;" horiz-adv-x="1239" 
d="M1122 0h-315v569q0 238 -170 238q-82 0 -135 -63t-53 -160v-584h-316v1024h316v-162h4q113 187 329 187q340 0 340 -422v-627zM972 1509l-313 -323h-228l260 323h281z" />
    <glyph glyph-name="Ncommaaccent" unicode="&#x145;" horiz-adv-x="1618" 
d="M1454 0h-326l-591 901q-52 79 -72 119h-4q8 -76 8 -232v-788h-305v1434h348l569 -873q39 -59 72 -117h4q-8 50 -8 197v793h305v-1434zM990 -117l-168 -352h-194l90 352h272z" />
    <glyph glyph-name="ncommaaccent" unicode="&#x146;" horiz-adv-x="1239" 
d="M1122 0h-315v569q0 238 -170 238q-82 0 -135 -63t-53 -160v-584h-316v1024h316v-162h4q113 187 329 187q340 0 340 -422v-627zM800 -117l-168 -352h-194l90 352h272z" />
    <glyph glyph-name="Ncaron" unicode="&#x147;" horiz-adv-x="1618" 
d="M1454 0h-326l-591 901q-52 79 -72 119h-4q8 -76 8 -232v-788h-305v1434h348l569 -873q39 -59 72 -117h4q-8 50 -8 197v793h305v-1434zM1170 1892l-238 -325h-248l-235 325h205l155 -188l156 188h205z" />
    <glyph glyph-name="ncaron" unicode="&#x148;" horiz-adv-x="1239" 
d="M1122 0h-315v569q0 238 -170 238q-82 0 -135 -63t-53 -160v-584h-316v1024h316v-162h4q113 187 329 187q340 0 340 -422v-627zM1001 1511l-238 -325h-248l-235 325h205l155 -188l156 188h205z" />
    <glyph glyph-name="napostrophe" unicode="&#x149;" horiz-adv-x="1403" 
d="M1286 0h-315v569q0 238 -170 238q-84 0 -136.5 -63.5t-52.5 -159.5v-584h-315v1024h315v-162h4q113 187 330 187q340 0 340 -422v-627zM326 1468l-193 -444h-194l114 444h273z" />
    <glyph glyph-name="Eng" unicode="&#x14a;" horiz-adv-x="1618" 
d="M1454 80q0 -500 -397 -500q-119 0 -203 31v248q66 -37 139 -37q152 0 156 181l-612 898q-46 68 -72 119h-4q8 -76 8 -232v-788h-305v1434h348l569 -840q57 -84 72 -117h4q-8 50 -8 197v760h305v-1354z" />
    <glyph glyph-name="eng" unicode="&#x14b;" horiz-adv-x="1239" 
d="M1122 63q0 -485 -409 -485q-88 0 -172 31v248q66 -37 116 -37q150 0 150 233v516q0 238 -170 238q-82 0 -135 -63t-53 -160v-584h-316v1024h316v-162h4q113 187 329 187q340 0 340 -422v-564z" />
    <glyph glyph-name="Omacron" unicode="&#x14c;" horiz-adv-x="1553" 
d="M781.5 1180q-167.5 0 -267.5 -127.5t-100 -339t100 -335.5t264.5 -124t262.5 120.5t98 339t-95 342.5t-262.5 124zM774 -25q-312 0 -506 200.5t-194 531.5t197 541t513 210t505.5 -201t189.5 -534.5t-196.5 -540.5t-508.5 -207zM1069 1567h-586v172h586v-172z" />
    <glyph glyph-name="omacron" unicode="&#x14d;" horiz-adv-x="1252" 
d="M629 807q-112 0 -174 -77t-62 -218q0 -295 238 -295q227 0 227 295t-229 295zM623 -25q-258 0 -404.5 143.5t-146.5 393.5t152 393.5t409 143.5t402 -143.5t145 -389t-149.5 -393.5t-407.5 -148zM919 1186h-586v172h586v-172z" />
    <glyph glyph-name="Obreve" unicode="&#x14e;" horiz-adv-x="1553" 
d="M781.5 1180q-167.5 0 -267.5 -127.5t-100 -339t100 -335.5t264.5 -124t262.5 120.5t98 339t-95 342.5t-262.5 124zM774 -25q-312 0 -506 200.5t-194 531.5t197 541t513 210t505.5 -201t189.5 -534.5t-196.5 -540.5t-508.5 -207zM773.5 1567q-146.5 0 -238.5 85.5
t-96 221.5h179q17 -135 156.5 -135t158.5 135h180q-12 -141 -102.5 -224t-237 -83z" />
    <glyph glyph-name="obreve" unicode="&#x14f;" horiz-adv-x="1252" 
d="M629 807q-112 0 -174 -77t-62 -218q0 -295 238 -295q227 0 227 295t-229 295zM623 -25q-258 0 -404.5 143.5t-146.5 393.5t152 393.5t409 143.5t402 -143.5t145 -389t-149.5 -393.5t-407.5 -148zM623.5 1186q-146.5 0 -238.5 85.5t-96 221.5h179q17 -135 156.5 -135
t158.5 135h180q-12 -141 -102.5 -224t-237 -83z" />
    <glyph glyph-name="Ohungarumlaut" unicode="&#x150;" horiz-adv-x="1553" 
d="M781.5 1180q-167.5 0 -267.5 -127.5t-100 -339t100 -335.5t264.5 -124t262.5 120.5t98 339t-95 342.5t-262.5 124zM774 -25q-312 0 -506 200.5t-194 531.5t197 541t513 210t505.5 -201t189.5 -534.5t-196.5 -540.5t-508.5 -207zM899 1886l-248 -319h-211l211 319h248z
M1277 1886l-252 -319h-210l213 319h249z" />
    <glyph glyph-name="ohungarumlaut" unicode="&#x151;" horiz-adv-x="1252" 
d="M629 807q-112 0 -174 -77t-62 -218q0 -295 238 -295q227 0 227 295t-229 295zM623 -25q-258 0 -404.5 143.5t-146.5 393.5t152 393.5t409 143.5t402 -143.5t145 -389t-149.5 -393.5t-407.5 -148zM728 1505l-248 -319h-211l211 319h248zM1106 1505l-252 -319h-210l213 319
h249z" />
    <glyph glyph-name="OE" unicode="&#x152;" horiz-adv-x="1925" 
d="M782 1180q-168 0 -267 -129.5t-99 -338.5t101 -333.5t261 -124.5q116 0 213 51v823q-86 52 -209 52zM1860 0h-828q-26 0 -116.5 -12.5t-157.5 -12.5q-307 0 -495.5 203t-188.5 532.5t194 538.5t516 209q63 0 151.5 -12t108.5 -12h783v-263h-504v-323h469v-264h-469v-322
h537v-262z" />
    <glyph glyph-name="oe" unicode="&#x153;" horiz-adv-x="1893" 
d="M628.5 807q-110.5 0 -173 -77.5t-62.5 -217.5q0 -293 236 -293q229 0 229 297q0 138 -59.5 214.5t-170 76.5zM1542 616q0 220 -174 220q-80 0 -135 -63.5t-66 -156.5h375zM1837 422h-670q14 -223 283 -223q167 0 295 80v-228q-142 -76 -346 -76q-252 0 -391 189h-4
q-137 -187 -408 -187q-234 0 -379 143t-145 391t147 394t389 146q134 0 238.5 -49.5t154.5 -127.5h5q118 175 376 175q213 0 334 -134t121 -358v-135z" />
    <glyph glyph-name="Racute" unicode="&#x154;" horiz-adv-x="1337" 
d="M487 1192v-399h140q104 0 167.5 60.5t63.5 150.5q0 188 -225 188h-146zM574 549h-87v-549h-323v1434h512q522 0 522 -390q0 -146 -86 -251t-236 -148v-4q102 -32 220 -217l271 -424h-371l-223 369q-54 91 -99 136q-44 44 -100 44zM979 1890l-313 -323h-228l260 323h281z
" />
    <glyph glyph-name="racute" unicode="&#x155;" horiz-adv-x="815" 
d="M654.5 770q-89.5 0 -147.5 -75.5t-58 -205.5v-489h-316v1024h316v-190h4q75 208 270 208q50 0 78 -12v-291q-57 31 -146.5 31zM772 1509l-313 -323h-228l260 323h281z" />
    <glyph glyph-name="Rcommaaccent" unicode="&#x156;" horiz-adv-x="1337" 
d="M487 1192v-399h140q104 0 167.5 60.5t63.5 150.5q0 188 -225 188h-146zM574 549h-87v-549h-323v1434h512q522 0 522 -390q0 -146 -86 -251t-236 -148v-4q102 -32 220 -217l271 -424h-371l-223 369q-54 91 -99 136q-44 44 -100 44zM849 -117l-168 -352h-194l90 352h272z
" />
    <glyph glyph-name="rcommaaccent" unicode="&#x157;" horiz-adv-x="815" 
d="M654.5 770q-89.5 0 -147.5 -75.5t-58 -205.5v-489h-316v1024h316v-190h4q75 208 270 208q50 0 78 -12v-291q-57 31 -146.5 31zM593 -117l-168 -352h-194l90 352h272z" />
    <glyph glyph-name="Rcaron" unicode="&#x158;" horiz-adv-x="1337" 
d="M487 1192v-399h140q104 0 167.5 60.5t63.5 150.5q0 188 -225 188h-146zM574 549h-87v-549h-323v1434h512q522 0 522 -390q0 -146 -86 -251t-236 -148v-4q102 -32 220 -217l271 -424h-371l-223 369q-54 91 -99 136q-44 44 -100 44zM997 1892l-238 -325h-248l-235 325h205
l155 -188l156 188h205z" />
    <glyph glyph-name="rcaron" unicode="&#x159;" horiz-adv-x="815" 
d="M654.5 770q-89.5 0 -147.5 -75.5t-58 -205.5v-489h-316v1024h316v-190h4q75 208 270 208q50 0 78 -12v-291q-57 31 -146.5 31zM789 1511l-238 -325h-248l-235 325h205l155 -188l156 188h205z" />
    <glyph glyph-name="Sacute" unicode="&#x15a;" horiz-adv-x="1148" 
d="M493 229q178 -1 228 87q15 26 15 64q0 70 -90 130q-62 42 -225 109q-329 136 -329 413q0 213 159 319.5t389 106.5t373 -55v-299q-144 100 -326.5 100t-237.5 -86q-17 -26 -17 -60q0 -64 66 -112.5t179 -94.5q211 -87 305 -185.5t94 -262.5q0 -223 -169 -333
q-146 -94 -399.5 -94.5t-409.5 79.5v320q174 -146 395 -146zM879 1890l-313 -323h-228l260 323h281z" />
    <glyph glyph-name="sacute" unicode="&#x15b;" horiz-adv-x="901" 
d="M368 190q181 0 181 93q0 67 -172 117.5t-241.5 127.5t-69.5 179q0 179 129.5 260.5t292.5 81.5t302 -41v-244q-120 70 -244 70q-171 0 -171 -90q-1 -62 129 -104q121 -39 179 -69q169 -86 169 -243q0 -186 -144 -276q-125 -78 -311.5 -77.5t-330.5 52.5v256
q154 -93 302 -93zM793 1509l-313 -323h-228l260 323h281z" />
    <glyph glyph-name="Scircumflex" unicode="&#x15c;" horiz-adv-x="1148" 
d="M493 229q178 -1 228 87q15 26 15 64q0 70 -90 130q-62 42 -225 109q-329 136 -329 413q0 213 159 319.5t389 106.5t373 -55v-299q-144 100 -326.5 100t-237.5 -86q-17 -26 -17 -60q0 -64 66 -112.5t179 -94.5q211 -87 305 -185.5t94 -262.5q0 -223 -169 -333
q-146 -94 -399.5 -94.5t-409.5 79.5v320q174 -146 395 -146zM922 1567h-207l-158 188l-147 -188h-207l235 325h248z" />
    <glyph glyph-name="scircumflex" unicode="&#x15d;" horiz-adv-x="901" 
d="M368 190q181 0 181 93q0 67 -172 117.5t-241.5 127.5t-69.5 179q0 179 129.5 260.5t292.5 81.5t302 -41v-244q-120 70 -244 70q-171 0 -171 -90q-1 -62 129 -104q121 -39 179 -69q169 -86 169 -243q0 -186 -144 -276q-125 -78 -311.5 -77.5t-330.5 52.5v256
q154 -93 302 -93zM825 1186h-207l-158 188l-147 -188h-207l235 325h248z" />
    <glyph glyph-name="Scedilla" unicode="&#x15e;" horiz-adv-x="1148" 
d="M493 229q178 -1 228 87q15 26 15 64q0 70 -90 130q-62 42 -225 109q-329 136 -329 413q0 213 159 319.5t389 106.5t373 -55v-299q-144 100 -326.5 100t-237.5 -86q-17 -26 -17 -60q0 -64 66 -112.5t179 -94.5q211 -87 305 -185.5t94 -262.5q0 -223 -169 -333
q-78 -50 -151.5 -66t-119.5 -22v-64q187 -8 187 -166q0 -207 -318 -207q-46 0 -88 4v138q35 -6 72 -6q123 0 123 73q0 66 -111 66q-13 0 -37 -2v158q-225 7 -366 79v320q174 -146 395 -146z" />
    <glyph glyph-name="scedilla" unicode="&#x15f;" horiz-adv-x="901" 
d="M368 190q181 0 181 93q0 67 -172 117.5t-241.5 127.5t-69.5 179q0 179 129.5 260.5t292.5 81.5t302 -41v-244q-120 70 -244 70q-171 0 -171 -90q-1 -62 129 -104q121 -39 179 -69q169 -86 169 -243q0 -106 -40 -170q-87 -143 -314 -175v-65q187 -8 187 -166
q0 -207 -318 -207q-46 0 -88 4v138q35 -6 72 -6q123 0 123 73q0 66 -111 66q-13 0 -37 -2v158q-139 7 -260 51v256q154 -93 302 -93z" />
    <glyph glyph-name="Scaron" unicode="&#x160;" horiz-adv-x="1148" 
d="M493 229q178 -1 228 87q15 26 15 64q0 70 -90 130q-62 42 -225 109q-329 136 -329 413q0 213 159 319.5t389 106.5t373 -55v-299q-144 100 -326.5 100t-237.5 -86q-17 -26 -17 -60q0 -64 66 -112.5t179 -94.5q211 -87 305 -185.5t94 -262.5q0 -223 -169 -333
q-146 -94 -399.5 -94.5t-409.5 79.5v320q174 -146 395 -146zM973 1861l-238 -325h-248l-235 325h205l155 -188l156 188h205z" />
    <glyph glyph-name="scaron" unicode="&#x161;" horiz-adv-x="901" 
d="M368 190q181 0 181 93q0 67 -172 117.5t-241.5 127.5t-69.5 179q0 179 129.5 260.5t292.5 81.5t302 -41v-244q-120 70 -244 70q-171 0 -171 -90q-1 -62 129 -104q121 -39 179 -69q169 -86 169 -243q0 -186 -144 -276q-125 -78 -311.5 -77.5t-330.5 52.5v256
q154 -93 302 -93zM811 1511l-238 -325h-248l-235 325h205l155 -188l156 188h205z" />
    <glyph glyph-name="Tcedilla" unicode="&#x162;" horiz-adv-x="1200" 
d="M1171 1171h-409v-1171h-117v-82q187 -8 187 -166q0 -207 -318 -207q-46 0 -88 4v138q35 -6 72 -6q123 0 123 73q0 66 -111 66q-13 0 -37 -2v182h-35v1171h-407v263h1140v-263z" />
    <glyph glyph-name="tcedilla" unicode="&#x163;" horiz-adv-x="797" 
d="M410 -319q123 0 123 73q0 66 -111 66q-13 0 -37 -2v182h1q-179 68 -179 322v469h-166v233h166v221l315 90v-311h230v-233h-230v-414q0 -160 127 -160q50 0 103 29v-234q-66 -35 -195 -37v-57q187 -8 187 -166q0 -207 -318 -207q-46 0 -88 4v138q35 -6 72 -6z" />
    <glyph glyph-name="Tcaron" unicode="&#x164;" horiz-adv-x="1200" 
d="M1171 1171h-409v-1171h-324v1171h-407v263h1140v-263zM961 1892l-238 -325h-248l-235 325h205l155 -188l156 188h205z" />
    <glyph glyph-name="tcaron" unicode="&#x165;" horiz-adv-x="1050" 
d="M541 -25q-334 0 -334 347v469h-166v233h166v221l315 90v-311h230v-233h-230v-414q0 -160 127 -160q50 0 103 29v-234q-70 -37 -211 -37zM1113 1516l-168 -352h-194l90 352h272z" />
    <glyph glyph-name="Tbar" unicode="&#x166;" horiz-adv-x="1200" 
d="M1171 1171h-409v-366h237v-266h-237v-539h-324v539h-237v266h237v366h-407v263h1140v-263z" />
    <glyph glyph-name="tbar" unicode="&#x167;" horiz-adv-x="797" 
d="M541 -25q-334 0 -334 347v120h-146v205h146v144h-166v233h166v221l315 90v-311h230v-233h-230v-144h219v-205h-219v-65q0 -160 127 -160q50 0 103 29v-234q-70 -37 -211 -37z" />
    <glyph glyph-name="Utilde" unicode="&#x168;" horiz-adv-x="1481" 
d="M1333 621q0 -646 -602 -646q-584 0 -584 631v828h324v-832q0 -348 272 -348q267 0 267 336v844h323v-813zM1100 1829q0 -140 -55.5 -216.5t-146.5 -76.5q-90 0 -176 45t-120 45q-80 0 -80 -108h-141q0 139 55 216t145 77q90 -1 173 -47t124 -46q78 0 78 111h144z" />
    <glyph glyph-name="utilde" unicode="&#x169;" horiz-adv-x="1239" 
d="M1106 0h-315v156h-5q-117 -181 -313 -181q-356 0 -356 431v618h315v-590q0 -217 172 -217q85 0 136 59.5t51 161.5v586h315v-1024zM979 1497q0 -140 -55.5 -216.5t-146.5 -76.5t-177 45t-119 45q-80 0 -80 -108h-141q0 139 55 216t145 77q90 -1 173 -47t124 -46
q78 0 78 111h144z" />
    <glyph glyph-name="Umacron" unicode="&#x16a;" horiz-adv-x="1481" 
d="M1333 621q0 -646 -602 -646q-584 0 -584 631v828h324v-832q0 -348 272 -348q267 0 267 336v844h323v-813zM1033 1567h-586v172h586v-172z" />
    <glyph glyph-name="umacron" unicode="&#x16b;" horiz-adv-x="1239" 
d="M1106 0h-315v156h-5q-117 -181 -313 -181q-356 0 -356 431v618h315v-590q0 -217 172 -217q85 0 136 59.5t51 161.5v586h315v-1024zM912 1186h-586v172h586v-172z" />
    <glyph glyph-name="Ubreve" unicode="&#x16c;" horiz-adv-x="1481" 
d="M1333 621q0 -646 -602 -646q-584 0 -584 631v828h324v-832q0 -348 272 -348q267 0 267 336v844h323v-813zM737.5 1567q-146.5 0 -238.5 85.5t-96 221.5h179q17 -135 156.5 -135t158.5 135h180q-12 -141 -102.5 -224t-237 -83z" />
    <glyph glyph-name="ubreve" unicode="&#x16d;" horiz-adv-x="1239" 
d="M1106 0h-315v156h-5q-117 -181 -313 -181q-356 0 -356 431v618h315v-590q0 -217 172 -217q85 0 136 59.5t51 161.5v586h315v-1024zM616.5 1186q-146.5 0 -238.5 85.5t-96 221.5h179q17 -135 156.5 -135t158.5 135h180q-12 -141 -102.5 -224t-237 -83z" />
    <glyph glyph-name="Uring" unicode="&#x16e;" horiz-adv-x="1481" 
d="M1333 621q0 -646 -602 -646q-584 0 -584 631v828h324v-832q0 -348 272 -348q267 0 267 336v844h323v-813zM736 1880q-96 0 -96 -94t96 -94q45 0 74 27.5t29 67.5t-28.5 66.5t-74.5 26.5zM735.5 1567q-101.5 0 -168 59.5t-66.5 158t69.5 158.5t173.5 60t170 -59.5
t66 -156.5t-71.5 -158.5t-173 -61.5z" />
    <glyph glyph-name="uring" unicode="&#x16f;" horiz-adv-x="1239" 
d="M1106 0h-315v156h-5q-117 -181 -313 -181q-356 0 -356 431v618h315v-590q0 -217 172 -217q85 0 136 59.5t51 161.5v586h315v-1024zM615 1499q-96 0 -96 -94t96 -94q45 0 74 27.5t29 67.5t-28.5 66.5t-74.5 26.5zM614.5 1186q-101.5 0 -168 59.5t-66.5 158t69.5 158.5
t173.5 60t170 -59.5t66 -156.5t-71.5 -158.5t-173 -61.5z" />
    <glyph glyph-name="Uhungarumlaut" unicode="&#x170;" horiz-adv-x="1481" 
d="M1333 621q0 -646 -602 -646q-584 0 -584 631v828h324v-832q0 -348 272 -348q267 0 267 336v844h323v-813zM843 1886l-248 -319h-211l211 319h248zM1221 1886l-252 -319h-210l213 319h249z" />
    <glyph glyph-name="uhungarumlaut" unicode="&#x171;" horiz-adv-x="1239" 
d="M1106 0h-315v156h-5q-117 -181 -313 -181q-356 0 -356 431v618h315v-590q0 -217 172 -217q85 0 136 59.5t51 161.5v586h315v-1024zM712 1505l-248 -319h-211l211 319h248zM1090 1505l-252 -319h-210l213 319h249z" />
    <glyph glyph-name="Uogonek" unicode="&#x172;" horiz-adv-x="1481" 
d="M790 -419q-77 0 -128 44.5t-51 129.5q0 124 129 220h-9q-584 0 -584 631v828h324v-832q0 -348 272 -348q267 0 267 336v844h323v-813q0 -531 -407 -626q-147 -109 -147 -203q0 -66 63 -66q41 0 81 12l1 -138q-57 -19 -134 -19z" />
    <glyph glyph-name="uogonek" unicode="&#x173;" horiz-adv-x="1239" 
d="M678 -374.5q-51 44.5 -51 138.5t95 183q31 29 71 53h-2v156h-5q-117 -181 -313 -181q-356 0 -356 431v618h315v-590q0 -217 172 -217q85 0 136 59.5t51 161.5v586h315v-1024h-158q-153 -112 -153 -208q0 -66 63 -66q41 0 81 12l1 -138q-57 -19 -134 -19t-128 44.5z" />
    <glyph glyph-name="Wcircumflex" unicode="&#x174;" horiz-adv-x="2058" 
d="M2040 1434l-379 -1434h-358l-238 920q-19 72 -23 161h-4q-9 -98 -26 -161l-244 -920h-373l-377 1434h353l202 -955q13 -61 19 -164h6q4 77 29 168l260 951h346l235 -963q13 -53 23 -154h4q4 79 21 160l198 957h326zM1389 1567h-207l-158 188l-147 -188h-207l235 325h248z
" />
    <glyph glyph-name="wcircumflex" unicode="&#x175;" horiz-adv-x="1633" 
d="M1616 1024l-295 -1024h-332l-151 600q-15 60 -17 131h-6q-7 -78 -20 -127l-162 -604h-328l-289 1024h322l141 -668q10 -47 15 -114h6q5 70 18 118l176 664h301l158 -668q6 -25 14 -116h7q5 58 16 116l133 668h293zM1176 1186h-207l-158 188l-147 -188h-207l235 325h248z
" />
    <glyph glyph-name="Ycircumflex" unicode="&#x176;" horiz-adv-x="1243" 
d="M778 0h-323v504l-455 930h369l231 -535q6 -15 33 -117h4q13 72 31 113l235 539h342l-467 -924v-510zM981 1567h-207l-158 188l-147 -188h-207l235 325h248z" />
    <glyph glyph-name="ycircumflex" unicode="&#x177;" horiz-adv-x="1102" 
d="M240 -481q-115 0 -189 26v252q63 -37 137 -37q122 0 170 115l54 127l-416 1022h350l191 -623q18 -58 28 -137h4q9 58 33 135l193 625h313l-416 -1106q-150 -399 -452 -399zM910 1186h-207l-158 188l-147 -188h-207l235 325h248z" />
    <glyph glyph-name="Ydieresis" unicode="&#x178;" horiz-adv-x="1243" 
d="M778 0h-323v504l-455 930h369l231 -535q6 -15 33 -117h4q13 72 31 113l235 539h342l-467 -924v-510zM400 1567q-68 0 -111 39.5t-43 98.5t44 97.5t111 38.5t109.5 -38.5t42.5 -99t-42.5 -98.5t-110.5 -38zM858.5 1567q-67.5 0 -110.5 39t-43 99t43 98t110 38t110.5 -38.5
t43.5 -98.5t-43 -98.5t-110.5 -38.5z" />
    <glyph glyph-name="Zacute" unicode="&#x179;" horiz-adv-x="1243" 
d="M1196 0h-1155v186l735 985h-682v263h1100v-181l-719 -991h721v-262zM967 1890l-313 -323h-228l260 323h281z" />
    <glyph glyph-name="zacute" unicode="&#x17a;" horiz-adv-x="981" 
d="M944 0h-919v131l514 660h-463v233h864v-156l-487 -635h491v-233zM836 1509l-313 -323h-228l260 323h281z" />
    <glyph glyph-name="Zdotaccent" unicode="&#x17b;" horiz-adv-x="1243" 
d="M1196 0h-1155v186l735 985h-682v263h1100v-181l-719 -991h721v-262zM641 1567q-67 0 -111 40q-44 41 -43.5 99t44.5 96q45 38 111 37.5t108.5 -38.5t42.5 -97t-42.5 -98t-109.5 -39z" />
    <glyph glyph-name="zdotaccent" unicode="&#x17c;" horiz-adv-x="981" 
d="M944 0h-919v131l514 660h-463v233h864v-156l-487 -635h491v-233zM512 1186q-67 0 -110.5 40t-43.5 98t44 96t110 38t109 -38t43 -97t-42.5 -98t-109.5 -39z" />
    <glyph glyph-name="Zcaron" unicode="&#x17d;" horiz-adv-x="1243" 
d="M1196 0h-1155v186l735 985h-682v263h1100v-181l-719 -991h721v-262zM990 1858l-238 -325h-248l-235 325h205l155 -188l156 188h205z" />
    <glyph glyph-name="zcaron" unicode="&#x17e;" horiz-adv-x="981" 
d="M944 0h-919v131l514 660h-463v233h864v-156l-487 -635h491v-233zM872 1511l-238 -325h-248l-235 325h205l155 -188l156 188h205z" />
    <glyph glyph-name="longs" unicode="&#x17f;" horiz-adv-x="613" 
d="M600 1298q-151 0 -151 -165v-1133h-316v1151q0 175 114 282t310 107q96 0 160 -20v-246q-61 24 -117 24z" />
    <glyph glyph-name="uni0180" unicode="&#x180;" horiz-adv-x="1270" 
d="M444 551v-105q0 -99 57 -164t155.5 -65t158 83.5t59.5 223.5t-54.5 211.5t-152.5 71.5t-160.5 -71t-62.5 -185zM449 119v-119h-316v1171h-151v205h151v140h316v-140h233v-205h-233v-301h4q117 179 324 179t314 -136t107 -382t-125 -401t-324 -155t-296 144h-4z" />
    <glyph glyph-name="uni0181" unicode="&#x181;" horiz-adv-x="1622" 
d="M795 616v-378h174q112 0 175.5 52t63.5 140t-62.5 137t-174.5 49h-176zM795 1196v-340h141q100 0 157.5 48.5t57.5 133.5q0 158 -236 158h-120zM471 0v1196h-45q-84 0 -136 -54t-52 -128t22 -142h-287q-24 65 -24 148q0 180 131.5 297t357.5 117h555q240 0 369 -88
t129 -248q0 -117 -79 -204t-200 -120v-4q153 -19 244.5 -113t91.5 -229q0 -197 -141 -312.5t-385 -115.5h-551z" />
    <glyph glyph-name="uni0182" unicode="&#x182;" horiz-adv-x="1315" 
d="M487 621v-385h189q227 0 227 198q0 187 -215 187h-201zM164 0v1434h923v-267h-600v-311h279q228 0 353.5 -106t125.5 -308t-133.5 -322t-378.5 -120h-569z" />
    <glyph glyph-name="uni0183" unicode="&#x183;" horiz-adv-x="1270" 
d="M444 551v-105q0 -99 57 -164t155.5 -65t158 83.5t59.5 223.5t-54.5 211.5t-152.5 71.5t-160.5 -71t-62.5 -185zM449 119v-119h-316v1516h920v-205h-604v-441h4q117 179 324 179t314 -136t107 -382t-125 -401t-324 -155t-296 144h-4z" />
    <glyph glyph-name="uni0184" unicode="&#x184;" horiz-adv-x="1315" 
d="M487 621v-385h189q227 0 227 198q0 187 -215 187h-201zM164 0v1001l-205 181v26l502 250h26v-602h279q228 0 353.5 -106t125.5 -309t-133.5 -322t-378.5 -119h-569z" />
    <glyph glyph-name="uni0185" unicode="&#x185;" horiz-adv-x="1270" 
d="M777 1049q207 0 314 -136t107 -382t-125 -401t-324 -155t-296 144h-4v-119h-316v1058l-205 181v26l496 250h26l-1 -645h4q117 179 324 179zM444 551v-105q0 -99 57 -164t155.5 -65t158 83.5t59.5 223.5t-54.5 211.5t-152.5 71.5t-160.5 -71t-62.5 -185z" />
    <glyph glyph-name="uni0186" unicode="&#x186;" horiz-adv-x="1280" 
d="M425.5 254q192.5 0 316.5 127t124 339.5t-117 336t-309.5 123.5t-351.5 -93v295q158 76 410 76q330 0 519 -193.5t189 -527.5t-213 -548t-551 -214q-207 0 -354 54v311q145 -86 337.5 -86z" />
    <glyph glyph-name="uni0187" unicode="&#x187;" horiz-adv-x="1280" 
d="M1323.5 1413q-58.5 0 -97 -49t-38.5 -127.5t12 -142.5l-8 -7q-178 93 -365 93t-300 -128t-113 -339.5t117 -335t310.5 -123.5t350.5 92v-295q-157 -76 -410 -76q-330 0 -519 194t-189 527.5t208.5 547.5t539.5 214q83 0 165 -24q28 99 112.5 161t180 62t154.5 -23v-248
q-52 27 -110.5 27z" />
    <glyph glyph-name="uni0188" unicode="&#x188;" horiz-adv-x="985" 
d="M1040 1024q-55 0 -93 -48.5t-38 -113.5t9 -119l-9 -6q-105 70 -232.5 70t-205.5 -79t-78 -217.5t76 -216t201.5 -77.5t238.5 74v-254q-107 -62 -326 -62t-365 143t-146 386.5t155 394t416 150.5q45 0 94 -9q20 86 99.5 146.5t165 60.5t137.5 -20v-226q-44 23 -99 23z" />
    <glyph glyph-name="uni0189" unicode="&#x189;" horiz-adv-x="1510" 
d="M487 1171v-319h271v-266h-271v-324h160q210 0 329.5 126t119.5 337t-118.5 328.5t-332.5 117.5h-158zM164 0v586h-164v266h164v582h508q764 0 764 -699q0 -335 -208.5 -535t-555.5 -200h-508z" />
    <glyph glyph-name="uni018A" unicode="&#x18a;" horiz-adv-x="1817" 
d="M795 1171v-909h159q210 0 329.5 126t119.5 337t-118.5 328.5t-332.5 117.5h-157zM471 0v1171h-45q-85 0 -136.5 -49t-51.5 -118t22 -132h-287q-24 65 -24 148q0 175 133 294.5t356 119.5h541q764 0 764 -699q0 -335 -208.5 -535t-555.5 -200h-508z" />
    <glyph glyph-name="uni018B" unicode="&#x18b;" horiz-adv-x="1315" 
d="M827 236v385h-188q-108 0 -167.5 -53t-59.5 -146q0 -186 215 -186h200zM1151 0h-602q-228 0 -353.5 106t-125.5 309t133.5 322t378.5 119h245v311h-600v267h924v-1434z" />
    <glyph glyph-name="uni018C" unicode="&#x18c;" horiz-adv-x="1270" 
d="M825 498v77q0 100 -58 166t-157 66t-158 -82.5t-59 -222.5t57 -212q58 -72 156 -72.5t158.5 76.5t60.5 204zM1137 0h-316v141h-4q-109 -166 -309 -166t-318 135.5t-118 383.5t129 401.5t333 153.5t283 -142h4v404h-604v205h920v-1516z" />
    <glyph glyph-name="uni018D" unicode="&#x18d;" horiz-adv-x="1252" 
d="M858 559q0 111 -62.5 179.5t-168.5 68.5t-170 -70t-64 -165t51 -163t203 -151q211 115 211 301zM1034 -139.5q0 -152.5 -129.5 -247t-322.5 -94.5t-361 82v286q156 -116 338 -116q152 0 152 92q0 43 -45.5 78.5t-227.5 124.5q-366 179 -366 479q0 221 152 362.5
t408 141.5t402 -136.5t146 -349.5q0 -261 -306 -436q160 -114 160 -266.5z" />
    <glyph glyph-name="uni018E" unicode="&#x18e;" horiz-adv-x="1090" 
d="M926 0h-860v262h536v322h-469v264h469v323h-504v263h828v-1434z" />
    <glyph glyph-name="uni018F" unicode="&#x18f;" horiz-adv-x="1557" 
d="M766 240q142 0 240 95t127 259h-705q17 -165 106.5 -259.5t231.5 -94.5zM78 850h1055q-60 344 -447 344q-214 0 -444 -152v287q207 129 491 129q361 0 555.5 -190t194.5 -531t-198.5 -551.5t-514.5 -210.5t-504 201t-188 531v143z" />
    <glyph glyph-name="uni0190" unicode="&#x190;" horiz-adv-x="1143" 
d="M692 -25q-294 0 -454 110.5t-160 311.5q0 132 76 225.5t213 129.5v6q-240 77 -240 301q0 184 155.5 291.5t426.5 107.5q181 0 338 -61v-283q-149 66 -318 66q-264 0 -264 -158t303 -158h119v-268h-129q-177 0 -258.5 -39t-81.5 -133q0 -170 301 -170q194 0 352 74v-285
q-168 -68 -379 -68z" />
    <glyph glyph-name="uni0191" unicode="&#x191;" horiz-adv-x="1067" 
d="M993 1171h-506v-352h465v-262h-465v-504q0 -219 -116 -341t-320 -122q-90 0 -164 27v279q56 -27 119 -27q158 0 158 188v1377h829v-263z" />
    <glyph glyph-name="florin" unicode="&#x192;" horiz-adv-x="1178" 
d="M911 1204q-124 0 -147 -137l-23 -137h158v-215h-192l-91 -594q-30 -196 -140 -311t-277 -115q-50 0 -121 20v242q39 -20 92 -20q123 0 154 202l88 576h-105v215h142l22 149q25 167 135 267t279 100q82 0 159 -23v-249q-64 30 -133 30z" />
    <glyph glyph-name="uni0193" unicode="&#x193;" horiz-adv-x="1458" 
d="M1403 1413q-58 0 -96.5 -49t-38.5 -127.5t12 -142.5l-8 -7q-185 101 -395 101t-335.5 -130t-125.5 -350.5t113 -341t305 -120.5q116 0 184 33v280h-287v258h610v-721q-210 -121 -539 -121t-528.5 191.5t-199.5 528.5t217.5 550t578.5 213q115 0 197 -24q28 99 112.5 161
t179.5 62t154 -23v-248q-52 27 -110 27z" />
    <glyph glyph-name="uni0194" unicode="&#x194;" horiz-adv-x="1368" 
d="M612 -127q0 -100 72 -100t72 100q0 61 -72 186q-72 -126 -72 -186zM1067 -132q0 -145 -109 -247t-279 -102t-274 100.5t-104 245.5q0 75 26.5 146t108.5 212l35 60l-461 1151h357l262 -736q18 -51 57 -202h4q16 63 60 202l264 736h344l-461 -1145l37 -60
q133 -216 133 -361z" />
    <glyph glyph-name="uni0195" unicode="&#x195;" horiz-adv-x="1913" 
d="M449 0h-316v1516h316v-644h4q116 177 315 177q348 0 348 -420v-150q0 -252 187 -252q90 0 141 67.5t51 186.5q0 247 -129 543h326q118 -271 118 -525t-138 -389t-380 -135t-366.5 124t-124.5 356v127q0 225 -164 225q-84 0 -136 -63t-52 -160v-584z" />
    <glyph glyph-name="uni0196" unicode="&#x196;" horiz-adv-x="772" 
d="M518 -25q-354 0 -354 424v1035h323v-1010q0 -170 140 -170q56 0 104 29v-271q-101 -37 -213 -37z" />
    <glyph glyph-name="uni0197" unicode="&#x197;" horiz-adv-x="733" 
d="M692 584h-164v-584h-323v584h-164v278h164v572h323v-572h164v-278z" />
    <glyph glyph-name="uni0198" unicode="&#x198;" horiz-adv-x="1329" 
d="M487 690v-690h-323v1434h323v-666h5q16 32 36 63l201 308q131 201 218 260t179.5 59t159.5 -26v-283q-48 31 -100 31q-82 0 -189 -160l-184 -277l543 -743h-408l-420 618q-8 12 -36 72h-5z" />
    <glyph glyph-name="uni0199" unicode="&#x199;" horiz-adv-x="1145" 
d="M449 508v-508h-316v1137q0 403 379 403q93 0 168 -24v-242q-48 24 -107 24q-124 0 -124 -161v-586h4l305 473h375l-367 -481l393 -543h-379l-327 508h-4z" />
    <glyph glyph-name="uni019A" unicode="&#x19a;" horiz-adv-x="668" 
d="M647 688h-155v-688h-316v688h-156v205h156v623h316v-623h155v-205z" />
    <glyph glyph-name="uni019B" unicode="&#x19b;" horiz-adv-x="1125" 
d="M269.5 1249q-78.5 0 -150.5 -37v271q77 26 198 26q233 0 345 -217l194 94l70 -143l-205 -98l381 -1145h-330l-199 709l-229 -709h-338l443 1012l-224 -109l-73 146l241 116q-45 84 -123.5 84z" />
    <glyph glyph-name="uni019C" unicode="&#x19c;" horiz-adv-x="1991" 
d="M1827 0h-324v188h-4q-51 -95 -141.5 -154t-198.5 -59q-215 0 -305 220q-120 -220 -352 -220q-342 0 -342 476v983h323v-922q0 -258 168 -258q79 0 129.5 75.5t50.5 192.5v912h324v-930q0 -250 166 -250q82 0 132 73.5t50 200.5v906h324v-1434z" />
    <glyph glyph-name="uni019D" unicode="&#x19d;" horiz-adv-x="1618" 
d="M1454 0h-326l-591 901q-52 79 -72 119h-4q8 -76 8 -232v-729q0 -220 -110 -341t-308 -121q-93 0 -164 26v279q56 -27 119 -27q158 0 158 188v1371h348l569 -873q39 -59 72 -117h4q-8 50 -8 197v793h305v-1434z" />
    <glyph glyph-name="uni019E" unicode="&#x19e;" horiz-adv-x="1235" 
d="M1122 -471h-317v1040q0 238 -168 238q-82 0 -135 -63t-53 -160v-584h-316v1024h316v-162h4q113 187 329 187q340 0 340 -422v-1098z" />
    <glyph glyph-name="uni019F" unicode="&#x19f;" horiz-adv-x="1553" 
d="M779 254q139 0 232.5 89t118.5 251h-704q26 -160 120 -250t233 -90zM782.5 1180q-140.5 0 -234.5 -91t-122 -251h702q-26 164 -115.5 253t-230 89zM774 -25q-312 0 -506 200.5t-194 531.5t197 541t513 210t505.5 -201t189.5 -534.5t-196.5 -540.5t-508.5 -207z" />
    <glyph glyph-name="Ohorn" unicode="&#x1a0;" horiz-adv-x="1592" 
d="M781.5 1180q-167.5 0 -267.5 -127.5t-100 -339t100 -335.5t264.5 -124t262.5 120.5t98 339t-95 342.5t-262.5 124zM1479 727q0 -338 -196.5 -545t-508.5 -207t-506 200.5t-194 531.5t197 541t522 210q198 0 351 -87q58 -14 91 -14q191 0 191 131q0 50 -18 111h192
q23 -69 23 -135q0 -120 -67.5 -187t-192.5 -67l-36 2q152 -195 152 -485z" />
    <glyph glyph-name="ohorn" unicode="&#x1a1;" horiz-adv-x="1290" 
d="M629 807q-112 0 -174 -77t-62 -218q0 -295 238 -295q227 0 227 295t-229 295zM1180 513q0 -242 -149.5 -390t-407.5 -148t-404.5 143.5t-146.5 393.5t152 393.5t411 143.5q68 0 139 -12.5t124 -12.5q177 0 177 141q0 50 -18 111h192q23 -69 23 -131q0 -226 -229 -248
q137 -142 137 -384z" />
    <glyph glyph-name="uni01A2" unicode="&#x1a2;" horiz-adv-x="2165" 
d="M821 1180q-187 0 -296 -128.5t-109 -344.5t110.5 -338.5t292.5 -122.5q127 0 195 33v884q-120 17 -193 17zM2001 0h-324v1118q-83 -12 -165 -12t-175 10v-1020q-210 -121 -540 -121t-526.5 193.5t-196.5 530t207 548t546 211.5q131 0 348.5 -39t352.5 -39q256 0 473 78
v-1458z" />
    <glyph glyph-name="uni01A3" unicode="&#x1a3;" horiz-adv-x="1745" 
d="M637 807q-115 0 -182.5 -78.5t-67.5 -218t67 -216.5t185 -77q56 0 92 10v576q-39 4 -94 4zM1612 0h-307v750q-60 -7 -121 -7t-146 11v-693q-181 -86 -428.5 -86t-392.5 141t-145 390t157 396t414 147q135 0 298 -32t271 -32q214 0 400 64v-1049z" />
    <glyph glyph-name="uni01A4" unicode="&#x1a4;" horiz-adv-x="1567" 
d="M795 1186v-447h127q258 0 258 226q0 221 -258 221h-127zM795 494v-494h-324v1186h-45q-86 0 -137 -54t-51 -126t22 -134h-287q-24 65 -24 148q0 175 133 294.5t356 119.5h539q543 0 543 -457q0 -216 -155.5 -349.5t-416.5 -133.5h-153z" />
    <glyph glyph-name="uni01A5" unicode="&#x1a5;" horiz-adv-x="1270" 
d="M444 539v-82q0 -106 56 -173t155.5 -67t159 83.5t59.5 236.5q0 270 -210 270q-97 0 -158.5 -73.5t-61.5 -194.5zM449 119v-590h-316v1608q0 403 379 403q93 0 168 -24v-242q-48 24 -107 24q-124 0 -124 -161v-267h4q117 179 322.5 179t314 -136.5t108.5 -382
t-126.5 -400.5t-324 -155t-294.5 144h-4z" />
    <glyph glyph-name="uni01A6" unicode="&#x1a6;" horiz-adv-x="1303" 
d="M487 993v-368h131q110 0 171 49.5t61 134.5q0 184 -229 184h-134zM539 381h-52v-381h-323v1434h323v-195h181q524 0 524 -387q0 -279 -322 -369v-4q131 -60 209 -233l199 -441h-371l-157 385q-78 191 -211 191z" />
    <glyph glyph-name="uni01A7" unicode="&#x1a7;" horiz-adv-x="1148" 
d="M641 -25q-397 1 -523 227q-46 82 -46 185t26 168.5t75 116.5q86 89 248.5 157t209.5 102.5t66 62.5q19 30 19 64q0 67 -65 106.5t-176 39.5q-196 0 -340 -100v299q143 55 373 55t389 -106.5t159 -319.5q0 -143 -82.5 -244t-246.5 -168.5t-215 -102.5q-100 -67 -100 -143
q0 -101 136 -134q46 -11 107 -11q221 0 395 146v-320q-156 -80 -409 -80z" />
    <glyph glyph-name="uni01A8" unicode="&#x1a8;" horiz-adv-x="901" 
d="M533 190q148 0 302 93v-256q-145 -52 -275 -52q-242 -1 -366 77q-144 89 -144.5 261t162.5 255q64 32 142 58t107 40q65 32 65 82q0 62 -94 80q-28 6 -58 6q-143 0 -263 -70v244q139 41 251 41q214 0 343.5 -81.5t129.5 -247.5q-1 -166 -143 -248q-79 -45 -153 -67
q-75 -22 -109 -37q-78 -34 -78 -85q0 -93 181 -93z" />
    <glyph glyph-name="uni01A9" unicode="&#x1a9;" horiz-adv-x="1165" 
d="M1125 0h-1083v172l462 554l-437 523v185h996v-265h-540l353 -429l-384 -480h633v-260z" />
    <glyph glyph-name="uni01AA" unicode="&#x1aa;" horiz-adv-x="934" 
d="M389 1139q0 164 -127 164q-49 0 -77.5 -29.5t-28.5 -74.5t31.5 -74t89.5 -29t112 28v15zM723 -481q-334 0 -334 346v1022q-80 -33 -170 -33q-145 0 -243.5 94t-98.5 244.5t109.5 249t300.5 98.5t304.5 -120.5t113.5 -342.5v-1157q0 -160 126 -160q55 0 103 29v-233
q-70 -37 -211 -37z" />
    <glyph glyph-name="uni01AB" unicode="&#x1ab;" horiz-adv-x="797" 
d="M752 -29q0 -169 -104.5 -275t-264.5 -106q-83 0 -156 31v225q61 -32 131 -32q152 0 152 161q-144 0 -223.5 91.5t-79.5 255.5v469h-166v233h166v221l313 90v-311h232v-233h-232v-414q0 -160 129 -160q50 0 103 29v-275z" />
    <glyph glyph-name="uni01AC" unicode="&#x1ac;" horiz-adv-x="1305" 
d="M1274 1171h-410v-1171h-323v1171h-92q-87 0 -139 -46.5t-52 -110.5t16 -119h-274q-20 64 -20 131q0 182 126.5 295t354.5 113h813v-263z" />
    <glyph glyph-name="uni01AD" unicode="&#x1ad;" horiz-adv-x="797" 
d="M541 -25q-334 0 -334 347v469h-166v233h166v109q0 189 92 298t256 109q106 0 197 -35v-237q-54 30 -107 30q-125 0 -125 -174v-100h232v-233h-232v-414q0 -160 129 -160q50 0 103 29v-234q-70 -37 -211 -37z" />
    <glyph glyph-name="uni01AE" unicode="&#x1ae;" horiz-adv-x="1202" 
d="M1171 1171h-409v-1114q0 -188 158 -188q62 0 118 27v-273q-82 -33 -178 -33q-204 0 -313 119t-109 338v1124h-407v263h1140v-263z" />
    <glyph glyph-name="Uhorn" unicode="&#x1af;" horiz-adv-x="1604" 
d="M1333 621q0 -646 -602 -646q-584 0 -584 631v828h324v-832q0 -348 272 -348q267 0 267 336v844h301q64 0 103.5 42t39.5 95.5t-18 114.5h190q19 -57 19 -119q0 -120 -82.5 -196t-229.5 -82v-668z" />
    <glyph glyph-name="uhorn" unicode="&#x1b0;" horiz-adv-x="1368" 
d="M1106 0h-315v156h-5q-117 -181 -313 -181q-356 0 -356 431v618h315v-590q0 -217 172 -217q85 0 136 59.5t51 161.5v586h288q125 0 125 148q0 43 -18 104h184q16 -48 16 -117q0 -117 -73.5 -189.5t-206.5 -79.5v-890z" />
    <glyph glyph-name="uni01B1" unicode="&#x1b1;" horiz-adv-x="1567" 
d="M1485 1174h-340q338 -196 338 -570q0 -285 -195.5 -457t-507.5 -172t-505 173.5t-193 451.5q0 381 348 574h-348v260h602v-260q-262 -226 -262 -525q0 -180 101.5 -288.5t257.5 -108.5t259 108t103 299q0 282 -258 515v260h600v-260z" />
    <glyph glyph-name="uni01B2" unicode="&#x1b2;" horiz-adv-x="1602" 
d="M164 1434h323v-816q0 -364 289 -364q184 0 299 152t115 393q0 184 -63.5 286.5t-178.5 102.5q-88 0 -164 -35v272q98 33 207 33q248 0 388.5 -171.5t140.5 -477.5q0 -355 -212 -594.5t-546 -239.5q-598 0 -598 627v832z" />
    <glyph glyph-name="uni01B3" unicode="&#x1b3;" horiz-adv-x="1268" 
d="M801 0h-324v504l-241 504q-82 172 -189 172q-48 0 -98 -29v281q71 26 151 26q145 0 235.5 -66.5t162.5 -222.5l125 -270q3 -6 32 -117h4q13 72 31 113l236 539h342l-467 -924v-510z" />
    <glyph glyph-name="uni01B4" unicode="&#x1b4;" horiz-adv-x="1219" 
d="M1129 807q-103 0 -173 -189l-258 -702q-146 -397 -458 -397q-115 0 -189 26v252q63 -37 137 -37q123 0 177 129l47 113l-416 1022h350l191 -623q18 -58 28 -137h4q13 78 31 135l86 265q67 207 162.5 296t245.5 89q81 0 155 -27v-248q-58 33 -120 33z" />
    <glyph glyph-name="uni01B5" unicode="&#x1b5;" horiz-adv-x="1243" 
d="M1196 0h-1155v186l307 412h-176v262h373l231 311h-682v263h1100v-181l-285 -393h221v-262h-411l-244 -336h721v-262z" />
    <glyph glyph-name="uni01B6" unicode="&#x1b6;" horiz-adv-x="981" 
d="M944 0h-919v131l225 289h-113v194h264l138 177h-463v233h864v-156l-195 -254h138v-194h-287l-143 -187h491v-233z" />
    <glyph glyph-name="uni01B7" unicode="&#x1b7;" horiz-adv-x="1370" 
d="M528 -203q196 0 312 92t116 247.5t-129.5 243t-361.5 87.5h-143v186l460 518h-725v263h1155v-181l-477 -538q258 -38 409.5 -190.5t151.5 -383.5q0 -274 -216.5 -448t-551.5 -174q-260 0 -487 119v319q213 -160 487 -160z" />
    <glyph glyph-name="uni01B8" unicode="&#x1b8;" horiz-adv-x="1370" 
d="M825 -481q-333 0 -542 166.5t-209 435.5q0 231 154.5 392t406.5 202l-477 538v181h1155v-263h-719l455 -518v-186h-144q-232 0 -361.5 -87.5t-129.5 -243t116 -247.5t312 -92q291 0 487 148v-307q-231 -119 -504 -119z" />
    <glyph glyph-name="uni01B9" unicode="&#x1b9;" horiz-adv-x="1016" 
d="M606 -481q-251 0 -418.5 127t-167.5 340q0 173 118 299t317 170l-363 413v156h914v-233h-533l346 -408v-131h-125q-167 0 -261.5 -66.5t-94.5 -180.5t86.5 -179.5t230.5 -65.5q224 0 383 115v-262q-181 -94 -432 -94z" />
    <glyph glyph-name="uni01BA" unicode="&#x1ba;" horiz-adv-x="912" 
d="M386 -481q-188 0 -302.5 75t-114.5 201t74.5 205.5t240.5 135.5t210.5 92t44.5 94t-59.5 83t-190.5 25h-84v141l229 230h-403v223h790v-166l-266 -252q305 -42 305 -287q0 -134 -90.5 -223t-323.5 -162q-125 -39 -151.5 -61.5t-26.5 -52.5q0 -72 154 -72t301 72v-246
q-149 -55 -337 -55z" />
    <glyph glyph-name="uni01BB" unicode="&#x1bb;" horiz-adv-x="1178" 
d="M1053 0h-944v246l266 293h-182v241h397q112 137 112 234q0 192 -215 192q-181 0 -350 -147v278q187 121 403 121t350 -113t134 -294q0 -124 -113 -271h142v-241h-338l-244 -271v-6h582v-262z" />
    <glyph glyph-name="uni01BC" unicode="&#x1bc;" horiz-adv-x="1178" 
d="M456.5 217q145.5 0 216 59.5t70.5 160.5t-79.5 157.5t-225.5 56.5q-80 0 -248 -18l98 543h-157v258h868v-258h-438l-51 -287q63 6 94 6q215 0 338 -117t123 -322.5t-149 -343t-404 -137.5q-207 0 -348 62v270q147 -90 292.5 -90z" />
    <glyph glyph-name="uni01BD" unicode="&#x1bd;" horiz-adv-x="910" 
d="M344 190q182 0 182 117t-213 117q-102 0 -190 -16l43 387h-115v229h766v-229h-389l-16 -160q56 6 88 6q162 0 255 -82t93 -231.5t-120.5 -251t-310.5 -101.5t-315 41v230q117 -56 242 -56z" />
    <glyph glyph-name="uni01BE" unicode="&#x1be;" horiz-adv-x="901" 
d="M399.5 190q143.5 0 143.5 93q0 29 -19 54.5t-135 80t-167.5 125.5t-51.5 180v68h-135v233h135v221l315 90v-311h230v-233h-230v-43q0 -36 22 -63t130.5 -81t158.5 -124.5t50 -172.5q0 -153 -118.5 -242.5t-330.5 -89.5q-159 0 -297 52v256q156 -93 299.5 -93z" />
    <glyph glyph-name="uni01BF" unicode="&#x1bf;" horiz-adv-x="1225" 
d="M852 610q0 79 -48 132t-124 53q-109 0 -231 -121v-453q192 63 297.5 165.5t105.5 223.5zM449 -471h-316v1495h316v-106h4q126 131 316 131t297.5 -115.5t107.5 -300.5q0 -229 -197.5 -414t-527.5 -274v-416z" />
    <glyph glyph-name="uni01C0" unicode="&#x1c0;" horiz-adv-x="668" 
d="M461 -481h-252v2048h252v-2048z" />
    <glyph glyph-name="uni01C1" unicode="&#x1c1;" horiz-adv-x="1127" 
d="M461 -481h-252v2048h252v-2048zM920 -481h-252v2048h252v-2048z" />
    <glyph glyph-name="uni01C2" unicode="&#x1c2;" horiz-adv-x="1059" 
d="M997 233h-342v-714h-252v714h-342v234h342v268h-342v234h342v598h252v-598h342v-234h-342v-268h342v-234z" />
    <glyph glyph-name="uni01C3" unicode="&#x1c3;" horiz-adv-x="670" 
d="M336 -23q-80 1 -132 49t-52 118t52 117q52 46 132 46q80 -1 131 -47t51 -118t-50 -118q-52 -47 -132 -47zM500 1434l-39 -988h-256l-37 988h332z" />
    <glyph glyph-name="uni01C4" unicode="&#x1c4;" horiz-adv-x="2661" 
d="M487 1171v-909h160q210 0 329.5 126t119.5 337t-118.5 328.5t-332.5 117.5h-158zM164 0v1434h508q764 0 764 -699q0 -335 -208.5 -535t-555.5 -200h-508zM2613 0h-1155v186l735 985h-682v263h1100v-181l-719 -991h721v-262zM2430 1891l-238 -325h-248l-235 325h205
l155 -188l156 188h205z" />
    <glyph glyph-name="uni01C5" unicode="&#x1c5;" horiz-adv-x="2476" 
d="M487 1171v-909h160q210 0 329.5 126t119.5 337t-118.5 328.5t-332.5 117.5h-158zM164 0v1434h508q764 0 764 -699q0 -335 -208.5 -535t-555.5 -200h-508zM2439 0h-919v131l514 660h-463v233h864v-156l-487 -635h491v-233zM2382 1511l-238 -325h-248l-235 325h205
l155 -188l156 188h205z" />
    <glyph glyph-name="uni01C6" unicode="&#x1c6;" horiz-adv-x="2224" 
d="M825 498v77q0 100 -58 166t-157 66t-158 -82.5t-59 -222.5t57 -212q58 -72 156 -72.5t158.5 76.5t60.5 204zM1135 0h-316v141h-4q-109 -166 -309 -166t-317 135.5t-117 383.5t129 401.5t333 153.5t281 -142h4v609h316v-1516zM2187 0h-919v131l514 660h-463v233h864v-156
l-487 -635h491v-233zM2131 1511l-238 -325h-248l-235 325h205l155 -188l156 188h205z" />
    <glyph glyph-name="uni01C7" unicode="&#x1c7;" horiz-adv-x="1958" 
d="M997 0h-833v1434h323v-1172h510v-262zM1808 569q0 -288 -133.5 -441t-386.5 -153q-113 0 -209 39v303q83 -63 187 -63q221 0 221 328v852h321v-865z" />
    <glyph glyph-name="uni01C8" unicode="&#x1c8;" horiz-adv-x="1606" 
d="M1473 18q0 -227 -111 -363t-320 -136q-69 0 -151 30v248q66 -37 117 -37q149 0 149 234v1030h316v-1006zM997 0h-833v1434h323v-1172h510v-262zM1317.5 1186q-80.5 0 -131.5 47.5t-51 117.5t51 115t131.5 45t131 -45t50.5 -116.5t-50.5 -117.5t-131 -46z" />
    <glyph glyph-name="uni01C9" unicode="&#x1c9;" horiz-adv-x="1164" 
d="M449 0h-316v1516h316v-1516zM1030 18q0 -227 -111 -363t-320 -136q-69 0 -151 30v248q66 -37 117 -37q149 0 149 234v1030h316v-1006zM874.5 1186q-80.5 0 -131.5 47.5t-51 117.5t51 115t131.5 45t131 -45t50.5 -116.5t-50.5 -117.5t-131 -46z" />
    <glyph glyph-name="uni01CA" unicode="&#x1ca;" horiz-adv-x="2466" 
d="M1454 0h-326l-591 901q-52 79 -72 119h-4q8 -76 8 -232v-788h-305v1434h348l569 -873q39 -59 72 -117h4q-8 50 -8 197v793h305v-1434zM2316 569q0 -288 -133.5 -441t-386.5 -153q-113 0 -209 39v303q83 -63 186 -63q221 0 221 328v852h322v-865z" />
    <glyph glyph-name="uni01CB" unicode="&#x1cb;" horiz-adv-x="2169" 
d="M1454 0h-326l-591 901q-52 79 -72 119h-4q8 -76 8 -232v-788h-305v1434h348l569 -873q39 -59 72 -117h4q-8 50 -8 197v793h305v-1434zM2036 18q0 -227 -111 -363t-320 -136q-69 0 -151 30v248q66 -37 117 -37q149 0 149 234v1030h316v-1006zM1880.5 1186
q-80.5 0 -131.5 47.5t-51 117.5t51 115t131.5 45t131 -45t50.5 -116.5t-50.5 -117.5t-131 -46z" />
    <glyph glyph-name="uni01CC" unicode="&#x1cc;" horiz-adv-x="1837" 
d="M1122 0h-315v569q0 238 -170 238q-82 0 -135 -63t-53 -160v-584h-316v1024h316v-162h4q113 187 329 187q340 0 340 -422v-627zM1705 18q0 -227 -111 -363t-320 -136q-69 0 -151 30v248q66 -37 117 -37q149 0 149 234v1030h316v-1006zM1549.5 1186q-80.5 0 -131.5 47.5
t-51 117.5t51 115t131.5 45t131 -45t50.5 -116.5t-50.5 -117.5t-131 -46z" />
    <glyph glyph-name="uni01CD" unicode="&#x1cd;" horiz-adv-x="1440" 
d="M897 567l-154 482q-17 54 -24 129h-8q-5 -63 -25 -125l-156 -486h367zM1425 0h-352l-102 319h-510l-101 -319h-350l522 1434h383zM1081 1883l-238 -325h-248l-235 325h205l155 -188l156 188h205z" />
    <glyph glyph-name="uni01CE" unicode="&#x1ce;" horiz-adv-x="1102" 
d="M688 416v69l-186 -24q-154 -20 -154 -139q0 -54 38 -88t114 -34.5t132 61t56 155.5zM985 0h-299v147h-4q-103 -172 -305 -172q-149 0 -234.5 84.5t-85.5 225.5q0 298 353 344l278 37q0 168 -182 168t-348 -109v238q66 34 180.5 60t208.5 26q438 0 438 -437v-612z
M895 1499l-238 -325h-248l-235 325h205l155 -188l156 188h205z" />
    <glyph glyph-name="uni01CF" unicode="&#x1cf;" horiz-adv-x="649" 
d="M607 1434v-250h-120v-934h120v-250h-563v250h120v934h-120v250h563zM688 1883l-238 -325h-248l-235 325h205l155 -188l156 188h205z" />
    <glyph glyph-name="uni01D0" unicode="&#x1d0;" horiz-adv-x="582" 
d="M449 0h-316v1024h316v-1024zM651 1499l-238 -325h-248l-235 325h205l155 -188l156 188h205z" />
    <glyph glyph-name="uni01D1" unicode="&#x1d1;" horiz-adv-x="1553" 
d="M781.5 1180q-167.5 0 -267.5 -127.5t-100 -339t100 -335.5t264.5 -124t262.5 120.5t98 339t-95 342.5t-262.5 124zM774 -25q-312 0 -506 200.5t-194 531.5t197 541t513 210t505.5 -201t189.5 -534.5t-196.5 -540.5t-508.5 -207zM1137 1883l-238 -325h-248l-235 325h205
l155 -188l156 188h205z" />
    <glyph glyph-name="uni01D2" unicode="&#x1d2;" horiz-adv-x="1252" 
d="M629 807q-112 0 -174 -77t-62 -218q0 -295 238 -295q227 0 227 295t-229 295zM623 -25q-258 0 -404.5 143.5t-146.5 393.5t152 393.5t409 143.5t402 -143.5t145 -389t-149.5 -393.5t-407.5 -148zM987 1499l-238 -325h-248l-235 325h205l155 -188l156 188h205z" />
    <glyph glyph-name="uni01D3" unicode="&#x1d3;" horiz-adv-x="1481" 
d="M1333 621q0 -646 -602 -646q-584 0 -584 631v828h324v-832q0 -348 272 -348q267 0 267 336v844h323v-813zM1137 1883l-238 -325h-248l-235 325h205l155 -188l156 188h205z" />
    <glyph glyph-name="uni01D4" unicode="&#x1d4;" horiz-adv-x="1239" 
d="M1106 0h-315v156h-5q-117 -181 -313 -181q-356 0 -356 431v618h315v-590q0 -217 172 -217q85 0 136 59.5t51 161.5v586h315v-1024zM981 1499l-238 -325h-248l-235 325h205l155 -188l156 188h205z" />
    <glyph glyph-name="uni01D5" unicode="&#x1d5;" horiz-adv-x="1481" 
d="M1333 621q0 -646 -602 -646q-584 0 -584 631v828h324v-832q0 -348 272 -348q267 0 267 336v844h323v-813zM544 1627q-54 0 -88 31t-34 77t34 76t88 30q52 0 86 -30t34 -77t-33 -77t-87 -30zM942 1627q-54 1 -87 31q-34 30 -34 76q-1 46 33 77q34 30 87 30t87 -30t34 -77
t-33 -77t-87 -30zM1035 1913h-586v172h586v-172z" />
    <glyph glyph-name="uni01D6" unicode="&#x1d6;" horiz-adv-x="1239" 
d="M1106 0h-315v156h-5q-117 -181 -313 -181q-356 0 -356 431v618h315v-590q0 -217 172 -217q85 -1 136 59t51 162v586h315v-1024zM423 1248q-54 0 -88 31t-34 77q1 46 35 76t86 30t87 -30q34 -30 34 -77t-33 -77t-87 -30zM822 1248q-54 0 -88 30t-34 78q0 46 34 76t86 30
q53 0 87 -30t34 -77t-33 -77q-32 -30 -86 -30zM914 1534h-586v172h586v-172z" />
    <glyph glyph-name="uni01D7" unicode="&#x1d7;" horiz-adv-x="1481" 
d="M1333 621q0 -646 -602 -646q-584 0 -584 631v828h324v-832q0 -348 272 -348q267 0 267 336v844h323v-813zM484 1575q-54 0 -88 31t-34 77t34 76t88 30q52 0 86 -30t34 -77t-33 -77t-87 -30zM924 1575q-54 1 -88 31t-34 76t34 77q34 30 86 30q53 0 87 -30t34 -77t-33 -77
q-32 -30 -86 -30zM1118 2184l-313 -323h-227l260 323h280z" />
    <glyph glyph-name="uni01D8" unicode="&#x1d8;" horiz-adv-x="1239" 
d="M1106 0h-315v156h-5q-117 -181 -313 -181q-356 0 -356 431v618h315v-590q0 -217 172 -217q85 -1 136 59t51 162v586h315v-1024zM364 1196q-54 0 -88 31t-34 77t34 76t88 30q52 0 86 -30t34 -77t-33 -77t-87 -30zM804 1196q-54 0 -88 30t-34 78q0 46 34 76t86 30
q53 0 87 -30t34 -77t-33 -77q-32 -30 -86 -30zM998 1805l-313 -323h-227l260 323h280z" />
    <glyph glyph-name="uni01D9" unicode="&#x1d9;" horiz-adv-x="1481" 
d="M1333 621q0 -646 -602 -646q-584 0 -584 631v828h324v-832q0 -348 272 -348q267 0 267 336v844h323v-813zM537 1577q-54 0 -88 31t-34 77q1 46 35 76t86 30t87 -30q34 -30 34 -77t-33 -77t-87 -30zM936 1577q-54 1 -88 31t-34 76t34 77q34 30 86 30q53 0 87 -30t34 -77
t-33 -77q-32 -30 -86 -30zM1096 2188l-238 -325h-248l-235 325h204l156 -188l156 188h205z" />
    </font>
</defs>
</svg>
